<svg width="100" height="100" viewBox="0 0 100 100" fill="none" xmlns="http://www.w3.org/2000/svg">
<rect width="100" height="100" rx="50" fill="url(#paint0_linear_1085_6)"/>
<path fill-rule="evenodd" clip-rule="evenodd" d="M46.4232 36.3189H74.04C74.376 36.3189 74.544 36.3189 74.6724 36.2535C74.7853 36.196 74.8771 36.1042 74.9346 35.9913C75 35.8629 75 35.6949 75 35.3589V25.96C75 25.624 75 25.456 74.9346 25.3276C74.8771 25.2147 74.7853 25.1229 74.6724 25.0654C74.544 25 74.376 25 74.04 25H47.3832C47.0472 25 46.8792 25 46.7508 25.0654C46.6379 25.1229 46.5462 25.2147 46.4886 25.3276C46.4232 25.456 46.4232 25.624 46.4232 25.96V36.3189L37.351 27.2325C36.8368 26.7175 36.5798 26.46 36.359 26.4426C36.1675 26.4274 35.9803 26.5048 35.8555 26.6509C35.7116 26.8192 35.7116 27.1831 35.7116 27.9108V38.7303L26.6394 29.6439C26.1252 29.1289 25.8681 28.8715 25.6474 28.854C25.4559 28.8388 25.2687 28.9163 25.1438 29.0623C25 29.2307 25 29.5945 25 30.3222V40.7445C25 40.8911 25 40.9644 25.0165 41.0334C25.0312 41.0946 25.0554 41.1531 25.0882 41.2067C25.1253 41.2672 25.1771 41.3191 25.2806 41.4228L35.7116 51.8701V74.04C35.7116 74.376 35.7116 74.544 35.777 74.6724C35.8345 74.7853 35.9263 74.8771 36.0392 74.9346C36.1676 75 36.3356 75 36.6716 75H46.1312C46.4672 75 46.6352 75 46.7636 74.9346C46.8765 74.8771 46.9683 74.7853 47.0258 74.6724C47.0912 74.544 47.0912 74.376 47.0912 74.04V64.149C47.0912 63.8129 47.0912 63.6449 47.1566 63.5166C47.2141 63.4037 47.3059 63.3119 47.4188 63.2544C47.5471 63.189 47.7151 63.189 48.0512 63.189H74.04C74.376 63.189 74.544 63.189 74.6724 63.1236C74.7853 63.0661 74.8771 62.9743 74.9346 62.8614C75 62.733 75 62.565 75 62.229V52.8301C75 52.4941 75 52.326 74.9346 52.1977C74.8771 52.0848 74.7853 51.993 74.6724 51.9355C74.544 51.8701 74.376 51.8701 74.04 51.8701H35.7116L35.7116 38.7303L44.7839 47.8168C45.298 48.3317 45.5551 48.5892 45.7758 48.6067C45.9674 48.6218 46.1546 48.5444 46.2794 48.3983C46.4232 48.23 46.4232 47.8661 46.4232 47.1385V36.3189Z" fill="white"/>
<defs>
<linearGradient id="paint0_linear_1085_6" x1="2.48758e-05" y1="2.48758e-05" x2="100" y2="100" gradientUnits="userSpaceOnUse">
<stop stop-color="#000040"/>
<stop offset="1" stop-color="#000080"/>
</linearGradient>
</defs>
</svg>
