<svg width="1000" height="1000" viewBox="0 0 1000 1000" fill="none" xmlns="http://www.w3.org/2000/svg">
<rect width="1000" height="1000" rx="500" fill="url(#paint0_linear_1085_6)"/>
<path fill-rule="evenodd" clip-rule="evenodd" d="M464.232 363.189H740.4C743.76 363.189 745.44 363.189 746.724 362.535C747.853 361.96 748.771 361.042 749.346 359.913C750 358.629 750 356.949 750 353.589V259.6C750 256.24 750 254.56 749.346 253.276C748.771 252.147 747.853 251.229 746.724 250.654C745.44 250 743.76 250 740.4 250H473.832C470.472 250 468.792 250 467.508 250.654C466.379 251.229 465.462 252.147 464.886 253.276C464.232 254.56 464.232 256.24 464.232 259.6V363.189L373.51 272.325C368.368 267.175 365.798 264.6 363.59 264.426C361.675 264.274 359.803 265.048 358.555 266.509C357.116 268.192 357.116 271.831 357.116 279.108V387.303L266.394 296.439C261.252 291.289 258.681 288.715 256.474 288.54C254.559 288.388 252.687 289.163 251.438 290.623C250 292.307 250 295.945 250 303.222V407.445C250 408.911 250 409.644 250.165 410.334C250.312 410.946 250.554 411.531 250.882 412.067C251.253 412.672 251.771 413.191 252.806 414.228L357.116 518.701V740.4C357.116 743.76 357.116 745.44 357.77 746.724C358.345 747.853 359.263 748.771 360.392 749.346C361.676 750 363.356 750 366.716 750H461.312C464.672 750 466.352 750 467.636 749.346C468.765 748.771 469.683 747.853 470.258 746.724C470.912 745.44 470.912 743.76 470.912 740.4V641.49C470.912 638.129 470.912 636.449 471.566 635.166C472.141 634.037 473.059 633.119 474.188 632.544C475.471 631.89 477.151 631.89 480.512 631.89H740.4C743.76 631.89 745.44 631.89 746.724 631.236C747.853 630.661 748.771 629.743 749.346 628.614C750 627.33 750 625.65 750 622.29V528.301C750 524.94 750 523.26 749.346 521.977C748.771 520.848 747.853 519.93 746.724 519.355C745.44 518.701 743.76 518.701 740.4 518.701H357.116L357.116 387.303L447.839 478.168C452.98 483.317 455.551 485.892 457.758 486.067C459.674 486.218 461.546 485.444 462.794 483.983C464.232 482.3 464.232 478.661 464.232 471.385V363.189Z" fill="white"/>
<defs>
<linearGradient id="paint0_linear_1085_6" x1="0.000248758" y1="0.000248758" x2="1000" y2="1000" gradientUnits="userSpaceOnUse">
<stop stop-color="#0000C0"/>
<stop offset="0.75" stop-color="#000040"/>
</linearGradient>
</defs>
</svg>
