<svg width="322" height="100" viewBox="0 0 322 100" fill="none" xmlns="http://www.w3.org/2000/svg">
<path d="M9.9 84C9.16667 84 8.56667 83.7667 8.1 83.3C7.63333 82.8333 7.4 82.2333 7.4 81.5V16.5C7.4 15.7667 7.63333 15.1667 8.1 14.7C8.56667 14.2333 9.16667 14 9.9 14H54.5C55.2333 14 55.8333 14.2333 56.3 14.7C56.7667 15.1667 57 15.7667 57 16.5V25C57 25.7333 56.7667 26.3333 56.3 26.8C55.8333 27.2667 55.2333 27.5 54.5 27.5H23V44.4H52.5C53.2333 44.4 53.8333 44.6333 54.3 45.1C54.7667 45.5667 55 46.1667 55 46.9V55.4C55 56.0667 54.7667 56.6333 54.3 57.1C53.8333 57.5667 53.2333 57.8 52.5 57.8H23V81.5C23 82.2333 22.7667 82.8333 22.3 83.3C21.8333 83.7667 21.2333 84 20.5 84H9.9ZM80.1938 85C76.6604 85 73.4938 84.3333 70.6938 83C67.8938 81.6 65.6604 79.7333 63.9938 77.4C62.3271 75.0667 61.4938 72.4667 61.4938 69.6C61.4938 64.8667 63.3938 61.1333 67.1938 58.4C71.0604 55.6667 76.1271 53.8 82.3938 52.8L95.4938 50.9V49.1C95.4938 46.5 94.8938 44.5 93.6938 43.1C92.4938 41.7 90.3938 41 87.3938 41C85.1938 41 83.4271 41.4333 82.0938 42.3C80.7604 43.1667 79.7271 44.3 78.9938 45.7C78.4604 46.5667 77.6938 47 76.6938 47H67.1938C66.4604 47 65.8938 46.8 65.4938 46.4C65.0938 45.9333 64.9271 45.4 64.9938 44.8C64.9938 43.6667 65.4271 42.3333 66.2938 40.8C67.1604 39.2667 68.4938 37.7667 70.2938 36.3C72.0938 34.7667 74.3938 33.5 77.1938 32.5C79.9938 31.5 83.4271 31 87.4938 31C91.6938 31 95.2938 31.5 98.2938 32.5C101.294 33.5 103.694 34.9 105.494 36.7C107.294 38.5 108.627 40.6 109.494 43C110.36 45.3333 110.794 47.8667 110.794 50.6V81.5C110.794 82.2333 110.56 82.8333 110.094 83.3C109.627 83.7667 109.027 84 108.294 84H98.4938C97.8271 84 97.2604 83.7667 96.7938 83.3C96.3271 82.8333 96.0938 82.2333 96.0938 81.5V77.8C95.2271 79.0667 94.0604 80.2667 92.5938 81.4C91.1271 82.4667 89.3604 83.3333 87.2938 84C85.2937 84.6667 82.9271 85 80.1938 85ZM84.1938 74.6C86.3938 74.6 88.3604 74.1333 90.0938 73.2C91.8271 72.2667 93.1938 70.8333 94.1938 68.9C95.1938 66.9667 95.6938 64.5333 95.6938 61.6V59.9L86.3938 61.4C82.7938 62 80.1604 62.9 78.4938 64.1C76.8271 65.3 75.9938 66.7667 75.9938 68.5C75.9938 69.7667 76.3604 70.8667 77.0938 71.8C77.8938 72.7333 78.9271 73.4333 80.1938 73.9C81.4604 74.3667 82.7938 74.6 84.1938 74.6ZM125.402 84C124.668 84 124.068 83.7667 123.602 83.3C123.135 82.8333 122.902 82.2333 122.902 81.5V15.5C122.902 14.7667 123.135 14.1667 123.602 13.7C124.068 13.2333 124.668 13 125.402 13H135.402C136.068 13 136.635 13.2333 137.102 13.7C137.568 14.1667 137.802 14.7667 137.802 15.5V81.5C137.802 82.2333 137.568 82.8333 137.102 83.3C136.635 83.7667 136.068 84 135.402 84H125.402ZM165.741 85C162.207 85 159.041 84.3333 156.241 83C153.441 81.6 151.207 79.7333 149.541 77.4C147.874 75.0667 147.041 72.4667 147.041 69.6C147.041 64.8667 148.941 61.1333 152.741 58.4C156.607 55.6667 161.674 53.8 167.941 52.8L181.041 50.9V49.1C181.041 46.5 180.441 44.5 179.241 43.1C178.041 41.7 175.941 41 172.941 41C170.741 41 168.974 41.4333 167.641 42.3C166.307 43.1667 165.274 44.3 164.541 45.7C164.007 46.5667 163.241 47 162.241 47H152.741C152.007 47 151.441 46.8 151.041 46.4C150.641 45.9333 150.474 45.4 150.541 44.8C150.541 43.6667 150.974 42.3333 151.841 40.8C152.707 39.2667 154.041 37.7667 155.841 36.3C157.641 34.7667 159.941 33.5 162.741 32.5C165.541 31.5 168.974 31 173.041 31C177.241 31 180.841 31.5 183.841 32.5C186.841 33.5 189.241 34.9 191.041 36.7C192.841 38.5 194.174 40.6 195.041 43C195.907 45.3333 196.341 47.8667 196.341 50.6V81.5C196.341 82.2333 196.107 82.8333 195.641 83.3C195.174 83.7667 194.574 84 193.841 84H184.041C183.374 84 182.807 83.7667 182.341 83.3C181.874 82.8333 181.641 82.2333 181.641 81.5V77.8C180.774 79.0667 179.607 80.2667 178.141 81.4C176.674 82.4667 174.907 83.3333 172.841 84C170.841 84.6667 168.474 85 165.741 85ZM169.741 74.6C171.941 74.6 173.907 74.1333 175.641 73.2C177.374 72.2667 178.741 70.8333 179.741 68.9C180.741 66.9667 181.241 64.5333 181.241 61.6V59.9L171.941 61.4C168.341 62 165.707 62.9 164.041 64.1C162.374 65.3 161.541 66.7667 161.541 68.5C161.541 69.7667 161.907 70.8667 162.641 71.8C163.441 72.7333 164.474 73.4333 165.741 73.9C167.007 74.3667 168.341 74.6 169.741 74.6ZM210.948 84C210.215 84 209.615 83.7667 209.148 83.3C208.682 82.8333 208.448 82.2333 208.448 81.5V15.5C208.448 14.7667 208.682 14.1667 209.148 13.7C209.615 13.2333 210.215 13 210.948 13H220.748C221.415 13 221.982 13.2333 222.448 13.7C222.915 14.1667 223.148 14.7667 223.148 15.5V49.3L238.548 33.7C239.082 33.2333 239.548 32.8333 239.948 32.5C240.415 32.1667 241.115 32 242.048 32H253.348C254.015 32 254.548 32.2333 254.948 32.7C255.348 33.1 255.548 33.6 255.548 34.2C255.548 34.4667 255.482 34.7667 255.348 35.1C255.215 35.4333 254.982 35.7 254.648 35.9L235.348 55.3L257.148 80.2C257.748 80.7333 258.048 81.2667 258.048 81.8C258.048 82.4 257.815 82.9333 257.348 83.4C256.948 83.8 256.448 84 255.848 84H244.248C243.248 84 242.515 83.8333 242.048 83.5C241.648 83.1667 241.182 82.7667 240.648 82.3L223.148 62.7V81.5C223.148 82.2333 222.915 82.8333 222.448 83.3C221.982 83.7667 221.415 84 220.748 84H210.948ZM288.934 40.6C287.467 40.6 286.734 39.8667 286.734 38.4V16.2C286.734 14.7333 287.467 14 288.934 14H292.234C293.034 14 293.634 14.2667 294.034 14.8C294.5 15.2667 294.9 15.7333 295.234 16.2L300.634 24.9L306.034 16.2C306.367 15.7333 306.767 15.2667 307.234 14.8C307.7 14.2667 308.3 14 309.034 14H312.334C313.8 14 314.534 14.7333 314.534 16.2V38.4C314.534 39.8667 313.8 40.6 312.334 40.6H308.934C307.467 40.6 306.734 39.8667 306.734 38.4V28.1L304.134 32.2C303.8 32.7333 303.467 33.2 303.134 33.6C302.8 34 302.267 34.2 301.534 34.2H299.734C299.067 34.2 298.534 34 298.134 33.6C297.8 33.2 297.467 32.7333 297.134 32.2L294.534 28.1V38.4C294.534 39.8667 293.8 40.6 292.334 40.6H288.934ZM270.734 40.6C269.267 40.6 268.534 39.8667 268.534 38.4V21.7H263.334C261.867 21.7 261.134 20.9667 261.134 19.5V16.2C261.134 14.7333 261.867 14 263.334 14H281.534C283 14 283.734 14.7333 283.734 16.2V19.5C283.734 20.9667 283 21.7 281.534 21.7H276.334V38.4C276.334 39.8667 275.6 40.6 274.134 40.6H270.734Z" fill="black"/>
</svg>
