<svg width="494" height="100" viewBox="0 0 494 100" fill="none" xmlns="http://www.w3.org/2000/svg">
<path d="M20.0305 50.6C20.0305 48.9431 21.3736 47.6 23.0305 47.6H61.8988C63.5557 47.6 64.8988 48.9431 64.8988 50.6V61.9333C64.8988 63.5902 63.5557 64.9333 61.8988 64.9333H23.0305C21.3736 64.9333 20.0305 63.5902 20.0305 61.9333V50.6ZM21.6329 95.9333C21.6329 97.5902 20.2898 98.9333 18.6329 98.9333H3C1.34315 98.9333 0 97.5902 0 95.9333V8.6C0 6.94315 1.34315 5.6 3 5.6H67.6409C69.2977 5.6 70.6409 6.94314 70.6409 8.6V19.9333C70.6409 21.5902 69.2977 22.9333 67.6409 22.9333H24.6329C22.9761 22.9333 21.6329 24.2765 21.6329 25.9333V95.9333Z" fill="black"/>
<path d="M128.798 98.9333C127.141 98.9333 125.798 97.5902 125.798 95.9333V84.9333L124.462 81.8667V56.8C124.462 52.3556 123.083 48.8889 120.323 46.4C117.652 43.9111 113.512 42.6667 107.904 42.6667C104.076 42.6667 100.292 43.2889 96.5532 44.5333C94.2257 45.2702 92.1153 46.1878 90.2222 47.2862C88.5877 48.2345 86.4008 47.7691 85.5362 46.0888L80.923 37.1231C80.2378 35.7914 80.6335 34.1475 81.9165 33.375C85.366 31.298 89.3547 29.6396 93.8825 28.4C99.402 26.8889 105.011 26.1333 110.708 26.1333C121.658 26.1333 130.16 28.7111 136.214 33.8667C142.267 39.0222 145.294 47.0667 145.294 58V95.9333C145.294 97.5902 143.951 98.9333 142.294 98.9333H128.798ZM103.898 100C98.2892 100 93.4819 99.0667 89.4758 97.2C85.4697 95.2444 82.3984 92.6222 80.2618 89.3333C78.1252 86.0444 77.0569 82.3556 77.0569 78.2667C77.0569 74 78.0807 70.2667 80.1282 67.0667C82.2648 63.8667 85.6032 61.3778 90.1435 59.6C94.6837 57.7333 100.604 56.8 107.904 56.8H124C125.656 56.8 127 58.1431 127 59.8V65.9333C127 67.5902 125.656 68.9333 124 68.9333H110.174C105.278 68.9333 101.895 69.7333 100.025 71.3333C98.2447 72.9333 97.3545 74.9333 97.3545 77.3333C97.3545 80 98.3782 82.1333 100.426 83.7333C102.562 85.2444 105.456 86 109.106 86C112.578 86 115.693 85.2 118.453 83.6C121.213 81.9111 123.216 79.4667 124.462 76.2667L127.667 85.8667C126.154 90.4889 123.394 94 119.388 96.4C115.382 98.8 110.218 100 103.898 100Z" fill="black"/>
<path d="M167.148 98.9333C165.491 98.9333 164.148 97.5902 164.148 95.9333V3C164.148 1.34315 165.491 0 167.148 0H181.98C183.636 0 184.98 1.34315 184.98 3V95.9333C184.98 97.5902 183.636 98.9333 181.98 98.9333H167.148Z" fill="black"/>
<path d="M251.38 98.9333C249.723 98.9333 248.38 97.5902 248.38 95.9333V84.9333L247.045 81.8667V56.8C247.045 52.3556 245.665 48.8889 242.905 46.4C240.234 43.9111 236.095 42.6667 230.486 42.6667C226.658 42.6667 222.875 43.2889 219.136 44.5333C216.808 45.2702 214.698 46.1878 212.805 47.2862C211.17 48.2345 208.983 47.7691 208.119 46.0888L203.505 37.1231C202.82 35.7914 203.216 34.1475 204.499 33.375C207.948 31.298 211.937 29.6396 216.465 28.4C221.984 26.8889 227.593 26.1333 233.291 26.1333C244.241 26.1333 252.742 28.7111 258.796 33.8667C264.85 39.0222 267.877 47.0667 267.877 58V95.9333C267.877 97.5902 266.533 98.9333 264.877 98.9333H251.38ZM226.48 100C220.872 100 216.064 99.0667 212.058 97.2C208.052 95.2444 204.981 92.6222 202.844 89.3333C200.708 86.0444 199.639 82.3556 199.639 78.2667C199.639 74 200.663 70.2667 202.711 67.0667C204.847 63.8667 208.186 61.3778 212.726 59.6C217.266 57.7333 223.186 56.8 230.486 56.8H246.582C248.239 56.8 249.582 58.1431 249.582 59.8V65.9333C249.582 67.5902 248.239 68.9333 246.582 68.9333H232.756C227.86 68.9333 224.477 69.7333 222.608 71.3333C220.827 72.9333 219.937 74.9333 219.937 77.3333C219.937 80 220.961 82.1333 223.008 83.7333C225.145 85.2444 228.038 86 231.688 86C235.16 86 238.276 85.2 241.036 83.6C243.795 81.9111 245.799 79.4667 247.045 76.2667L250.25 85.8667C248.736 90.4889 245.977 94 241.97 96.4C237.964 98.8 232.801 100 226.48 100Z" fill="black"/>
<path d="M309.213 79.1066C307.293 80.991 304.055 79.5918 304.112 76.9026L304.464 60.1867C304.481 59.3847 304.819 58.6229 305.401 58.0714L337.141 28.0215C337.698 27.494 338.436 27.2 339.203 27.2H355.679C358.341 27.2 359.685 30.4091 357.816 32.3054L330.664 59.8667L319.847 68.6667L309.213 79.1066ZM289.73 98.9333C288.073 98.9333 286.73 97.5902 286.73 95.9333V3C286.73 1.34315 288.073 0 289.73 0H304.562C306.219 0 307.562 1.34315 307.562 3V95.9333C307.562 97.5902 306.219 98.9333 304.562 98.9333H289.73ZM341.713 98.9333C340.806 98.9333 339.947 98.5228 339.378 97.8167L317.498 70.6887C316.61 69.5872 316.612 68.0146 317.503 66.9155L326.697 55.5809C327.909 54.0872 330.193 54.1034 331.384 55.6141L361.69 94.0766C363.241 96.0444 361.839 98.9333 359.334 98.9333H341.713Z" fill="black"/>
<path d="M428.496 60.9333C426.839 60.9333 425.496 59.5902 425.496 57.9333V8.6C425.496 6.94314 426.839 5.6 428.496 5.6H436.171C437.176 5.6 438.115 6.10397 438.671 6.9422L461.372 41.18C462.134 42.3302 461.31 43.8667 459.929 43.8667C458.557 43.8667 457.731 42.3453 458.478 41.1941L480.694 6.96668C481.247 6.11436 482.194 5.6 483.21 5.6H490.747C492.399 5.6 493.739 6.93434 493.747 8.58552L493.985 57.9188C493.993 59.5813 492.648 60.9333 490.985 60.9333H482.967C481.315 60.9333 479.974 59.5971 479.967 57.9447L479.848 26.5798C479.847 26.1128 480.225 25.7333 480.692 25.7333C481.361 25.7333 481.764 26.4765 481.398 27.0374L463.907 53.8395C463.353 54.6883 462.408 55.2 461.395 55.2H457.937C456.94 55.2 456.008 54.7049 455.451 53.8788L437.568 27.3955C437.09 26.6877 437.597 25.7333 438.451 25.7333C439.04 25.7333 439.517 26.2105 439.517 26.7991V57.9333C439.517 59.5902 438.174 60.9333 436.517 60.9333H428.496ZM387.633 60.9333C385.977 60.9333 384.633 59.5902 384.633 57.9333V20.0667C384.633 18.4098 383.29 17.0667 381.633 17.0667H368.805C367.148 17.0667 365.805 15.7235 365.805 14.0667V8.6C365.805 6.94314 367.148 5.6 368.805 5.6H415.552C417.209 5.6 418.552 6.94314 418.552 8.6V14.0667C418.552 15.7235 417.209 17.0667 415.552 17.0667H402.59C400.933 17.0667 399.59 18.4098 399.59 20.0667V57.9333C399.59 59.5902 398.246 60.9333 396.59 60.9333H387.633Z" fill="black"/>
</svg>
