<svg width="427" height="100" viewBox="0 0 427 100" fill="none" xmlns="http://www.w3.org/2000/svg">
<path d="M3.47569 98.6111C2.45615 98.6111 1.62199 98.287 0.973192 97.6389C0.324397 96.9907 0 96.1574 0 95.1389V4.86111C0 3.84259 0.324397 3.00926 0.973192 2.36111C1.62199 1.71296 2.45615 1.38889 3.47569 1.38889H65.4819C66.5015 1.38889 67.3356 1.71296 67.9844 2.36111C68.6332 3.00926 68.9576 3.84259 68.9576 4.86111V16.6667C68.9576 17.6852 68.6332 18.5185 67.9844 19.1667C67.3356 19.8148 66.5015 20.1389 65.4819 20.1389H21.6883V43.6111H62.7014C63.7209 43.6111 64.5551 43.9352 65.2039 44.5833C65.8527 45.2315 66.1771 46.0648 66.1771 47.0833V58.8889C66.1771 59.8148 65.8527 60.6018 65.2039 61.25C64.5551 61.8981 63.7209 62.2222 62.7014 62.2222H21.6883V95.1389C21.6883 96.1574 21.3639 96.9907 20.7151 97.6389C20.0663 98.287 19.2321 98.6111 18.2126 98.6111H3.47569Z" fill="currentColor"/>
<path d="M101.203 100C96.291 100 91.8884 99.0741 87.9957 97.2222C84.1029 95.2778 80.998 92.6852 78.6808 89.4444C76.3637 86.2037 75.2052 82.5926 75.2052 78.6111C75.2052 72.037 77.8467 66.8518 83.1297 63.0555C88.5054 59.2593 95.5495 56.6667 104.262 55.2778L122.474 52.6389V50.1389C122.474 46.5278 121.64 43.75 119.972 41.8056C118.304 39.8611 115.384 38.8889 111.213 38.8889C108.155 38.8889 105.699 39.4907 103.845 40.6944C101.991 41.8981 100.554 43.4722 99.535 45.4167C98.7935 46.6204 97.7276 47.2222 96.3373 47.2222H83.1297C82.1102 47.2222 81.3224 46.9444 80.7663 46.3889C80.2101 45.7407 79.9784 45 80.0711 44.1667C80.0711 42.5926 80.6736 40.7407 81.8785 38.6111C83.0834 36.4815 84.9371 34.3981 87.4396 32.3611C89.9421 30.2315 93.1397 28.4722 97.0325 27.0833C100.925 25.6944 105.699 25 111.352 25C117.191 25 122.196 25.6944 126.367 27.0833C130.538 28.4722 133.875 30.4167 136.377 32.9167C138.88 35.4167 140.733 38.3333 141.938 41.6667C143.143 44.9074 143.746 48.4259 143.746 52.2222V95.1389C143.746 96.1574 143.421 96.9907 142.773 97.6389C142.124 98.287 141.29 98.6111 140.27 98.6111H126.645C125.718 98.6111 124.931 98.287 124.282 97.6389C123.633 96.9907 123.309 96.1574 123.309 95.1389V90C122.104 91.7593 120.482 93.4259 118.443 95C116.404 96.4815 113.947 97.6852 111.074 98.6111C108.294 99.537 105.003 100 101.203 100ZM106.764 85.5555C109.823 85.5555 112.557 84.9074 114.967 83.6111C117.377 82.3148 119.277 80.3241 120.667 77.6389C122.057 74.9537 122.753 71.5741 122.753 67.5V65.1389L109.823 67.2222C104.818 68.0555 101.157 69.3056 98.8398 70.9722C96.5227 72.6389 95.3641 74.6759 95.3641 77.0833C95.3641 78.8426 95.8739 80.3704 96.8934 81.6667C98.0057 82.963 99.4423 83.9352 101.203 84.5833C102.964 85.2315 104.818 85.5555 106.764 85.5555Z" fill="currentColor"/>
<path d="M164.055 98.6111C163.035 98.6111 162.201 98.287 161.552 97.6389C160.903 96.9907 160.579 96.1574 160.579 95.1389V3.47222C160.579 2.4537 160.903 1.62037 161.552 0.972226C162.201 0.324075 163.035 0 164.055 0H177.957C178.884 0 179.672 0.324075 180.321 0.972226C180.97 1.62037 181.294 2.4537 181.294 3.47222V95.1389C181.294 96.1574 180.97 96.9907 180.321 97.6389C179.672 98.287 178.884 98.6111 177.957 98.6111H164.055Z" fill="currentColor"/>
<path d="M220.137 100C215.225 100 210.822 99.0741 206.929 97.2222C203.037 95.2778 199.932 92.6852 197.614 89.4444C195.297 86.2037 194.139 82.5926 194.139 78.6111C194.139 72.037 196.78 66.8518 202.063 63.0555C207.439 59.2593 214.483 56.6667 223.196 55.2778L241.408 52.6389V50.1389C241.408 46.5278 240.574 43.75 238.906 41.8056C237.237 39.8611 234.318 38.8889 230.147 38.8889C227.088 38.8889 224.632 39.4907 222.778 40.6944C220.925 41.8981 219.488 43.4722 218.469 45.4167C217.727 46.6204 216.661 47.2222 215.271 47.2222H202.063C201.044 47.2222 200.256 46.9444 199.7 46.3889C199.144 45.7407 198.912 45 199.005 44.1667C199.005 42.5926 199.607 40.7407 200.812 38.6111C202.017 36.4815 203.871 34.3981 206.373 32.3611C208.876 30.2315 212.073 28.4722 215.966 27.0833C219.859 25.6944 224.632 25 230.286 25C236.125 25 241.13 25.6944 245.301 27.0833C249.472 28.4722 252.808 30.4167 255.311 32.9167C257.813 35.4167 259.667 38.3333 260.872 41.6667C262.077 44.9074 262.679 48.4259 262.679 52.2222V95.1389C262.679 96.1574 262.355 96.9907 261.706 97.6389C261.057 98.287 260.223 98.6111 259.204 98.6111H245.579C244.652 98.6111 243.864 98.287 243.215 97.6389C242.567 96.9907 242.242 96.1574 242.242 95.1389V90C241.037 91.7593 239.415 93.4259 237.376 95C235.337 96.4815 232.881 97.6852 230.008 98.6111C227.227 99.537 223.937 100 220.137 100ZM225.698 85.5555C228.757 85.5555 231.491 84.9074 233.901 83.6111C236.31 82.3148 238.21 80.3241 239.601 77.6389C240.991 74.9537 241.686 71.5741 241.686 67.5V65.1389L228.757 67.2222C223.752 68.0555 220.091 69.3056 217.773 70.9722C215.456 72.6389 214.298 74.6759 214.298 77.0833C214.298 78.8426 214.808 80.3704 215.827 81.6667C216.939 82.963 218.376 83.9352 220.137 84.5833C221.898 85.2315 223.752 85.5555 225.698 85.5555Z" fill="currentColor"/>
<path d="M282.988 98.6111C281.969 98.6111 281.134 98.287 280.486 97.6389C279.837 96.9907 279.512 96.1574 279.512 95.1389V3.47222C279.512 2.4537 279.837 1.62037 280.486 0.972226C281.134 0.324075 281.969 0 282.988 0H296.613C297.54 0 298.328 0.324075 298.976 0.972226C299.625 1.62037 299.95 2.4537 299.95 3.47222V50.4167L321.36 28.75C322.101 28.1018 322.75 27.5463 323.306 27.0833C323.955 26.6204 324.928 26.3889 326.226 26.3889H341.936C342.863 26.3889 343.604 26.713 344.16 27.3611C344.716 27.9167 344.994 28.6111 344.994 29.4444C344.994 29.8148 344.902 30.2315 344.716 30.6944C344.531 31.1574 344.207 31.5278 343.743 31.8056L316.911 58.75L347.219 93.3333C348.053 94.0741 348.47 94.8148 348.47 95.5555C348.47 96.3889 348.146 97.1296 347.497 97.7778C346.941 98.3333 346.246 98.6111 345.412 98.6111H329.284C327.894 98.6111 326.875 98.3796 326.226 97.9167C325.67 97.4537 325.021 96.8981 324.279 96.25L299.95 69.0278V95.1389C299.95 96.1574 299.625 96.9907 298.976 97.6389C298.328 98.287 297.54 98.6111 296.613 98.6111H282.988Z" fill="currentColor"/>
<path d="M391.409 38.3333C389.37 38.3333 388.35 37.3148 388.35 35.2778V4.44444C388.35 2.40741 389.37 1.38889 391.409 1.38889H395.997C397.109 1.38889 397.943 1.75926 398.499 2.5C399.148 3.14815 399.704 3.79629 400.168 4.44444L407.675 16.5278L415.183 4.44444C415.646 3.79629 416.202 3.14815 416.851 2.5C417.5 1.75926 418.334 1.38889 419.353 1.38889H423.941C425.98 1.38889 427 2.40741 427 4.44444V35.2778C427 37.3148 425.98 38.3333 423.941 38.3333H419.214C417.175 38.3333 416.156 37.3148 416.156 35.2778V20.9722L412.541 26.6667C412.078 27.4074 411.614 28.0556 411.151 28.6111C410.687 29.1667 409.946 29.4444 408.926 29.4444H406.424C405.497 29.4444 404.756 29.1667 404.199 28.6111C403.736 28.0556 403.273 27.4074 402.809 26.6667L399.195 20.9722V35.2778C399.195 37.3148 398.175 38.3333 396.136 38.3333H391.409ZM366.106 38.3333C364.067 38.3333 363.047 37.3148 363.047 35.2778V12.0833H355.818C353.779 12.0833 352.759 11.0648 352.759 9.02778V4.44444C352.759 2.40741 353.779 1.38889 355.818 1.38889H381.121C383.16 1.38889 384.18 2.40741 384.18 4.44444V9.02778C384.18 11.0648 383.16 12.0833 381.121 12.0833H373.891V35.2778C373.891 37.3148 372.872 38.3333 370.833 38.3333H366.106Z" fill="currentColor"/>
</svg>
