<svg width="621" height="100" viewBox="0 0 621 100" fill="none" xmlns="http://www.w3.org/2000/svg">
<path d="M19.9954 50.6C19.9954 48.9431 21.3385 47.6 22.9954 47.6H61.785C63.4419 47.6 64.785 48.9431 64.785 50.6V61.9333C64.785 63.5902 63.4419 64.9333 61.785 64.9333H22.9954C21.3385 64.9333 19.9954 63.5902 19.9954 61.9333V50.6ZM21.595 95.9333C21.595 97.5902 20.2519 98.9333 18.595 98.9333H3C1.34315 98.9333 0 97.5902 0 95.9333V8.6C0 6.94315 1.34315 5.6 3 5.6H67.517C69.1739 5.6 70.517 6.94315 70.517 8.6V19.9333C70.517 21.5902 69.1739 22.9333 67.517 22.9333H24.595C22.9381 22.9333 21.595 24.2765 21.595 25.9333V95.9333Z" fill="black"/>
<path d="M128.577 98.9333C126.92 98.9333 125.577 97.5902 125.577 95.9333V84.9333L124.244 81.8667V56.8C124.244 52.3556 122.867 48.8889 120.112 46.4C117.446 43.9111 113.313 42.6667 107.715 42.6667C103.893 42.6667 100.116 43.2889 96.3839 44.5333C94.0641 45.2691 91.9604 46.185 90.0728 47.281C88.437 48.2309 86.2472 47.765 85.3829 46.0824L80.7796 37.1203C80.0962 35.7898 80.4913 34.1481 81.7721 33.3755C85.2157 31.2982 89.1977 29.6397 93.7179 28.4C99.2277 26.8889 104.826 26.1333 110.514 26.1333C121.445 26.1333 129.932 28.7111 135.975 33.8667C142.018 39.0222 145.039 47.0667 145.039 58V95.9333C145.039 97.5902 143.696 98.9333 142.039 98.9333H128.577ZM103.716 100C98.1169 100 93.318 99.0667 89.3189 97.2C85.3198 95.2444 82.2539 92.6222 80.121 89.3333C77.9882 86.0444 76.9218 82.3556 76.9218 78.2667C76.9218 74 77.9438 70.2667 79.9877 67.0667C82.1206 63.8667 85.4531 61.3778 89.9854 59.6C94.5177 57.7333 100.427 56.8 107.715 56.8H123.777C125.434 56.8 126.777 58.1431 126.777 59.8V65.9333C126.777 67.5902 125.434 68.9333 123.777 68.9333H109.981C105.093 68.9333 101.716 69.7333 99.8498 71.3333C98.0724 72.9333 97.1837 74.9333 97.1837 77.3333C97.1837 80 98.2057 82.1333 100.25 83.7333C102.383 85.2444 105.271 86 108.914 86C112.38 86 115.491 85.2 118.246 83.6C121 81.9111 123 79.4667 124.244 76.2667L127.443 85.8667C125.933 90.4889 123.178 94 119.179 96.4C115.18 98.8 110.025 100 103.716 100Z" fill="black"/>
<path d="M166.86 98.9333C165.203 98.9333 163.86 97.5902 163.86 95.9333V3C163.86 1.34315 165.203 0 166.86 0H181.655C183.312 0 184.655 1.34315 184.655 3V95.9333C184.655 97.5902 183.312 98.9333 181.655 98.9333H166.86Z" fill="black"/>
<path d="M250.945 98.9333C249.288 98.9333 247.945 97.5902 247.945 95.9333V84.9333L246.612 81.8667V56.8C246.612 52.3556 245.234 48.8889 242.479 46.4C239.813 43.9111 235.681 42.6667 230.082 42.6667C226.261 42.6667 222.484 43.2889 218.751 44.5333C216.432 45.2691 214.328 46.185 212.44 47.2811C210.805 48.2309 208.615 47.765 207.75 46.0824L203.147 37.1203C202.464 35.7898 202.859 34.1481 204.14 33.3755C207.583 31.2982 211.565 29.6397 216.085 28.4C221.595 26.8889 227.194 26.1333 232.882 26.1333C243.812 26.1333 252.299 28.7111 258.342 33.8667C264.385 39.0222 267.407 47.0667 267.407 58V95.9333C267.407 97.5902 266.064 98.9333 264.407 98.9333H250.945ZM226.083 100C220.484 100 215.685 99.0667 211.686 97.2C207.687 95.2444 204.621 92.6222 202.489 89.3333C200.356 86.0444 199.289 82.3556 199.289 78.2667C199.289 74 200.311 70.2667 202.355 67.0667C204.488 63.8667 207.821 61.3778 212.353 59.6C216.885 57.7333 222.795 56.8 230.082 56.8H246.144C247.801 56.8 249.144 58.1431 249.144 59.8V65.9333C249.144 67.5902 247.801 68.9333 246.144 68.9333H232.348C227.461 68.9333 224.084 69.7333 222.217 71.3333C220.44 72.9333 219.551 74.9333 219.551 77.3333C219.551 80 220.573 82.1333 222.617 83.7333C224.75 85.2444 227.638 86 231.282 86C234.748 86 237.858 85.2 240.613 83.6C243.368 81.9111 245.367 79.4667 246.612 76.2667L249.811 85.8667C248.3 90.4889 245.545 94 241.546 96.4C237.547 98.8 232.393 100 226.083 100Z" fill="black"/>
<path d="M303.424 84.2667L303.93 60.1852C303.947 59.3841 304.284 58.6231 304.865 58.0716L336.548 28.0233C337.105 27.4947 337.844 27.2 338.612 27.2H355.052C357.713 27.2 359.056 30.4065 357.191 32.3035L330.084 59.8667L319.286 68.6667L303.424 84.2667ZM289.227 98.9333C287.571 98.9333 286.227 97.5902 286.227 95.9333V3C286.227 1.34315 287.571 0 289.227 0H304.023C305.68 0 307.023 1.34315 307.023 3V95.9333C307.023 97.5902 305.68 98.9333 304.023 98.9333H289.227ZM341.118 98.9333C340.21 98.9333 339.351 98.522 338.781 97.8147L316.94 70.6867C316.054 69.5859 316.056 68.0158 316.945 66.9175L326.119 55.5881C327.33 54.0917 329.618 54.1079 330.808 55.6212L361.057 94.0786C362.605 96.0468 361.203 98.9333 358.699 98.9333H341.118Z" fill="black"/>
<path d="M383.395 100C379.84 100 376.774 98.8 374.197 96.4C371.708 93.9111 370.464 90.7555 370.464 86.9333C370.464 83.1111 371.708 80.0444 374.197 77.7333C376.774 75.3333 379.84 74.1333 383.395 74.1333C387.038 74.1333 390.104 75.3333 392.592 77.7333C395.081 80.0444 396.325 83.1111 396.325 86.9333C396.325 90.7555 395.081 93.9111 392.592 96.4C390.104 98.8 387.038 100 383.395 100Z" fill="black"/>
<path d="M502.263 26.1333C507.95 26.1333 512.972 27.2889 517.326 29.6C521.77 31.8222 525.235 35.2889 527.724 40C530.301 44.6222 531.589 50.5778 531.589 57.8667V95.9333C531.589 97.5902 530.246 98.9333 528.589 98.9333H513.794C512.137 98.9333 510.794 97.5902 510.794 95.9333V61.0667C510.794 55.2889 509.595 51.0222 507.195 48.2667C504.796 45.5111 501.419 44.1333 497.064 44.1333C494.043 44.1333 491.332 44.8444 488.933 46.2667C486.533 47.6 484.667 49.6444 483.334 52.4C482.001 55.1556 481.334 58.6667 481.334 62.9333V95.9333C481.334 97.5902 479.991 98.9333 478.334 98.9333H463.539C461.882 98.9333 460.539 97.5902 460.539 95.9333V61.0667C460.539 55.2889 459.339 51.0222 456.94 48.2667C454.629 45.5111 451.297 44.1333 446.942 44.1333C443.921 44.1333 441.21 44.8444 438.811 46.2667C436.411 47.6 434.545 49.6444 433.212 52.4C431.879 55.1556 431.213 58.6667 431.213 62.9333V95.9333C431.213 97.5902 429.87 98.9333 428.213 98.9333H413.417C411.761 98.9333 410.417 97.5902 410.417 95.9333V30.2C410.417 28.5431 411.761 27.2 413.417 27.2H427.28C428.936 27.2 430.28 28.5431 430.28 30.2V40.9603C430.28 42.6851 428.035 43.3515 427.094 41.906C426.755 41.3867 426.717 40.7243 427.016 40.1816C429.469 35.7303 432.823 32.3364 437.078 30C441.699 27.4222 446.942 26.1333 452.808 26.1333C459.384 26.1333 465.116 27.8222 470.004 31.2C473.872 33.7562 476.72 37.3864 478.548 42.0904C479.285 43.9886 477.481 45.7488 475.516 45.2129C473.942 44.7834 473.102 43.0537 473.893 41.6263C476.286 37.3125 479.655 33.7927 484 31.0667C489.333 27.7778 495.42 26.1333 502.263 26.1333Z" fill="black"/>
<path d="M586.341 100C578.165 100 570.967 98.4 564.746 95.2C558.614 92 553.86 87.6444 550.483 82.1333C547.106 76.5333 545.417 70.1778 545.417 63.0667C545.417 55.8667 547.062 49.5111 550.35 44C553.727 38.4 558.303 34.0444 564.08 30.9333C569.856 27.7333 576.388 26.1333 583.675 26.1333C590.696 26.1333 597.006 27.6444 602.604 30.6667C608.292 33.6 612.78 37.8667 616.068 43.4667C619.356 48.9778 621 55.6 621 63.3333C621 64.1333 620.956 65.0667 620.867 66.1333C620.864 66.1658 620.861 66.1982 620.858 66.2306C620.718 67.7655 619.426 68.9333 617.885 68.9333H565.347C563.69 68.9333 562.347 67.5902 562.347 65.9333V59.8C562.347 58.1431 563.69 56.8 565.347 56.8H603.085C604.608 56.8 605.054 58.8775 603.665 59.5026C602.729 59.9236 601.668 59.2379 601.58 58.2158C601.338 55.3867 600.613 52.8704 599.405 50.6667C597.894 47.9111 595.806 45.7778 593.14 44.2667C590.474 42.6667 587.363 41.8667 583.809 41.8667C580.254 41.8667 577.099 42.6667 574.344 44.2667C571.678 45.7778 569.59 47.9556 568.079 50.8C566.568 53.5556 565.813 56.8444 565.813 60.6667V63.8667C565.813 67.7778 566.657 71.2444 568.346 74.2667C570.123 77.2 572.567 79.4667 575.677 81.0667C578.876 82.5778 582.609 83.3333 586.875 83.3333C590.696 83.3333 594.028 82.7555 596.872 81.6C598.889 80.8052 600.78 79.7371 602.545 78.3958C603.884 77.3776 605.808 77.4173 606.949 78.6542L614.102 86.4124C615.143 87.542 615.174 89.2883 614.062 90.3485C611.119 93.1537 607.611 95.3931 603.537 97.0667C598.561 99.0222 592.829 100 586.341 100Z" fill="black"/>
</svg>
