<svg width="436" height="100" viewBox="0 0 436 100" fill="none" xmlns="http://www.w3.org/2000/svg">
<path d="M9.9 84C9.16667 84 8.56667 83.7667 8.1 83.3C7.63333 82.8333 7.4 82.2333 7.4 81.5V16.5C7.4 15.7667 7.63333 15.1667 8.1 14.7C8.56667 14.2333 9.16667 14 9.9 14H54.5C55.2333 14 55.8333 14.2333 56.3 14.7C56.7667 15.1667 57 15.7667 57 16.5V25C57 25.7333 56.7667 26.3333 56.3 26.8C55.8333 27.2667 55.2333 27.5 54.5 27.5H23V44.4H52.5C53.2333 44.4 53.8333 44.6333 54.3 45.1C54.7667 45.5667 55 46.1667 55 46.9V55.4C55 56.0667 54.7667 56.6333 54.3 57.1C53.8333 57.5667 53.2333 57.8 52.5 57.8H23V81.5C23 82.2333 22.7667 82.8333 22.3 83.3C21.8333 83.7667 21.2333 84 20.5 84H9.9ZM80.1938 85C76.6604 85 73.4938 84.3333 70.6938 83C67.8938 81.6 65.6604 79.7333 63.9938 77.4C62.3271 75.0667 61.4938 72.4667 61.4938 69.6C61.4938 64.8667 63.3938 61.1333 67.1938 58.4C71.0604 55.6667 76.1271 53.8 82.3938 52.8L95.4938 50.9V49.1C95.4938 46.5 94.8938 44.5 93.6938 43.1C92.4938 41.7 90.3938 41 87.3938 41C85.1938 41 83.4271 41.4333 82.0938 42.3C80.7604 43.1667 79.7271 44.3 78.9938 45.7C78.4604 46.5667 77.6938 47 76.6938 47H67.1938C66.4604 47 65.8938 46.8 65.4938 46.4C65.0938 45.9333 64.9271 45.4 64.9938 44.8C64.9938 43.6667 65.4271 42.3333 66.2938 40.8C67.1604 39.2667 68.4938 37.7667 70.2938 36.3C72.0938 34.7667 74.3938 33.5 77.1938 32.5C79.9938 31.5 83.4271 31 87.4938 31C91.6938 31 95.2938 31.5 98.2938 32.5C101.294 33.5 103.694 34.9 105.494 36.7C107.294 38.5 108.627 40.6 109.494 43C110.36 45.3333 110.794 47.8667 110.794 50.6V81.5C110.794 82.2333 110.56 82.8333 110.094 83.3C109.627 83.7667 109.027 84 108.294 84H98.4938C97.8271 84 97.2604 83.7667 96.7938 83.3C96.3271 82.8333 96.0938 82.2333 96.0938 81.5V77.8C95.2271 79.0667 94.0604 80.2667 92.5938 81.4C91.1271 82.4667 89.3604 83.3333 87.2938 84C85.2937 84.6667 82.9271 85 80.1938 85ZM84.1938 74.6C86.3938 74.6 88.3604 74.1333 90.0938 73.2C91.8271 72.2667 93.1938 70.8333 94.1938 68.9C95.1938 66.9667 95.6938 64.5333 95.6938 61.6V59.9L86.3938 61.4C82.7938 62 80.1604 62.9 78.4938 64.1C76.8271 65.3 75.9938 66.7667 75.9938 68.5C75.9938 69.7667 76.3604 70.8667 77.0938 71.8C77.8938 72.7333 78.9271 73.4333 80.1938 73.9C81.4604 74.3667 82.7938 74.6 84.1938 74.6ZM125.402 84C124.668 84 124.068 83.7667 123.602 83.3C123.135 82.8333 122.902 82.2333 122.902 81.5V15.5C122.902 14.7667 123.135 14.1667 123.602 13.7C124.068 13.2333 124.668 13 125.402 13H135.402C136.068 13 136.635 13.2333 137.102 13.7C137.568 14.1667 137.802 14.7667 137.802 15.5V81.5C137.802 82.2333 137.568 82.8333 137.102 83.3C136.635 83.7667 136.068 84 135.402 84H125.402ZM165.741 85C162.207 85 159.041 84.3333 156.241 83C153.441 81.6 151.207 79.7333 149.541 77.4C147.874 75.0667 147.041 72.4667 147.041 69.6C147.041 64.8667 148.941 61.1333 152.741 58.4C156.607 55.6667 161.674 53.8 167.941 52.8L181.041 50.9V49.1C181.041 46.5 180.441 44.5 179.241 43.1C178.041 41.7 175.941 41 172.941 41C170.741 41 168.974 41.4333 167.641 42.3C166.307 43.1667 165.274 44.3 164.541 45.7C164.007 46.5667 163.241 47 162.241 47H152.741C152.007 47 151.441 46.8 151.041 46.4C150.641 45.9333 150.474 45.4 150.541 44.8C150.541 43.6667 150.974 42.3333 151.841 40.8C152.707 39.2667 154.041 37.7667 155.841 36.3C157.641 34.7667 159.941 33.5 162.741 32.5C165.541 31.5 168.974 31 173.041 31C177.241 31 180.841 31.5 183.841 32.5C186.841 33.5 189.241 34.9 191.041 36.7C192.841 38.5 194.174 40.6 195.041 43C195.907 45.3333 196.341 47.8667 196.341 50.6V81.5C196.341 82.2333 196.107 82.8333 195.641 83.3C195.174 83.7667 194.574 84 193.841 84H184.041C183.374 84 182.807 83.7667 182.341 83.3C181.874 82.8333 181.641 82.2333 181.641 81.5V77.8C180.774 79.0667 179.607 80.2667 178.141 81.4C176.674 82.4667 174.907 83.3333 172.841 84C170.841 84.6667 168.474 85 165.741 85ZM169.741 74.6C171.941 74.6 173.907 74.1333 175.641 73.2C177.374 72.2667 178.741 70.8333 179.741 68.9C180.741 66.9667 181.241 64.5333 181.241 61.6V59.9L171.941 61.4C168.341 62 165.707 62.9 164.041 64.1C162.374 65.3 161.541 66.7667 161.541 68.5C161.541 69.7667 161.907 70.8667 162.641 71.8C163.441 72.7333 164.474 73.4333 165.741 73.9C167.007 74.3667 168.341 74.6 169.741 74.6ZM210.948 84C210.215 84 209.615 83.7667 209.148 83.3C208.682 82.8333 208.448 82.2333 208.448 81.5V15.5C208.448 14.7667 208.682 14.1667 209.148 13.7C209.615 13.2333 210.215 13 210.948 13H220.748C221.415 13 221.982 13.2333 222.448 13.7C222.915 14.1667 223.148 14.7667 223.148 15.5V49.3L238.548 33.7C239.082 33.2333 239.548 32.8333 239.948 32.5C240.415 32.1667 241.115 32 242.048 32H253.348C254.015 32 254.548 32.2333 254.948 32.7C255.348 33.1 255.548 33.6 255.548 34.2C255.548 34.4667 255.482 34.7667 255.348 35.1C255.215 35.4333 254.982 35.7 254.648 35.9L235.348 55.3L257.148 80.2C257.748 80.7333 258.048 81.2667 258.048 81.8C258.048 82.4 257.815 82.9333 257.348 83.4C256.948 83.8 256.448 84 255.848 84H244.248C243.248 84 242.515 83.8333 242.048 83.5C241.648 83.1667 241.182 82.7667 240.648 82.3L223.148 62.7V81.5C223.148 82.2333 222.915 82.8333 222.448 83.3C221.982 83.7667 221.415 84 220.748 84H210.948ZM267.087 84C266.353 84 265.753 83.7667 265.287 83.3C264.82 82.8333 264.587 82.2333 264.587 81.5V70.3C264.587 69.5667 264.82 68.9667 265.287 68.5C265.753 68.0333 266.353 67.8 267.087 67.8H278.287C279.02 67.8 279.62 68.0333 280.087 68.5C280.553 68.9667 280.787 69.5667 280.787 70.3V81.5C280.787 82.2333 280.553 82.8333 280.087 83.3C279.62 83.7667 279.02 84 278.287 84H267.087ZM295.223 84C294.557 84 293.99 83.7667 293.523 83.3C293.057 82.8333 292.823 82.2333 292.823 81.5V34.5C292.823 33.7667 293.057 33.1667 293.523 32.7C293.99 32.2333 294.557 32 295.223 32H304.523C305.19 32 305.757 32.2333 306.223 32.7C306.757 33.1667 307.023 33.7667 307.023 34.5V37.9C308.357 36.0333 310.19 34.4333 312.523 33.1C314.923 31.7667 317.757 31.0667 321.023 31C328.757 30.8667 334.057 33.8 336.923 39.8C338.457 37.2 340.657 35.1 343.523 33.5C346.457 31.8333 349.657 31 353.123 31C356.59 31 359.723 31.8 362.523 33.4C365.323 34.9333 367.523 37.3333 369.123 40.6C370.79 43.8 371.623 47.9333 371.623 53V81.5C371.623 82.2333 371.39 82.8333 370.923 83.3C370.457 83.7667 369.89 84 369.223 84H359.323C358.657 84 358.09 83.7667 357.623 83.3C357.157 82.8333 356.923 82.2333 356.923 81.5V53.8C356.923 51.0667 356.523 48.9333 355.723 47.4C354.923 45.8 353.857 44.6667 352.523 44C351.257 43.3333 349.823 43 348.223 43C346.823 43 345.457 43.3333 344.123 44C342.857 44.6667 341.79 45.8 340.923 47.4C340.123 48.9333 339.723 51.0667 339.723 53.8V81.5C339.723 82.2333 339.49 82.8333 339.023 83.3C338.557 83.7667 337.957 84 337.223 84H327.423C326.69 84 326.09 83.7667 325.623 83.3C325.157 82.8333 324.923 82.2333 324.923 81.5V53.8C324.923 51.0667 324.523 48.9333 323.723 47.4C322.923 45.8 321.857 44.6667 320.523 44C319.257 43.3333 317.857 43 316.323 43C314.923 43 313.557 43.3667 312.223 44.1C310.89 44.7667 309.79 45.8667 308.923 47.4C308.123 48.9333 307.723 51.0333 307.723 53.7V81.5C307.723 82.2333 307.49 82.8333 307.023 83.3C306.557 83.7667 305.99 84 305.323 84H295.223ZM406.941 85C399.275 85 393.175 82.8667 388.641 78.6C384.175 74.3333 381.808 68.1333 381.541 60C381.541 59.4667 381.541 58.7667 381.541 57.9C381.541 56.9667 381.541 56.2333 381.541 55.7C381.808 50.5667 382.975 46.1667 385.041 42.5C387.108 38.7667 390.008 35.9333 393.741 34C397.475 32 401.841 31 406.841 31C412.441 31 417.108 32.1667 420.841 34.5C424.641 36.7667 427.475 39.9 429.341 43.9C431.275 47.8333 432.241 52.3667 432.241 57.5V59.8C432.241 60.4667 431.975 61.0333 431.441 61.5C430.975 61.9667 430.408 62.2 429.741 62.2H397.041C397.041 62.2667 397.041 62.4 397.041 62.6C397.041 62.7333 397.041 62.8667 397.041 63C397.108 65.1333 397.508 67.1 398.241 68.9C399.041 70.6333 400.141 72.0333 401.541 73.1C403.008 74.1667 404.741 74.7 406.741 74.7C408.408 74.7 409.775 74.4667 410.841 74C411.908 73.5333 412.775 72.9667 413.441 72.3C414.175 71.6333 414.708 71.0667 415.041 70.6C415.641 69.9333 416.108 69.5333 416.441 69.4C416.841 69.2 417.441 69.1 418.241 69.1H428.641C429.308 69.1 429.841 69.3 430.241 69.7C430.708 70.0333 430.908 70.5333 430.841 71.2C430.775 72.2667 430.208 73.6 429.141 75.2C428.141 76.7333 426.641 78.2667 424.641 79.8C422.641 81.2667 420.141 82.5 417.141 83.5C414.208 84.5 410.808 85 406.941 85ZM397.041 53.1H416.641V52.9C416.641 50.5 416.241 48.4333 415.441 46.7C414.708 44.9 413.608 43.5 412.141 42.5C410.675 41.5 408.908 41 406.841 41C404.775 41 403.008 41.5 401.541 42.5C400.075 43.5 398.941 44.9 398.141 46.7C397.408 48.4333 397.041 50.5 397.041 52.9V53.1Z" fill="black"/>
</svg>
