<svg width="590" height="100" viewBox="0 0 590 100" fill="none" xmlns="http://www.w3.org/2000/svg">
<path d="M3.47188 98.6111C2.45347 98.6111 1.62021 98.287 0.972127 97.6389C0.324042 96.9907 0 96.1574 0 95.1389V4.86111C0 3.84259 0.324042 3.00926 0.972127 2.36111C1.62021 1.71296 2.45347 1.38889 3.47188 1.38889H65.4103C66.4287 1.38889 67.262 1.71296 67.91 2.36111C68.5581 3.00926 68.8822 3.84259 68.8822 4.86111V16.6667C68.8822 17.6852 68.5581 18.5185 67.91 19.1667C67.262 19.8148 66.4287 20.1389 65.4103 20.1389H21.6646V43.6111H62.6328C63.6512 43.6111 64.4845 43.9352 65.1325 44.5833C65.7806 45.2315 66.1047 46.0648 66.1047 47.0833V58.8889C66.1047 59.8148 65.7806 60.6018 65.1325 61.25C64.4845 61.8981 63.6512 62.2222 62.6328 62.2222H21.6646V95.1389C21.6646 96.1574 21.3405 96.9907 20.6924 97.6389C20.0443 98.287 19.2111 98.6111 18.1927 98.6111H3.47188Z" fill="currentColor"/>
<path d="M101.093 100C96.1856 100 91.7879 99.0741 87.8994 97.2222C84.0109 95.2778 80.9094 92.6852 78.5948 89.4444C76.2802 86.2037 75.1229 82.5926 75.1229 78.6111C75.1229 72.037 77.7615 66.8518 83.0388 63.0555C88.4086 59.2593 95.445 56.6667 104.148 55.2778L122.341 52.6389V50.1389C122.341 46.5278 121.507 43.75 119.841 41.8056C118.174 39.8611 115.258 38.8889 111.092 38.8889C108.036 38.8889 105.583 39.4907 103.731 40.6944C101.88 41.8981 100.444 43.4722 99.4261 45.4167C98.6854 46.6204 97.6207 47.2222 96.2319 47.2222H83.0388C82.0204 47.2222 81.2334 46.9444 80.6779 46.3889C80.1224 45.7407 79.8909 45 79.9835 44.1667C79.9835 42.5926 80.5853 40.7407 81.7889 38.6111C82.9925 36.4815 84.8442 34.3981 87.3439 32.3611C89.8437 30.2315 93.0378 28.4722 96.9263 27.0833C100.815 25.6944 105.583 25 111.23 25C117.063 25 122.063 25.6944 126.229 27.0833C130.395 28.4722 133.728 30.4167 136.228 32.9167C138.728 35.4167 140.579 38.3333 141.783 41.6667C142.987 44.9074 143.588 48.4259 143.588 52.2222V95.1389C143.588 96.1574 143.264 96.9907 142.616 97.6389C141.968 98.287 141.135 98.6111 140.117 98.6111H126.507C125.581 98.6111 124.794 98.287 124.146 97.6389C123.498 96.9907 123.174 96.1574 123.174 95.1389V90C121.97 91.7593 120.35 93.4259 118.313 95C116.276 96.4815 113.823 97.6852 110.953 98.6111C108.175 99.537 104.888 100 101.093 100ZM106.648 85.5555C109.703 85.5555 112.434 84.9074 114.841 83.6111C117.248 82.3148 119.146 80.3241 120.535 77.6389C121.924 74.9537 122.618 71.5741 122.618 67.5V65.1389L109.703 67.2222C104.703 68.0555 101.046 69.3056 98.7317 70.9722C96.4171 72.6389 95.2598 74.6759 95.2598 77.0833C95.2598 78.8426 95.769 80.3704 96.7874 81.6667C97.8984 82.963 99.3335 83.9352 101.093 84.5833C102.852 85.2315 104.703 85.5555 106.648 85.5555Z" fill="currentColor"/>
<path d="M163.875 98.6111C162.857 98.6111 162.023 98.287 161.375 97.6389C160.727 96.9907 160.403 96.1574 160.403 95.1389V3.47222C160.403 2.4537 160.727 1.62037 161.375 0.972226C162.023 0.324075 162.857 0 163.875 0H177.763C178.688 0 179.475 0.324075 180.124 0.972226C180.772 1.62037 181.096 2.4537 181.096 3.47222V95.1389C181.096 96.1574 180.772 96.9907 180.124 97.6389C179.475 98.287 178.688 98.6111 177.763 98.6111H163.875Z" fill="currentColor"/>
<path d="M219.896 100C214.989 100 210.591 99.0741 206.703 97.2222C202.814 95.2778 199.713 92.6852 197.398 89.4444C195.084 86.2037 193.926 82.5926 193.926 78.6111C193.926 72.037 196.565 66.8518 201.842 63.0555C207.212 59.2593 214.248 56.6667 222.951 55.2778L241.144 52.6389V50.1389C241.144 46.5278 240.311 43.75 238.644 41.8056C236.978 39.8611 234.061 38.8889 229.895 38.8889C226.84 38.8889 224.386 39.4907 222.535 40.6944C220.683 41.8981 219.248 43.4722 218.23 45.4167C217.489 46.6204 216.424 47.2222 215.035 47.2222H201.842C200.824 47.2222 200.037 46.9444 199.481 46.3889C198.926 45.7407 198.694 45 198.787 44.1667C198.787 42.5926 199.389 40.7407 200.592 38.6111C201.796 36.4815 203.648 34.3981 206.147 32.3611C208.647 30.2315 211.841 28.4722 215.73 27.0833C219.618 25.6944 224.386 25 230.034 25C235.867 25 240.866 25.6944 245.033 27.0833C249.199 28.4722 252.532 30.4167 255.032 32.9167C257.531 35.4167 259.383 38.3333 260.587 41.6667C261.79 44.9074 262.392 48.4259 262.392 52.2222V95.1389C262.392 96.1574 262.068 96.9907 261.42 97.6389C260.772 98.287 259.939 98.6111 258.92 98.6111H245.31C244.384 98.6111 243.598 98.287 242.949 97.6389C242.301 96.9907 241.977 96.1574 241.977 95.1389V90C240.774 91.7593 239.153 93.4259 237.117 95C235.08 96.4815 232.626 97.6852 229.756 98.6111C226.979 99.537 223.692 100 219.896 100ZM225.451 85.5555C228.506 85.5555 231.238 84.9074 233.645 83.6111C236.052 82.3148 237.95 80.3241 239.339 77.6389C240.727 74.9537 241.422 71.5741 241.422 67.5V65.1389L228.506 67.2222C223.507 68.0555 219.85 69.3056 217.535 70.9722C215.221 72.6389 214.063 74.6759 214.063 77.0833C214.063 78.8426 214.573 80.3704 215.591 81.6667C216.702 82.963 218.137 83.9352 219.896 84.5833C221.655 85.2315 223.507 85.5555 225.451 85.5555Z" fill="currentColor"/>
<path d="M282.679 98.6111C281.66 98.6111 280.827 98.287 280.179 97.6389C279.531 96.9907 279.207 96.1574 279.207 95.1389V3.47222C279.207 2.4537 279.531 1.62037 280.179 0.972226C280.827 0.324075 281.66 0 282.679 0H296.288C297.214 0 298.001 0.324075 298.649 0.972226C299.297 1.62037 299.621 2.4537 299.621 3.47222V50.4167L321.008 28.75C321.749 28.1018 322.397 27.5463 322.952 27.0833C323.601 26.6204 324.573 26.3889 325.869 26.3889H341.562C342.488 26.3889 343.228 26.713 343.784 27.3611C344.339 27.9167 344.617 28.6111 344.617 29.4444C344.617 29.8148 344.524 30.2315 344.339 30.6944C344.154 31.1574 343.83 31.5278 343.367 31.8056L316.564 58.75L346.839 93.3333C347.672 94.0741 348.089 94.8148 348.089 95.5555C348.089 96.3889 347.765 97.1296 347.117 97.7778C346.561 98.3333 345.867 98.6111 345.034 98.6111H328.924C327.535 98.6111 326.517 98.3796 325.869 97.9167C325.313 97.4537 324.665 96.8981 323.925 96.25L299.621 69.0278V95.1389C299.621 96.1574 299.297 96.9907 298.649 97.6389C298.001 98.287 297.214 98.6111 296.288 98.6111H282.679Z" fill="currentColor"/>
<path d="M360.641 98.6111C359.622 98.6111 358.789 98.287 358.141 97.6389C357.493 96.9907 357.169 96.1574 357.169 95.1389V79.5833C357.169 78.5648 357.493 77.7315 358.141 77.0833C358.789 76.4352 359.622 76.1111 360.641 76.1111H376.195C377.213 76.1111 378.047 76.4352 378.695 77.0833C379.343 77.7315 379.667 78.5648 379.667 79.5833V95.1389C379.667 96.1574 379.343 96.9907 378.695 97.6389C378.047 98.287 377.213 98.6111 376.195 98.6111H360.641Z" fill="currentColor"/>
<path d="M399.716 98.6111C398.79 98.6111 398.003 98.287 397.355 97.6389C396.707 96.9907 396.383 96.1574 396.383 95.1389V29.8611C396.383 28.8426 396.707 28.0093 397.355 27.3611C398.003 26.713 398.79 26.3889 399.716 26.3889H412.631C413.557 26.3889 414.344 26.713 414.992 27.3611C415.733 28.0093 416.103 28.8426 416.103 29.8611V34.5833C417.955 31.9907 420.501 29.7685 423.741 27.9167C427.074 26.0648 431.009 25.0926 435.546 25C446.285 24.8148 453.646 28.8889 457.627 37.2222C459.756 33.6111 462.812 30.6944 466.793 28.4722C470.866 26.1574 475.31 25 480.125 25C484.939 25 489.29 26.1111 493.179 28.3333C497.067 30.463 500.123 33.7963 502.345 38.3333C504.659 42.7778 505.817 48.5185 505.817 55.5556V95.1389C505.817 96.1574 505.493 96.9907 504.844 97.6389C504.196 98.287 503.409 98.6111 502.484 98.6111H488.735C487.809 98.6111 487.022 98.287 486.374 97.6389C485.726 96.9907 485.402 96.1574 485.402 95.1389V56.6667C485.402 52.8704 484.846 49.9074 483.735 47.7778C482.624 45.5556 481.143 43.9815 479.291 43.0556C477.532 42.1296 475.542 41.6667 473.32 41.6667C471.376 41.6667 469.478 42.1296 467.626 43.0556C465.867 43.9815 464.385 45.5556 463.182 47.7778C462.071 49.9074 461.515 52.8704 461.515 56.6667V95.1389C461.515 96.1574 461.191 96.9907 460.543 97.6389C459.895 98.287 459.062 98.6111 458.043 98.6111H444.434C443.415 98.6111 442.582 98.287 441.934 97.6389C441.286 96.9907 440.962 96.1574 440.962 95.1389V56.6667C440.962 52.8704 440.406 49.9074 439.295 47.7778C438.184 45.5556 436.703 43.9815 434.851 43.0556C433.092 42.1296 431.148 41.6667 429.019 41.6667C427.074 41.6667 425.176 42.1759 423.325 43.1944C421.473 44.1204 419.945 45.6481 418.742 47.7778C417.631 49.9074 417.075 52.8241 417.075 56.5278V95.1389C417.075 96.1574 416.751 96.9907 416.103 97.6389C415.455 98.287 414.668 98.6111 413.742 98.6111H399.716Z" fill="currentColor"/>
<path d="M554.865 100C544.217 100 535.746 97.037 529.45 91.1111C523.247 85.1852 519.961 76.5741 519.59 65.2778C519.59 64.537 519.59 63.5648 519.59 62.3611C519.59 61.0648 519.59 60.0463 519.59 59.3055C519.961 52.1759 521.581 46.0648 524.451 40.9722C527.321 35.787 531.348 31.8519 536.533 29.1667C541.718 26.3889 547.782 25 554.726 25C562.503 25 568.984 26.6204 574.168 29.8611C579.445 33.0093 583.38 37.3611 585.973 42.9167C588.658 48.3796 590 54.6759 590 61.8056V65C590 65.9259 589.63 66.713 588.889 67.3611C588.241 68.0093 587.454 68.3333 586.528 68.3333H541.116C541.116 68.4259 541.116 68.6111 541.116 68.8889C541.116 69.0741 541.116 69.2593 541.116 69.4444C541.208 72.4074 541.764 75.1389 542.782 77.6389C543.893 80.0463 545.421 81.9907 547.365 83.4722C549.402 84.9537 551.809 85.6944 554.587 85.6944C556.901 85.6944 558.799 85.3704 560.281 84.7222C561.762 84.0741 562.966 83.287 563.891 82.3611C564.91 81.4352 565.651 80.6481 566.113 80C566.947 79.0741 567.595 78.5185 568.058 78.3333C568.613 78.0555 569.446 77.9167 570.557 77.9167H585C585.926 77.9167 586.667 78.1944 587.222 78.75C587.871 79.213 588.148 79.9074 588.056 80.8333C587.963 82.3148 587.176 84.1667 585.695 86.3889C584.306 88.5185 582.223 90.6481 579.446 92.7778C576.668 94.8148 573.196 96.5278 569.03 97.9167C564.956 99.3055 560.234 100 554.865 100ZM541.116 55.6944H568.335V55.4167C568.335 52.0833 567.78 49.213 566.669 46.8056C565.651 44.3056 564.123 42.3611 562.086 40.9722C560.049 39.5833 557.596 38.8889 554.726 38.8889C551.856 38.8889 549.402 39.5833 547.365 40.9722C545.328 42.3611 543.754 44.3056 542.643 46.8056C541.625 49.213 541.116 52.0833 541.116 55.4167V55.6944Z" fill="currentColor"/>
</svg>
