<svg width="430" height="100" viewBox="0 0 430 100" fill="none" xmlns="http://www.w3.org/2000/svg">
<path fill-rule="evenodd" clip-rule="evenodd" d="M42.8171 22.6378H98.0129C98.6845 22.6378 99.0203 22.6378 99.2768 22.507C99.5024 22.392 99.6859 22.2084 99.8008 21.9826C99.9316 21.7259 99.9316 21.3899 99.9316 20.7178V1.92C99.9316 1.24794 99.9316 0.911905 99.8008 0.655211C99.6859 0.429417 99.5024 0.24584 99.2768 0.130792C99.0203 0 98.6845 0 98.0129 0H44.7358C44.0642 0 43.7284 0 43.4719 0.130792C43.2463 0.24584 43.0628 0.429417 42.9479 0.655211C42.8172 0.911905 42.8171 1.24794 42.8171 1.92V22.6378L24.685 4.46493C23.6575 3.43504 23.1437 2.9201 22.7025 2.88511C22.3197 2.85475 21.9455 3.00967 21.6961 3.30181C21.4086 3.6385 21.4086 4.36617 21.4086 5.82151V27.4606L3.27646 9.28776C2.24888 8.25787 1.73509 7.74293 1.29392 7.70794C0.911123 7.67759 0.536952 7.83251 0.287498 8.12464C0 8.46133 0 9.189 0 10.6443V31.4891C0 31.7822 0 31.9288 0.0330679 32.0668C0.0623859 32.1891 0.110743 32.3061 0.176369 32.4134C0.250388 32.5344 0.353896 32.6382 0.560912 32.8456L21.4086 53.7402V98.08C21.4086 98.7521 21.4086 99.0881 21.5393 99.3448C21.6542 99.5706 21.8377 99.7542 22.0633 99.8692C22.3199 100 22.6557 100 23.3273 100H42.2334C42.905 100 43.2408 100 43.4973 99.8692C43.723 99.7542 43.9064 99.5706 44.0214 99.3448C44.1521 99.0881 44.1521 98.7521 44.1521 98.08V78.298C44.1521 77.6259 44.1521 77.2899 44.2828 77.0332C44.3978 76.8074 44.5812 76.6238 44.8069 76.5088C45.0634 76.378 45.3992 76.378 46.0708 76.378H98.0129C98.6845 76.378 99.0203 76.378 99.2768 76.2472C99.5024 76.1321 99.6859 75.9485 99.8008 75.7227C99.9316 75.466 99.9316 75.13 99.9316 74.458V55.6602C99.9316 54.9881 99.9316 54.6521 99.8008 54.3954C99.6859 54.1696 99.5024 53.986 99.2768 53.871C99.0203 53.7402 98.6845 53.7402 98.0129 53.7402H21.4086L21.4086 27.4606L39.5407 45.6335C40.5683 46.6634 41.0821 47.1783 41.5232 47.2133C41.906 47.2437 42.2802 47.0888 42.5297 46.7966C42.8172 46.4599 42.8171 45.7323 42.8171 44.2769V22.6378Z" fill="currentColor"/>
<path d="M134.808 84C134.075 84 133.475 83.7667 133.009 83.3C132.543 82.8333 132.309 82.2333 132.309 81.5V16.5C132.309 15.7667 132.543 15.1667 133.009 14.7C133.475 14.2333 134.075 14 134.808 14H179.377C180.11 14 180.71 14.2333 181.176 14.7C181.642 15.1667 181.875 15.7667 181.875 16.5V25C181.875 25.7333 181.642 26.3333 181.176 26.8C180.71 27.2667 180.11 27.5 179.377 27.5H147.899V44.4H177.379C178.111 44.4 178.711 44.6333 179.177 45.1C179.644 45.5667 179.877 46.1667 179.877 46.9V55.4C179.877 56.0667 179.644 56.6333 179.177 57.1C178.711 57.5667 178.111 57.8 177.379 57.8H147.899V81.5C147.899 82.2333 147.666 82.8333 147.199 83.3C146.733 83.7667 146.133 84 145.4 84H134.808Z" fill="currentColor"/>
<path d="M214.914 85C209.384 85 204.754 84.1 201.023 82.3C197.292 80.4333 194.428 77.8 192.429 74.4C190.497 71 189.431 67.0333 189.231 62.5C189.165 61.1667 189.131 59.6667 189.131 58C189.131 56.2667 189.165 54.7667 189.231 53.5C189.431 48.9 190.564 44.9333 192.629 41.6C194.694 38.2 197.592 35.6 201.323 33.8C205.054 31.9333 209.584 31 214.914 31C220.177 31 224.674 31.9333 228.404 33.8C232.135 35.6 235.033 38.2 237.099 41.6C239.164 44.9333 240.296 48.9 240.496 53.5C240.629 54.7667 240.696 56.2667 240.696 58C240.696 59.6667 240.629 61.1667 240.496 62.5C240.296 67.0333 239.197 71 237.198 74.4C235.266 77.8 232.435 80.4333 228.704 82.3C224.973 84.1 220.377 85 214.914 85ZM214.914 74C218.178 74 220.643 73 222.309 71C223.974 68.9333 224.874 65.9333 225.007 62C225.073 61 225.107 59.6667 225.107 58C225.107 56.3333 225.073 55 225.007 54C224.874 50.1333 223.974 47.1667 222.309 45.1C220.643 43.0333 218.178 42 214.914 42C211.649 42 209.151 43.0333 207.419 45.1C205.753 47.1667 204.854 50.1333 204.721 54C204.654 55 204.621 56.3333 204.621 58C204.621 59.6667 204.654 61 204.721 62C204.854 65.9333 205.753 68.9333 207.419 71C209.151 73 211.649 74 214.914 74Z" fill="currentColor"/>
<path d="M253.546 84C252.88 84 252.313 83.7667 251.847 83.3C251.381 82.8333 251.148 82.2333 251.148 81.5V34.5C251.148 33.8333 251.381 33.2667 251.847 32.8C252.313 32.2667 252.88 32 253.546 32H263.339C264.005 32 264.572 32.2667 265.038 32.8C265.571 33.2667 265.837 33.8333 265.837 34.5V38.5C267.503 36.4333 269.535 34.8333 271.933 33.7C274.398 32.5667 277.23 32 280.427 32H284.724C285.391 32 285.957 32.2333 286.423 32.7C286.89 33.1667 287.123 33.7667 287.123 34.5V43.1C287.123 43.8333 286.89 44.4333 286.423 44.9C285.957 45.3667 285.391 45.6 284.724 45.6H275.931C272.999 45.6 270.701 46.4333 269.035 48.1C267.37 49.7 266.537 52 266.537 55V81.5C266.537 82.2333 266.304 82.8333 265.837 83.3C265.371 83.7667 264.772 84 264.039 84H253.546Z" fill="currentColor"/>
<path d="M296.973 84C296.307 84 295.741 83.7667 295.274 83.3C294.808 82.8333 294.575 82.2333 294.575 81.5V34.5C294.575 33.7667 294.808 33.1667 295.274 32.7C295.741 32.2333 296.307 32 296.973 32H306.267C306.933 32 307.499 32.2333 307.966 32.7C308.499 33.1667 308.765 33.7667 308.765 34.5V37.9C310.097 36.0333 311.93 34.4333 314.261 33.1C316.66 31.7667 319.491 31.0667 322.755 31C330.484 30.8667 335.78 33.8 338.645 39.8C340.177 37.2 342.375 35.1 345.24 33.5C348.171 31.8333 351.369 31 354.834 31C358.298 31 361.429 31.8 364.227 33.4C367.025 34.9333 369.224 37.3333 370.823 40.6C372.488 43.8 373.321 47.9333 373.321 53V81.5C373.321 82.2333 373.088 82.8333 372.621 83.3C372.155 83.7667 371.589 84 370.923 84H361.029C360.363 84 359.797 83.7667 359.33 83.3C358.864 82.8333 358.631 82.2333 358.631 81.5V53.8C358.631 51.0667 358.231 48.9333 357.432 47.4C356.632 45.8 355.566 44.6667 354.234 44C352.968 43.3333 351.536 43 349.937 43C348.538 43 347.172 43.3333 345.84 44C344.574 44.6667 343.508 45.8 342.642 47.4C341.842 48.9333 341.443 51.0667 341.443 53.8V81.5C341.443 82.2333 341.21 82.8333 340.743 83.3C340.277 83.7667 339.677 84 338.944 84H329.151C328.418 84 327.819 83.7667 327.352 83.3C326.886 82.8333 326.653 82.2333 326.653 81.5V53.8C326.653 51.0667 326.253 48.9333 325.454 47.4C324.654 45.8 323.588 44.6667 322.256 44C320.99 43.3333 319.591 43 318.059 43C316.66 43 315.294 43.3667 313.962 44.1C312.629 44.7667 311.53 45.8667 310.664 47.4C309.864 48.9333 309.465 51.0333 309.465 53.7V81.5C309.465 82.2333 309.231 82.8333 308.765 83.3C308.299 83.7667 307.732 84 307.066 84H296.973Z" fill="currentColor"/>
<path d="M405.916 85C401.786 85 398.222 84.5333 395.224 83.6C392.292 82.6 389.894 81.4 388.029 80C386.23 78.6 384.864 77.2 383.932 75.8C383.065 74.3333 382.599 73.1 382.533 72.1C382.466 71.3667 382.699 70.7667 383.232 70.3C383.765 69.8333 384.298 69.6 384.831 69.6H394.524C394.724 69.6 394.924 69.6333 395.124 69.7C395.324 69.7667 395.524 69.9333 395.723 70.2C396.59 70.8 397.489 71.5 398.422 72.3C399.354 73.0333 400.42 73.6667 401.619 74.2C402.885 74.7333 404.451 75 406.316 75C408.515 75 410.38 74.5667 411.912 73.7C413.445 72.7667 414.211 71.4667 414.211 69.8C414.211 68.6 413.844 67.6 413.112 66.8C412.445 66 411.146 65.2667 409.214 64.6C407.282 63.9333 404.418 63.2 400.62 62.4C397.023 61.6 393.958 60.5333 391.426 59.2C388.895 57.8667 386.996 56.2 385.73 54.2C384.465 52.1333 383.832 49.6667 383.832 46.8C383.832 44.2 384.631 41.7 386.23 39.3C387.896 36.9 390.327 34.9333 393.525 33.4C396.723 31.8 400.72 31 405.517 31C409.181 31 412.379 31.4667 415.11 32.4C417.908 33.2667 420.24 34.4 422.105 35.8C423.971 37.1333 425.37 38.5333 426.303 40C427.302 41.4 427.835 42.6333 427.901 43.7C427.968 44.3667 427.768 44.9333 427.302 45.4C426.836 45.8667 426.303 46.1 425.703 46.1H416.809C416.476 46.1 416.176 46.0667 415.91 46C415.643 45.8667 415.41 45.7 415.21 45.5C414.411 44.9667 413.578 44.3667 412.712 43.7C411.912 42.9667 410.946 42.3333 409.814 41.8C408.681 41.2667 407.216 41 405.417 41C403.218 41 401.52 41.5 400.32 42.5C399.188 43.4333 398.621 44.6333 398.621 46.1C398.621 47.0333 398.921 47.9 399.521 48.7C400.12 49.5 401.353 50.2333 403.218 50.9C405.084 51.5667 407.915 52.2667 411.713 53C416.243 53.8 419.84 55 422.505 56.6C425.17 58.2 427.069 60.0667 428.201 62.2C429.4 64.2667 430 66.5 430 68.9C430 72.0333 429.067 74.8333 427.202 77.3C425.337 79.7 422.605 81.6 419.008 83C415.477 84.3333 411.113 85 405.916 85Z" fill="currentColor"/>
</svg>
