<svg width="343" height="100" viewBox="0 0 343 100" fill="none" xmlns="http://www.w3.org/2000/svg">
<path fill-rule="evenodd" clip-rule="evenodd" d="M42.8639 22.6378H98.1198C98.7921 22.6378 99.1283 22.6378 99.3851 22.507C99.611 22.392 99.7946 22.2084 99.9097 21.9826C100.041 21.7259 100.041 21.3899 100.041 20.7178V1.92C100.041 1.24794 100.041 0.911905 99.9097 0.655211C99.7946 0.429417 99.611 0.24584 99.3851 0.130792C99.1283 0 98.7921 0 98.1198 0H44.7846C44.1123 0 43.7761 0 43.5193 0.130792C43.2935 0.24584 43.1098 0.429417 42.9947 0.655211C42.8639 0.911905 42.8639 1.24794 42.8639 1.92V22.6378L24.712 4.46493C23.6833 3.43504 23.1689 2.9201 22.7273 2.88511C22.344 2.85475 21.9695 3.00967 21.7197 3.30181C21.4319 3.6385 21.4319 4.36617 21.4319 5.82151V27.4606L3.28003 9.28776C2.25134 8.25787 1.73699 7.74293 1.29533 7.70794C0.912117 7.67759 0.537537 7.83251 0.287812 8.12464C0 8.46133 0 9.189 0 10.6443V31.4891C0 31.7822 0 31.9288 0.033104 32.0668C0.062454 32.1891 0.110864 32.3061 0.176561 32.4134C0.250661 32.5344 0.354282 32.6382 0.561524 32.8456L21.4319 53.7402V98.08C21.4319 98.7521 21.4319 99.0881 21.5628 99.3448C21.6779 99.5706 21.8615 99.7542 22.0874 99.8692C22.3442 100 22.6804 100 23.3527 100H42.2795C42.9518 100 43.288 100 43.5448 99.8692C43.7707 99.7542 43.9543 99.5706 44.0694 99.3448C44.2003 99.0881 44.2003 98.7521 44.2003 98.08V78.298C44.2003 77.6259 44.2003 77.2899 44.3311 77.0332C44.4462 76.8074 44.6299 76.6238 44.8557 76.5088C45.1125 76.378 45.4487 76.378 46.1211 76.378H98.1198C98.7921 76.378 99.1283 76.378 99.3851 76.2472C99.611 76.1321 99.7946 75.9485 99.9097 75.7227C100.041 75.466 100.041 75.13 100.041 74.458V55.6602C100.041 54.9881 100.041 54.6521 99.9097 54.3954C99.7946 54.1696 99.611 53.986 99.3851 53.871C99.1283 53.7402 98.7921 53.7402 98.1198 53.7402H21.4319L21.4319 27.4606L39.5838 45.6335C40.6125 46.6634 41.1269 47.1783 41.5685 47.2133C41.9517 47.2437 42.3263 47.0888 42.576 46.7966C42.8639 46.4599 42.8639 45.7323 42.8639 44.2769V22.6378Z" fill="currentColor"/>
<path d="M160.265 85C153.996 85 148.66 83.9667 144.258 81.9C139.923 79.7667 136.555 76.7 134.154 72.7C131.753 68.6333 130.42 63.7 130.153 57.9C130.086 55.1667 130.053 52.2333 130.053 49.1C130.053 45.9667 130.086 42.9667 130.153 40.1C130.42 34.3667 131.753 29.5 134.154 25.5C136.622 21.4333 140.057 18.3333 144.459 16.2C148.86 14.0667 154.129 13 160.265 13C164.733 13 168.802 13.5667 172.47 14.7C176.138 15.8333 179.306 17.4667 181.974 19.6C184.642 21.7333 186.709 24.2333 188.176 27.1C189.644 29.9667 190.444 33.1667 190.577 36.7C190.577 37.3 190.344 37.8 189.877 38.2C189.477 38.6 188.977 38.8 188.376 38.8H176.972C176.171 38.8 175.538 38.6 175.071 38.2C174.604 37.8 174.237 37.1333 173.971 36.2C172.97 32.2667 171.303 29.5667 168.969 28.1C166.634 26.6333 163.733 25.9 160.265 25.9C156.13 25.9 152.862 27.0333 150.461 29.3C148.06 31.5667 146.76 35.3333 146.559 40.6C146.359 46.0667 146.359 51.6667 146.559 57.4C146.76 62.6667 148.06 66.4333 150.461 68.7C152.862 70.9667 156.13 72.1 160.265 72.1C163.733 72.1 166.634 71.3667 168.969 69.9C171.369 68.3667 173.037 65.6667 173.971 61.8C174.237 60.8 174.604 60.1333 175.071 59.8C175.538 59.4 176.171 59.2 176.972 59.2H188.376C188.977 59.2 189.477 59.4 189.877 59.8C190.344 60.2 190.577 60.7 190.577 61.3C190.444 64.8333 189.644 68.0333 188.176 70.9C186.709 73.7667 184.642 76.2667 181.974 78.4C179.306 80.5333 176.138 82.1667 172.47 83.3C168.802 84.4333 164.733 85 160.265 85Z" fill="currentColor"/>
<path d="M203.218 84C202.485 84 201.884 83.7667 201.418 83.3C200.951 82.8333 200.717 82.2333 200.717 81.5V15.5C200.717 14.7667 200.951 14.1667 201.418 13.7C201.884 13.2333 202.485 13 203.218 13H213.222C213.889 13 214.456 13.2333 214.923 13.7C215.39 14.1667 215.623 14.7667 215.623 15.5V81.5C215.623 82.2333 215.39 82.8333 214.923 83.3C214.456 83.7667 213.889 84 213.222 84H203.218Z" fill="currentColor"/>
<path d="M247.375 85C243.507 85 240.072 84.1333 237.071 82.4C234.137 80.6 231.836 78.0333 230.168 74.7C228.568 71.3 227.767 67.2 227.767 62.4V34.5C227.767 33.7667 228.001 33.1667 228.468 32.7C228.935 32.2333 229.501 32 230.168 32H240.773C241.506 32 242.107 32.2333 242.573 32.7C243.04 33.1667 243.274 33.7667 243.274 34.5V61.8C243.274 69.2667 246.542 73 253.078 73C256.212 73 258.68 72.0333 260.481 70.1C262.348 68.1 263.282 65.3333 263.282 61.8V34.5C263.282 33.7667 263.515 33.1667 263.982 32.7C264.449 32.2333 265.049 32 265.783 32H276.387C277.054 32 277.621 32.2333 278.088 32.7C278.555 33.1667 278.788 33.7667 278.788 34.5V81.5C278.788 82.2333 278.555 82.8333 278.088 83.3C277.621 83.7667 277.054 84 276.387 84H266.583C265.849 84 265.249 83.7667 264.782 83.3C264.316 82.8333 264.082 82.2333 264.082 81.5V77.6C262.348 80 260.114 81.8333 257.379 83.1C254.645 84.3667 251.31 85 247.375 85Z" fill="currentColor"/>
<path d="M321.591 85C317.79 85 314.622 84.3667 312.087 83.1C309.553 81.7667 307.486 80.1 305.885 78.1V81.5C305.885 82.2333 305.652 82.8333 305.185 83.3C304.718 83.7667 304.118 84 303.384 84H293.88C293.146 84 292.546 83.7667 292.079 83.3C291.613 82.8333 291.379 82.2333 291.379 81.5V15.5C291.379 14.7667 291.613 14.1667 292.079 13.7C292.546 13.2333 293.146 13 293.88 13H304.184C304.851 13 305.418 13.2333 305.885 13.7C306.352 14.1667 306.585 14.7667 306.585 15.5V37.3C308.253 35.4333 310.32 33.9333 312.788 32.8C315.255 31.6 318.19 31 321.591 31C325.059 31 328.061 31.6 330.595 32.8C333.196 33.9333 335.397 35.5667 337.198 37.7C338.998 39.7667 340.366 42.2333 341.299 45.1C342.3 47.9667 342.833 51.1333 342.9 54.6C342.967 55.8 343 56.9333 343 58C343 59 342.967 60.1333 342.9 61.4C342.767 64.9333 342.2 68.1667 341.199 71.1C340.266 73.9667 338.898 76.4667 337.098 78.6C335.364 80.6667 333.196 82.2667 330.595 83.4C328.061 84.4667 325.059 85 321.591 85ZM317.09 73C319.624 73 321.625 72.4667 323.092 71.4C324.559 70.2667 325.593 68.8 326.193 67C326.86 65.2 327.26 63.2333 327.394 61.1C327.527 59.0333 327.527 56.9667 327.394 54.9C327.26 52.7667 326.86 50.8 326.193 49C325.593 47.2 324.559 45.7667 323.092 44.7C321.625 43.5667 319.624 43 317.09 43C314.689 43 312.721 43.5333 311.187 44.6C309.72 45.6667 308.586 47.0333 307.786 48.7C307.052 50.3 306.652 52.0333 306.585 53.9C306.519 55.1 306.485 56.3333 306.485 57.6C306.485 58.8667 306.519 60.1333 306.585 61.4C306.719 63.4 307.119 65.2667 307.786 67C308.453 68.7333 309.553 70.1667 311.087 71.3C312.621 72.4333 314.622 73 317.09 73Z" fill="currentColor"/>
</svg>
