<svg width="280" height="100" viewBox="0 0 280 100" fill="none" xmlns="http://www.w3.org/2000/svg">
<path fill-rule="evenodd" clip-rule="evenodd" d="M42.8465 22.6378H98.08C98.7521 22.6378 99.0881 22.6378 99.3448 22.507C99.5706 22.392 99.7542 22.2084 99.8692 21.9826C100 21.7259 100 21.3899 100 20.7178V1.92C100 1.24794 100 0.911906 99.8692 0.655211C99.7542 0.429417 99.5706 0.24584 99.3448 0.130792C99.0881 0 98.7521 0 98.08 0H44.7665C44.0944 0 43.7584 0 43.5017 0.130792C43.2759 0.24584 43.0923 0.429417 42.9773 0.655211C42.8465 0.911906 42.8465 1.24794 42.8465 1.92V22.6378L24.7019 4.46493C23.6737 3.43504 23.1595 2.9201 22.718 2.88511C22.335 2.85475 21.9606 3.00967 21.7109 3.30181C21.4232 3.6385 21.4232 4.36617 21.4232 5.82151V27.4606L3.2787 9.28776C2.25042 8.25787 1.73628 7.74293 1.2948 7.70794C0.911747 7.67759 0.537319 7.83251 0.287695 8.12464C0 8.46133 0 9.189 0 10.6443V31.4891C0 31.7822 0 31.9288 0.0330906 32.0668C0.0624287 32.1891 0.110819 32.3061 0.176489 32.4134C0.250559 32.5344 0.354138 32.6382 0.561296 32.8456L21.4232 53.7402V98.08C21.4232 98.7521 21.4232 99.0881 21.554 99.3448C21.6691 99.5706 21.8527 99.7542 22.0784 99.8692C22.3351 100 22.6712 100 23.3432 100H42.2623C42.9344 100 43.2704 100 43.5271 99.8692C43.7529 99.7542 43.9365 99.5706 44.0516 99.3448C44.1823 99.0881 44.1823 98.7521 44.1823 98.08V78.298C44.1823 77.6259 44.1823 77.2899 44.3131 77.0332C44.4282 76.8074 44.6118 76.6238 44.8376 76.5088C45.0943 76.378 45.4303 76.378 46.1023 76.378H98.08C98.7521 76.378 99.0881 76.378 99.3448 76.2472C99.5706 76.1321 99.7542 75.9485 99.8692 75.7227C100 75.466 100 75.13 100 74.458V55.6602C100 54.9881 100 54.6521 99.8692 54.3954C99.7542 54.1696 99.5706 53.986 99.3448 53.871C99.0881 53.7402 98.7521 53.7402 98.08 53.7402H21.4232L21.4232 27.4606L39.5678 45.6335C40.5961 46.6634 41.1102 47.1783 41.5517 47.2133C41.9347 47.2437 42.3092 47.0888 42.5588 46.7966C42.8465 46.4599 42.8465 45.7323 42.8465 44.2769V22.6378Z" fill="black"/>
<path d="M160.2 85C153.933 85 148.6 83.9667 144.2 81.9C139.867 79.7667 136.5 76.7 134.1 72.7C131.7 68.6333 130.367 63.7 130.1 57.9C130.033 55.1667 130 52.2333 130 49.1C130 45.9667 130.033 42.9667 130.1 40.1C130.367 34.3667 131.7 29.5 134.1 25.5C136.567 21.4333 140 18.3333 144.4 16.2C148.8 14.0667 154.067 13 160.2 13C164.667 13 168.733 13.5667 172.4 14.7C176.067 15.8333 179.233 17.4667 181.9 19.6C184.567 21.7333 186.633 24.2333 188.1 27.1C189.567 29.9667 190.367 33.1667 190.5 36.7C190.5 37.3 190.267 37.8 189.8 38.2C189.4 38.6 188.9 38.8 188.3 38.8H176.9C176.1 38.8 175.467 38.6 175 38.2C174.533 37.8 174.167 37.1333 173.9 36.2C172.9 32.2667 171.233 29.5667 168.9 28.1C166.567 26.6333 163.667 25.9 160.2 25.9C156.067 25.9 152.8 27.0333 150.4 29.3C148 31.5667 146.7 35.3333 146.5 40.6C146.3 46.0667 146.3 51.6667 146.5 57.4C146.7 62.6667 148 66.4333 150.4 68.7C152.8 70.9667 156.067 72.1 160.2 72.1C163.667 72.1 166.567 71.3667 168.9 69.9C171.3 68.3667 172.967 65.6667 173.9 61.8C174.167 60.8 174.533 60.1333 175 59.8C175.467 59.4 176.1 59.2 176.9 59.2H188.3C188.9 59.2 189.4 59.4 189.8 59.8C190.267 60.2 190.5 60.7 190.5 61.3C190.367 64.8333 189.567 68.0333 188.1 70.9C186.633 73.7667 184.567 76.2667 181.9 78.4C179.233 80.5333 176.067 82.1667 172.4 83.3C168.733 84.4333 164.667 85 160.2 85ZM215.936 85C212.403 85 209.236 84.3333 206.436 83C203.636 81.6 201.403 79.7333 199.736 77.4C198.069 75.0667 197.236 72.4667 197.236 69.6C197.236 64.8667 199.136 61.1333 202.936 58.4C206.803 55.6667 211.869 53.8 218.136 52.8L231.236 50.9V49.1C231.236 46.5 230.636 44.5 229.436 43.1C228.236 41.7 226.136 41 223.136 41C220.936 41 219.169 41.4333 217.836 42.3C216.503 43.1667 215.469 44.3 214.736 45.7C214.203 46.5667 213.436 47 212.436 47H202.936C202.203 47 201.636 46.8 201.236 46.4C200.836 45.9333 200.669 45.4 200.736 44.8C200.736 43.6667 201.169 42.3333 202.036 40.8C202.903 39.2667 204.236 37.7667 206.036 36.3C207.836 34.7667 210.136 33.5 212.936 32.5C215.736 31.5 219.169 31 223.236 31C227.436 31 231.036 31.5 234.036 32.5C237.036 33.5 239.436 34.9 241.236 36.7C243.036 38.5 244.369 40.6 245.236 43C246.103 45.3333 246.536 47.8667 246.536 50.6V81.5C246.536 82.2333 246.303 82.8333 245.836 83.3C245.369 83.7667 244.769 84 244.036 84H234.236C233.569 84 233.003 83.7667 232.536 83.3C232.069 82.8333 231.836 82.2333 231.836 81.5V77.8C230.969 79.0667 229.803 80.2667 228.336 81.4C226.869 82.4667 225.103 83.3333 223.036 84C221.036 84.6667 218.669 85 215.936 85ZM219.936 74.6C222.136 74.6 224.103 74.1333 225.836 73.2C227.569 72.2667 228.936 70.8333 229.936 68.9C230.936 66.9667 231.436 64.5333 231.436 61.6V59.9L222.136 61.4C218.536 62 215.903 62.9 214.236 64.1C212.569 65.3 211.736 66.7667 211.736 68.5C211.736 69.7667 212.103 70.8667 212.836 71.8C213.636 72.7333 214.669 73.4333 215.936 73.9C217.203 74.3667 218.536 74.6 219.936 74.6ZM261.144 84C260.41 84 259.81 83.7667 259.344 83.3C258.877 82.8333 258.644 82.2333 258.644 81.5V15.5C258.644 14.7667 258.877 14.1667 259.344 13.7C259.81 13.2333 260.41 13 261.144 13H271.144C271.81 13 272.377 13.2333 272.844 13.7C273.31 14.1667 273.544 14.7667 273.544 15.5V81.5C273.544 82.2333 273.31 82.8333 272.844 83.3C272.377 83.7667 271.81 84 271.144 84H261.144Z" fill="black"/>
</svg>
