<svg width="580" height="100" viewBox="0 0 580 100" fill="none" xmlns="http://www.w3.org/2000/svg">
<path d="M151.214 47.4915C151.214 45.8347 152.557 44.4915 154.214 44.4915H195.734C197.391 44.4915 198.734 45.8347 198.734 47.4915V59.8531C198.734 61.51 197.391 62.8531 195.734 62.8531H154.214C152.557 62.8531 151.214 61.51 151.214 59.8531V47.4915ZM152.911 95.8701C152.911 97.5269 151.568 98.8701 149.911 98.8701H133C131.343 98.8701 130 97.5269 130 95.8701V3C130 1.34314 131.343 0 133 0H201.816C203.473 0 204.816 1.34315 204.816 3V15.3616C204.816 17.0184 203.473 18.3616 201.816 18.3616H155.911C154.255 18.3616 152.911 19.7047 152.911 21.3616V95.8701Z" fill="black"/>
<path d="M253.181 100C245.073 100 237.86 98.3051 231.543 94.9153C225.32 91.5254 220.37 86.9115 216.693 81.0734C213.11 75.1413 211.318 68.4087 211.318 60.8757C211.318 53.2486 213.11 46.516 216.693 40.678C220.37 34.7458 225.32 30.1318 231.543 26.8362C237.86 23.4463 245.073 21.7514 253.181 21.7514C261.195 21.7514 268.361 23.4463 274.678 26.8362C280.996 30.1318 285.946 34.6987 289.528 40.5367C293.111 46.3748 294.903 53.1544 294.903 60.8757C294.903 68.4087 293.111 75.1413 289.528 81.0734C285.946 86.9115 280.996 91.5254 274.678 94.9153C268.361 98.3051 261.195 100 253.181 100ZM253.181 81.9209C256.858 81.9209 260.158 81.0734 263.081 79.3785C266.004 77.6836 268.314 75.2825 270.011 72.1751C271.708 68.9736 272.557 65.2072 272.557 60.8757C272.557 56.4501 271.708 52.6836 270.011 49.5763C268.314 46.4689 266.004 44.0678 263.081 42.3729C260.158 40.678 256.858 39.8305 253.181 39.8305C249.504 39.8305 246.204 40.678 243.281 42.3729C240.358 44.0678 238.001 46.4689 236.21 49.5763C234.513 52.6836 233.664 56.4501 233.664 60.8757C233.664 65.2072 234.513 68.9736 236.21 72.1751C238.001 75.2825 240.358 77.6836 243.281 79.3785C246.204 81.0734 249.504 81.9209 253.181 81.9209Z" fill="black"/>
<path d="M312.65 98.8701C310.993 98.8701 309.65 97.5269 309.65 95.8701V25.8814C309.65 24.2245 310.993 22.8814 312.65 22.8814H327.723C329.38 22.8814 330.723 24.2245 330.723 25.8814V38.0992C330.723 39.6082 328.678 40.0717 328.027 38.7102C327.853 38.3447 327.841 37.9209 328.007 37.5513C330.283 32.4736 333.829 28.6194 338.643 25.9887C342.927 23.5666 348.009 22.1829 353.888 21.8376C355.542 21.7404 356.887 23.0946 356.887 24.7514V39.5397C356.887 40.9054 355.707 41.9492 354.341 41.9492C353.587 41.855 352.786 41.8079 351.937 41.8079C345.903 41.8079 341 43.5499 337.229 47.0339C333.551 50.4237 331.713 55.7439 331.713 62.9944V95.8701C331.713 97.5269 330.37 98.8701 328.713 98.8701H312.65Z" fill="black"/>
<path d="M467.588 21.7514C473.623 21.7514 478.95 22.9755 483.57 25.4237C488.284 27.7778 491.961 31.4501 494.601 36.4407C497.336 41.3371 498.703 47.646 498.703 55.3672V95.8701C498.703 97.5269 497.36 98.8701 495.703 98.8701H479.64C477.983 98.8701 476.64 97.5269 476.64 95.8701V58.7571C476.64 52.6365 475.367 48.1168 472.821 45.1977C470.276 42.2787 466.693 40.8192 462.073 40.8192C458.867 40.8192 455.991 41.5725 453.446 43.0791C450.9 44.4915 448.92 46.6572 447.506 49.5763C446.091 52.4953 445.384 56.2147 445.384 60.7345V95.8701C445.384 97.5269 444.041 98.8701 442.384 98.8701H426.321C424.664 98.8701 423.321 97.5269 423.321 95.8701V58.7571C423.321 52.6365 422.048 48.1168 419.503 45.1977C417.051 42.2787 413.515 40.8192 408.895 40.8192C405.69 40.8192 402.814 41.5725 400.268 43.0791C397.723 44.4915 395.743 46.6572 394.328 49.5763C392.914 52.4953 392.207 56.2147 392.207 60.7345V95.8701C392.207 97.5269 390.864 98.8701 389.207 98.8701H373.144C371.487 98.8701 370.144 97.5269 370.144 95.8701V25.8814C370.144 24.2245 371.487 22.8814 373.144 22.8814H388.217C389.874 22.8814 391.217 24.2245 391.217 25.8814V37.4577C391.217 39.2866 388.837 39.994 387.838 38.4619C387.478 37.9106 387.437 37.2069 387.756 36.6307C390.358 31.9165 393.916 28.3221 398.43 25.8475C403.333 23.1168 408.895 21.7514 415.118 21.7514C422.095 21.7514 428.177 23.5405 433.363 27.1186C437.465 29.8258 440.486 33.6699 442.426 38.6511C443.209 40.6635 441.297 42.5309 439.213 41.9634C437.542 41.5082 436.651 39.6724 437.492 38.1584C440.03 33.5911 443.604 29.8641 448.213 26.9774C453.87 23.4934 460.328 21.7514 467.588 21.7514Z" fill="black"/>
<path d="M544.077 100C537.571 100 531.301 99.2467 525.267 97.7401C520.486 96.4516 516.499 94.9191 513.306 93.1426C512.018 92.4259 511.581 90.8244 512.203 89.4877L517.052 79.0581C517.81 77.4261 519.824 76.8304 521.424 77.6534C524.216 79.089 527.336 80.3232 530.783 81.3559C535.591 82.6742 540.306 83.3333 544.926 83.3333C550.017 83.3333 553.6 82.7213 555.674 81.4972C557.843 80.2731 558.927 78.5782 558.927 76.4124C558.927 74.6234 558.079 73.3051 556.381 72.4576C554.779 71.516 552.61 70.8098 549.876 70.339C547.141 69.8682 544.124 69.3974 540.824 68.9266C537.619 68.4557 534.366 67.8437 531.066 67.0904C527.766 66.2429 524.748 65.0188 522.014 63.4181C519.28 61.8173 517.064 59.6516 515.367 56.9209C513.764 54.1902 512.963 50.6591 512.963 46.3277C512.963 41.5254 514.33 37.2881 517.064 33.6158C519.893 29.9435 523.947 27.0716 529.227 25C534.507 22.8343 540.824 21.7514 548.179 21.7514C553.364 21.7514 558.644 22.3164 564.019 23.4463C568.267 24.3396 571.956 25.5565 575.085 27.0971C576.462 27.7751 576.959 29.4447 576.308 30.8345L571.499 41.0847C570.749 42.6851 568.788 43.2811 567.197 42.5097C564.466 41.1852 561.71 40.245 558.927 39.6893C555.25 38.8418 551.667 38.4181 548.179 38.4181C543.276 38.4181 539.693 39.0772 537.43 40.3955C535.167 41.7138 534.036 43.4087 534.036 45.4802C534.036 47.3635 534.837 48.7759 536.44 49.7175C538.137 50.6591 540.353 51.4124 543.087 51.9774C545.821 52.5424 548.791 53.0603 551.997 53.5311C555.297 53.9077 558.597 54.5198 561.897 55.3672C565.197 56.2147 568.167 57.4388 570.807 59.0396C573.541 60.5461 575.757 62.6648 577.454 65.3955C579.151 68.032 580 71.516 580 75.8475C580 80.5556 578.586 84.7458 575.757 88.4181C572.929 91.9962 568.827 94.8211 563.453 96.8927C558.173 98.9642 551.714 100 544.077 100Z" fill="black"/>
<path fill-rule="evenodd" clip-rule="evenodd" d="M42.8465 22.6378H98.08C98.7521 22.6378 99.0881 22.6378 99.3448 22.507C99.5706 22.392 99.7542 22.2084 99.8692 21.9826C100 21.7259 100 21.3899 100 20.7178V1.92C100 1.24794 100 0.911906 99.8692 0.655211C99.7542 0.429417 99.5706 0.24584 99.3448 0.130792C99.0881 0 98.7521 0 98.08 0H44.7665C44.0944 0 43.7584 0 43.5017 0.130792C43.2759 0.24584 43.0923 0.429417 42.9773 0.655211C42.8465 0.911906 42.8465 1.24794 42.8465 1.92V22.6378L24.7019 4.46493C23.6737 3.43504 23.1595 2.9201 22.718 2.88511C22.335 2.85475 21.9606 3.00967 21.7109 3.30181C21.4232 3.6385 21.4232 4.36617 21.4232 5.82151V27.4606L3.2787 9.28776C2.25042 8.25787 1.73628 7.74293 1.2948 7.70794C0.911747 7.67759 0.537319 7.83251 0.287695 8.12464C0 8.46133 0 9.189 0 10.6443V31.4891C0 31.7822 0 31.9288 0.0330906 32.0668C0.0624287 32.1891 0.110819 32.3061 0.176489 32.4134C0.250559 32.5344 0.354138 32.6382 0.561296 32.8456L21.4232 53.7402V98.08C21.4232 98.7521 21.4232 99.0881 21.554 99.3448C21.6691 99.5706 21.8527 99.7542 22.0784 99.8692C22.3351 100 22.6712 100 23.3432 100H42.2623C42.9344 100 43.2704 100 43.5271 99.8692C43.7529 99.7542 43.9365 99.5706 44.0516 99.3448C44.1823 99.0881 44.1823 98.7521 44.1823 98.08V78.298C44.1823 77.6259 44.1823 77.2899 44.3131 77.0332C44.4282 76.8074 44.6118 76.6238 44.8376 76.5088C45.0943 76.378 45.4303 76.378 46.1023 76.378H98.08C98.7521 76.378 99.0881 76.378 99.3448 76.2472C99.5706 76.1321 99.7542 75.9485 99.8692 75.7227C100 75.466 100 75.13 100 74.458V55.6602C100 54.9881 100 54.6521 99.8692 54.3954C99.7542 54.1696 99.5706 53.986 99.3448 53.871C99.0881 53.7402 98.7521 53.7402 98.08 53.7402H21.4232L21.4232 27.4606L39.5678 45.6335C40.5961 46.6634 41.1102 47.1783 41.5517 47.2133C41.9347 47.2437 42.3092 47.0888 42.5588 46.7966C42.8465 46.4599 42.8465 45.7323 42.8465 44.2769V22.6378Z" fill="black"/>
</svg>
