<svg width="334" height="100" viewBox="0 0 334 100" fill="none" xmlns="http://www.w3.org/2000/svg">
<path d="M180.314 100C173.146 100 166.464 98.8506 160.268 96.5517C154.162 94.1645 148.851 90.8046 144.338 86.4722C139.824 82.1397 136.284 77.0557 133.717 71.2202C131.239 65.3846 130 58.9744 130 51.9894C130 45.0044 131.239 38.5942 133.717 32.7586C136.284 26.9231 139.824 21.8391 144.338 17.5066C148.94 13.1742 154.294 9.85853 160.401 7.55968C166.508 5.17242 173.19 3.97878 180.447 3.97878C188.501 3.97878 195.758 5.39346 202.219 8.22282C207.877 10.5906 212.742 13.9482 216.815 18.2956C217.901 19.4556 217.768 21.2663 216.599 22.3438L207.133 31.0736C205.894 32.2158 203.968 32.1028 202.755 30.9327C200.139 28.4073 197.305 26.4518 194.254 25.0663C190.36 23.2096 186.111 22.2812 181.509 22.2812C177.173 22.2812 173.19 22.9885 169.561 24.4032C165.933 25.8179 162.791 27.8515 160.136 30.504C157.48 33.1565 155.401 36.2953 153.896 39.9204C152.48 43.5455 151.772 47.5685 151.772 51.9894C151.772 56.4103 152.48 60.4332 153.896 64.0584C155.401 67.6835 157.48 70.8223 160.136 73.4748C162.791 76.1273 165.933 78.1609 169.561 79.5756C173.19 80.9903 177.173 81.6976 181.509 81.6976C186.111 81.6976 190.36 80.8134 194.254 79.0451C197.306 77.5897 200.141 75.5638 202.759 72.9675C203.965 71.771 205.911 71.6458 207.16 72.7976L216.599 81.5023C217.768 82.5799 217.901 84.3904 216.816 85.5517C212.743 89.9101 207.877 93.3115 202.219 95.756C195.758 98.5853 188.457 100 180.314 100Z" fill="black"/>
<path d="M278.164 98.4085C276.507 98.4085 275.164 97.0653 275.164 95.4085V84.4828L273.837 81.4324V56.4987C273.837 52.0778 272.465 48.6295 269.721 46.1539C267.066 43.6782 262.951 42.4403 257.375 42.4403C253.569 42.4403 249.808 43.0592 246.091 44.2971C243.785 45.0275 241.693 45.9365 239.816 47.024C238.181 47.9716 235.993 47.5061 235.128 45.8251L230.558 36.9376C229.873 35.6063 230.269 33.963 231.551 33.1909C234.978 31.1282 238.939 29.481 243.436 28.2493C248.923 26.7462 254.499 25.9947 260.163 25.9947C271.049 25.9947 279.501 28.5588 285.519 33.687C291.538 38.8152 294.547 46.817 294.547 57.6923V95.4085C294.547 97.0653 293.204 98.4085 291.547 98.4085H278.164ZM253.392 99.4695C247.817 99.4695 243.037 98.5411 239.055 96.6844C235.072 94.7392 232.019 92.1309 229.895 88.8594C227.77 85.588 226.708 81.9187 226.708 77.8515C226.708 73.6074 227.726 69.8939 229.762 66.7109C231.886 63.5279 235.205 61.0522 239.719 59.2838C244.232 57.4271 250.118 56.4987 257.375 56.4987H276.359V68.5676H259.632C254.764 68.5676 251.401 69.3634 249.542 70.9549C247.772 72.5464 246.887 74.5358 246.887 76.9231C246.887 79.5756 247.905 81.6976 249.941 83.2891C252.065 84.7922 254.941 85.5438 258.57 85.5438C262.021 85.5438 265.119 84.748 267.863 83.1565C270.606 81.4766 272.598 79.0451 273.837 75.8621L277.023 85.4111C275.518 90.0088 272.775 93.5013 268.792 95.8886C264.809 98.2759 259.676 99.4695 253.392 99.4695Z" fill="black"/>
<path d="M316.29 98.4085C314.633 98.4085 313.29 97.0653 313.29 95.4085V3C313.29 1.34315 314.633 0 316.29 0H331C332.657 0 334 1.34315 334 3V95.4085C334 97.0653 332.657 98.4085 331 98.4085H316.29Z" fill="black"/>
<path fill-rule="evenodd" clip-rule="evenodd" d="M42.8465 22.6378H98.08C98.7521 22.6378 99.0881 22.6378 99.3448 22.507C99.5706 22.392 99.7542 22.2084 99.8692 21.9826C100 21.7259 100 21.3899 100 20.7178V1.92C100 1.24794 100 0.911906 99.8692 0.655211C99.7542 0.429417 99.5706 0.24584 99.3448 0.130792C99.0881 0 98.7521 0 98.08 0H44.7665C44.0944 0 43.7584 0 43.5017 0.130792C43.2759 0.24584 43.0923 0.429417 42.9773 0.655211C42.8465 0.911906 42.8465 1.24794 42.8465 1.92V22.6378L24.7019 4.46493C23.6737 3.43504 23.1595 2.9201 22.718 2.88511C22.335 2.85475 21.9606 3.00967 21.7109 3.30181C21.4232 3.6385 21.4232 4.36617 21.4232 5.82151V27.4606L3.2787 9.28776C2.25042 8.25787 1.73628 7.74293 1.2948 7.70794C0.911747 7.67759 0.537319 7.83251 0.287695 8.12464C0 8.46133 0 9.189 0 10.6443V31.4891C0 31.7822 0 31.9288 0.0330906 32.0668C0.0624287 32.1891 0.110819 32.3061 0.176489 32.4134C0.250559 32.5344 0.354138 32.6382 0.561296 32.8456L21.4232 53.7402V98.08C21.4232 98.7521 21.4232 99.0881 21.554 99.3448C21.6691 99.5706 21.8527 99.7542 22.0784 99.8692C22.3351 100 22.6712 100 23.3432 100H42.2623C42.9344 100 43.2704 100 43.5271 99.8692C43.7529 99.7542 43.9365 99.5706 44.0516 99.3448C44.1823 99.0881 44.1823 98.7521 44.1823 98.08V78.298C44.1823 77.6259 44.1823 77.2899 44.3131 77.0332C44.4282 76.8074 44.6118 76.6238 44.8376 76.5088C45.0943 76.378 45.4303 76.378 46.1023 76.378H98.08C98.7521 76.378 99.0881 76.378 99.3448 76.2472C99.5706 76.1321 99.7542 75.9485 99.8692 75.7227C100 75.466 100 75.13 100 74.458V55.6602C100 54.9881 100 54.6521 99.8692 54.3954C99.7542 54.1696 99.5706 53.986 99.3448 53.871C99.0881 53.7402 98.7521 53.7402 98.08 53.7402H21.4232L21.4232 27.4606L39.5678 45.6335C40.5961 46.6634 41.1102 47.1783 41.5517 47.2133C41.9347 47.2437 42.3092 47.0888 42.5588 46.7966C42.8465 46.4599 42.8465 45.7323 42.8465 44.2769V22.6378Z" fill="black"/>
</svg>
