<svg width="441" height="100" viewBox="0 0 441 100" fill="none" xmlns="http://www.w3.org/2000/svg">
<path d="M180.279 100C173.115 100 166.438 98.8506 160.247 96.5517C154.144 94.1645 148.838 90.8046 144.327 86.4722C139.817 82.1397 136.279 77.0557 133.715 71.2202C131.238 65.3846 130 58.9744 130 51.9894C130 45.0044 131.238 38.5942 133.715 32.7586C136.279 26.9231 139.817 21.8391 144.327 17.5066C148.926 13.1742 154.277 9.85853 160.38 7.55968C166.482 5.17242 173.159 3.97878 180.411 3.97878C188.46 3.97878 195.712 5.39346 202.168 8.22282C208.713 10.9638 214.196 15.0309 218.618 20.4244L204.821 33.1565C201.637 29.5314 198.1 26.8347 194.208 25.0663C190.317 23.2096 186.072 22.2812 181.473 22.2812C177.139 22.2812 173.159 22.9885 169.533 24.4032C165.907 25.8179 162.767 27.8515 160.114 30.504C157.461 33.1565 155.383 36.2953 153.879 39.9204C152.464 43.5455 151.757 47.5685 151.757 51.9894C151.757 56.4103 152.464 60.4332 153.879 64.0584C155.383 67.6835 157.461 70.8223 160.114 73.4748C162.767 76.1273 165.907 78.1609 169.533 79.5756C173.159 80.9903 177.139 81.6976 181.473 81.6976C186.072 81.6976 190.317 80.8134 194.208 79.0451C198.1 77.1883 201.637 74.4032 204.821 70.6897L218.618 83.4218C214.196 88.8152 208.713 92.9266 202.168 95.756C195.712 98.5853 188.415 100 180.279 100Z" fill="black"/>
<path d="M231.672 98.4085V0H252.367V98.4085H231.672Z" fill="black"/>
<path d="M301.688 99.4695C295.763 99.4695 290.456 98.3201 285.769 96.0212C281.17 93.7224 277.588 90.2299 275.023 85.5438C272.458 80.7692 271.176 74.7126 271.176 67.374V27.0557H291.871V64.3236C291.871 70.2476 293.109 74.6242 295.586 77.4536C298.15 80.1945 301.732 81.565 306.331 81.565C309.515 81.565 312.345 80.9019 314.822 79.5756C317.298 78.1609 319.244 76.0389 320.659 73.2096C322.074 70.2918 322.781 66.6667 322.781 62.3342V27.0557H343.477V98.4085H323.843V78.7798L327.424 84.4828C325.037 89.4341 321.499 93.1919 316.812 95.756C312.213 98.2317 307.171 99.4695 301.688 99.4695Z" fill="black"/>
<path d="M404.836 99.4695C398.556 99.4695 393.161 98.1433 388.651 95.4907C384.14 92.8382 380.691 88.8152 378.303 83.4218C375.915 77.9399 374.722 71.0433 374.722 62.7321C374.722 54.3325 375.96 47.4359 378.436 42.0424C381.001 36.649 384.538 32.626 389.049 29.9735C393.559 27.321 398.822 25.9947 404.836 25.9947C411.557 25.9947 417.571 27.4978 422.878 30.504C428.273 33.5102 432.518 37.7542 435.613 43.2361C438.797 48.718 440.389 55.2166 440.389 62.7321C440.389 70.1592 438.797 76.6136 435.613 82.0955C432.518 87.5774 428.273 91.8656 422.878 94.9602C417.571 97.9664 411.557 99.4695 404.836 99.4695ZM362.649 98.4085V0H383.345V41.5119L382.018 62.5995L382.416 83.8196V98.4085H362.649ZM401.254 82.4934C404.703 82.4934 407.754 81.6976 410.407 80.1061C413.149 78.5146 415.316 76.26 416.908 73.3422C418.588 70.336 419.428 66.7993 419.428 62.7321C419.428 58.5765 418.588 55.0398 416.908 52.122C415.316 49.2042 413.149 46.9496 410.407 45.3581C407.754 43.7666 404.703 42.9708 401.254 42.9708C397.805 42.9708 394.709 43.7666 391.967 45.3581C389.226 46.9496 387.059 49.2042 385.467 52.122C383.875 55.0398 383.079 58.5765 383.079 62.7321C383.079 66.7993 383.875 70.336 385.467 73.3422C387.059 76.26 389.226 78.5146 391.967 80.1061C394.709 81.6976 397.805 82.4934 401.254 82.4934Z" fill="black"/>
<path fill-rule="evenodd" clip-rule="evenodd" d="M42.8465 22.6378H98.08C98.7521 22.6378 99.0881 22.6378 99.3448 22.507C99.5706 22.392 99.7542 22.2084 99.8692 21.9826C100 21.7259 100 21.3899 100 20.7178V1.92C100 1.24794 100 0.911906 99.8692 0.655211C99.7542 0.429417 99.5706 0.24584 99.3448 0.130792C99.0881 0 98.7521 0 98.08 0H44.7665C44.0944 0 43.7584 0 43.5017 0.130792C43.2759 0.24584 43.0923 0.429417 42.9773 0.655211C42.8465 0.911906 42.8465 1.24794 42.8465 1.92V22.6378L24.7019 4.46493C23.6737 3.43504 23.1595 2.9201 22.718 2.88511C22.335 2.85475 21.9606 3.00967 21.7109 3.30181C21.4232 3.6385 21.4232 4.36617 21.4232 5.82151V27.4606L3.2787 9.28776C2.25042 8.25787 1.73628 7.74293 1.2948 7.70794C0.911747 7.67759 0.537319 7.83251 0.287695 8.12464C0 8.46133 0 9.189 0 10.6443V31.4891C0 31.7822 0 31.9288 0.0330906 32.0668C0.0624287 32.1891 0.110819 32.3061 0.176489 32.4134C0.250559 32.5344 0.354138 32.6382 0.561296 32.8456L21.4232 53.7402V98.08C21.4232 98.7521 21.4232 99.0881 21.554 99.3448C21.6691 99.5706 21.8527 99.7542 22.0784 99.8692C22.3351 100 22.6712 100 23.3432 100H42.2623C42.9344 100 43.2704 100 43.5271 99.8692C43.7529 99.7542 43.9365 99.5706 44.0516 99.3448C44.1823 99.0881 44.1823 98.7521 44.1823 98.08V78.298C44.1823 77.6259 44.1823 77.2899 44.3131 77.0332C44.4282 76.8074 44.6118 76.6238 44.8376 76.5087C45.0943 76.378 45.4303 76.378 46.1023 76.378H98.08C98.7521 76.378 99.0881 76.378 99.3448 76.2472C99.5706 76.1321 99.7542 75.9485 99.8692 75.7227C100 75.466 100 75.13 100 74.458V55.6602C100 54.9881 100 54.6521 99.8692 54.3954C99.7542 54.1696 99.5706 53.986 99.3448 53.871C99.0881 53.7402 98.7521 53.7402 98.08 53.7402H21.4232L21.4232 27.4606L39.5678 45.6335C40.5961 46.6634 41.1102 47.1783 41.5517 47.2133C41.9347 47.2437 42.3092 47.0888 42.5588 46.7966C42.8465 46.4599 42.8465 45.7323 42.8465 44.2769V22.6378Z" fill="black"/>
</svg>
