<svg width="491" height="100" viewBox="0 0 491 100" fill="none" xmlns="http://www.w3.org/2000/svg">
<path d="M133 98.8701C131.343 98.8701 130 97.5269 130 95.8701V3C130 1.34314 131.343 0 133 0H147.257C148.307 0 149.281 0.54966 149.825 1.44903L188.484 65.4581C189.629 67.3542 188.264 69.774 186.049 69.774C183.843 69.774 182.476 67.3728 183.602 65.4763L221.613 1.46823C222.153 0.557972 223.133 0 224.192 0H238.301C239.955 0 241.296 1.33792 241.301 2.99142L241.567 95.8615C241.571 97.5217 240.227 98.8701 238.567 98.8701H223.074C221.42 98.8701 220.078 97.5308 220.074 95.8765L219.942 34.346C219.94 33.5532 220.583 32.9096 221.375 32.9096C222.488 32.9096 223.176 34.1215 222.607 35.0769L191.68 86.9543C191.139 87.862 190.16 88.4181 189.104 88.4181H182.17C181.124 88.4181 180.152 87.8724 179.608 86.9783L148.288 35.5389C147.586 34.3862 148.416 32.9096 149.765 32.9096C150.72 32.9096 151.495 33.684 151.495 34.6393V95.8701C151.495 97.5269 150.152 98.8701 148.495 98.8701H133Z" fill="black"/>
<path d="M301.263 100C292.589 100 284.953 98.3051 278.354 94.9153C271.849 91.5254 266.805 86.9115 263.223 81.0734C259.64 75.1413 257.849 68.4087 257.849 60.8757C257.849 53.2486 259.593 46.516 263.081 40.678C266.664 34.7458 271.519 30.1318 277.647 26.8362C283.775 23.4463 290.704 21.7514 298.435 21.7514C305.882 21.7514 312.576 23.3522 318.515 26.5537C324.549 29.661 329.31 34.1808 332.798 40.113C336.286 45.951 338.03 52.9661 338.03 61.1582C338.03 62.0057 337.983 62.9944 337.889 64.1243C337.881 64.2126 337.873 64.3005 337.865 64.3882C337.724 65.9228 336.433 67.0904 334.891 67.0904H278.808C277.152 67.0904 275.808 65.7473 275.808 64.0904V57.2373C275.808 55.5804 277.152 54.2373 278.808 54.2373H319.023C320.638 54.2373 321.11 56.4397 319.637 57.1016C318.646 57.5471 317.522 56.8204 317.429 55.7376C317.172 52.7405 316.403 50.0747 315.121 47.7401C313.519 44.8211 311.303 42.5612 308.475 40.9605C305.647 39.2655 302.347 38.4181 298.576 38.4181C294.805 38.4181 291.458 39.2655 288.536 40.9605C285.707 42.5612 283.492 44.8682 281.889 47.8814C280.286 50.8004 279.485 54.2844 279.485 58.3333V61.7232C279.485 65.8663 280.381 69.5386 282.172 72.7401C284.058 75.8475 286.65 78.2486 289.95 79.9435C293.344 81.5443 297.303 82.3446 301.828 82.3446C305.882 82.3446 309.418 81.7326 312.434 80.5085C314.632 79.644 316.688 78.4743 318.602 76.9994C319.934 75.9738 321.856 76.0146 322.996 77.2495L330.82 85.7227C331.863 86.8528 331.893 88.6005 330.784 89.6664C327.64 92.6893 323.88 95.0981 319.505 96.8927C314.226 98.9642 308.145 100 301.263 100Z" fill="black"/>
<path d="M390.475 100C381.802 100 374.165 98.3051 367.566 94.9153C361.061 91.5254 356.017 86.9115 352.435 81.0734C348.852 75.1413 347.061 68.4087 347.061 60.8757C347.061 53.2486 348.805 46.516 352.293 40.678C355.876 34.7458 360.731 30.1318 366.859 26.8362C372.987 23.4463 379.916 21.7514 387.647 21.7514C395.094 21.7514 401.788 23.3522 407.727 26.5537C413.761 29.661 418.522 34.1808 422.01 40.113C425.498 45.951 427.242 52.9661 427.242 61.1582C427.242 62.0057 427.195 62.9944 427.101 64.1243C427.093 64.2126 427.085 64.3005 427.077 64.3882C426.936 65.9228 425.645 67.0904 424.104 67.0904H368.02C366.364 67.0904 365.02 65.7473 365.02 64.0904V57.2373C365.02 55.5804 366.364 54.2373 368.02 54.2373H408.235C409.85 54.2373 410.322 56.4397 408.849 57.1016C407.858 57.5471 406.734 56.8204 406.641 55.7376C406.384 52.7405 405.615 50.0747 404.333 47.7401C402.731 44.8211 400.515 42.5612 397.687 40.9605C394.859 39.2655 391.559 38.4181 387.788 38.4181C384.017 38.4181 380.67 39.2655 377.748 40.9605C374.919 42.5612 372.704 44.8682 371.101 47.8814C369.499 50.8004 368.697 54.2844 368.697 58.3333V61.7232C368.697 65.8663 369.593 69.5386 371.384 72.7401C373.27 75.8475 375.862 78.2486 379.162 79.9435C382.556 81.5443 386.515 82.3446 391.041 82.3446C395.094 82.3446 398.63 81.7326 401.647 80.5085C403.844 79.644 405.9 78.4743 407.814 76.9994C409.146 75.9738 411.068 76.0146 412.208 77.2495L420.032 85.7227C421.075 86.8528 421.105 88.6005 419.996 89.6664C416.852 92.6893 413.092 95.0981 408.717 96.8927C403.438 98.9642 397.357 100 390.475 100Z" fill="black"/>
<path d="M473.04 100C464.084 100 457.108 97.7401 452.111 93.2203C447.115 88.6064 444.616 81.7797 444.616 72.7401V9.07345C444.616 7.41659 445.96 6.07345 447.616 6.07345H463.677C465.334 6.07345 466.677 7.4166 466.677 9.07345V72.4576C466.677 75.6591 467.525 78.1544 469.222 79.9435C470.919 81.6384 473.229 82.4859 476.152 82.4859C478.114 82.4859 479.912 82.1879 481.546 81.592C483.432 80.9041 485.781 81.5461 486.498 83.4215L490.168 93.0225C490.658 94.3024 490.226 95.7697 489.027 96.4326C487.199 97.4431 485.122 98.2556 482.798 98.8701C479.687 99.6234 476.434 100 473.04 100ZM435.879 41.5254C434.222 41.5254 432.879 40.1823 432.879 38.5254V27.5763C432.879 25.9194 434.222 24.5763 435.879 24.5763H482.626C484.283 24.5763 485.626 25.9194 485.626 27.5763V38.5254C485.626 40.1823 484.283 41.5254 482.626 41.5254H435.879Z" fill="black"/>
<path fill-rule="evenodd" clip-rule="evenodd" d="M42.8465 22.6378H98.08C98.7521 22.6378 99.0881 22.6378 99.3448 22.507C99.5706 22.392 99.7542 22.2084 99.8692 21.9826C100 21.7259 100 21.3899 100 20.7178V1.92C100 1.24794 100 0.911906 99.8692 0.655211C99.7542 0.429417 99.5706 0.24584 99.3448 0.130792C99.0881 0 98.7521 0 98.08 0H44.7665C44.0944 0 43.7584 0 43.5017 0.130792C43.2759 0.24584 43.0923 0.429417 42.9773 0.655211C42.8465 0.911906 42.8465 1.24794 42.8465 1.92V22.6378L24.7019 4.46493C23.6737 3.43504 23.1595 2.9201 22.718 2.88511C22.335 2.85475 21.9606 3.00967 21.7109 3.30181C21.4232 3.6385 21.4232 4.36617 21.4232 5.82151V27.4606L3.2787 9.28776C2.25042 8.25787 1.73628 7.74293 1.2948 7.70794C0.911747 7.67759 0.537319 7.83251 0.287695 8.12464C0 8.46133 0 9.189 0 10.6443V31.4891C0 31.7822 0 31.9288 0.0330906 32.0668C0.0624287 32.1891 0.110819 32.3061 0.176489 32.4134C0.250559 32.5344 0.354138 32.6382 0.561296 32.8456L21.4232 53.7402V98.08C21.4232 98.7521 21.4232 99.0881 21.554 99.3448C21.6691 99.5706 21.8527 99.7542 22.0784 99.8692C22.3351 100 22.6712 100 23.3432 100H42.2623C42.9344 100 43.2704 100 43.5271 99.8692C43.7529 99.7542 43.9365 99.5706 44.0516 99.3448C44.1823 99.0881 44.1823 98.7521 44.1823 98.08V78.298C44.1823 77.6259 44.1823 77.2899 44.3131 77.0332C44.4282 76.8074 44.6118 76.6238 44.8376 76.5088C45.0943 76.378 45.4303 76.378 46.1023 76.378H98.08C98.7521 76.378 99.0881 76.378 99.3448 76.2472C99.5706 76.1321 99.7542 75.9485 99.8692 75.7227C100 75.466 100 75.13 100 74.458V55.6602C100 54.9881 100 54.6521 99.8692 54.3954C99.7542 54.1696 99.5706 53.986 99.3448 53.871C99.0881 53.7402 98.7521 53.7402 98.08 53.7402H21.4232L21.4232 27.4606L39.5678 45.6335C40.5961 46.6634 41.1102 47.1783 41.5517 47.2133C41.9347 47.2437 42.3092 47.0888 42.5588 46.7966C42.8465 46.4599 42.8465 45.7323 42.8465 44.2769V22.6378Z" fill="black"/>
</svg>
