<svg width="266" height="100" viewBox="0 0 266 100" fill="none" xmlns="http://www.w3.org/2000/svg">
<path fill-rule="evenodd" clip-rule="evenodd" d="M42.8727 22.6378H98.14C98.8124 22.6378 99.1487 22.6378 99.4055 22.507C99.6315 22.392 99.8151 22.2084 99.9303 21.9826C100.061 21.7259 100.061 21.3899 100.061 20.7178V1.92C100.061 1.24794 100.061 0.911905 99.9303 0.655211C99.8151 0.429417 99.6315 0.24584 99.4055 0.130792C99.1487 0 98.8124 0 98.14 0H44.7938C44.1214 0 43.7851 0 43.5283 0.130792C43.3024 0.24584 43.1187 0.429417 43.0035 0.655211C42.8727 0.911905 42.8727 1.24794 42.8727 1.92V22.6378L24.717 4.46493C23.6881 3.43504 23.1737 2.9201 22.7319 2.88511C22.3486 2.85475 21.974 3.00967 21.7242 3.30181C21.4363 3.6385 21.4363 4.36617 21.4363 5.82151V27.4606L3.28071 9.28776C2.2518 8.25787 1.73734 7.74293 1.2956 7.70794C0.912305 7.67759 0.537648 7.83251 0.287871 8.12464C0 8.46133 0 9.189 0 10.6443V31.4891C0 31.7822 0 31.9288 0.0331108 32.0668C0.0624668 32.1891 0.110887 32.3061 0.176597 32.4134C0.250712 32.5344 0.354355 32.6382 0.561639 32.8456L21.4363 53.7402V98.08C21.4363 98.7521 21.4363 99.0881 21.5672 99.3448C21.6823 99.5706 21.866 99.7542 22.0919 99.8692C22.3488 100 22.685 100 23.3575 100H42.2882C42.9607 100 43.2969 100 43.5537 99.8692C43.7797 99.7542 43.9634 99.5706 44.0785 99.3448C44.2094 99.0881 44.2094 98.7521 44.2094 98.08V78.298C44.2094 77.6259 44.2094 77.2899 44.3402 77.0332C44.4553 76.8074 44.639 76.6238 44.865 76.5088C45.1218 76.378 45.4581 76.378 46.1305 76.378H98.14C98.8124 76.378 99.1487 76.378 99.4055 76.2472C99.6315 76.1321 99.8151 75.9485 99.9303 75.7227C100.061 75.466 100.061 75.13 100.061 74.458V55.6602C100.061 54.9881 100.061 54.6521 99.9303 54.3954C99.8151 54.1696 99.6315 53.986 99.4055 53.871C99.1487 53.7402 98.8124 53.7402 98.14 53.7402H21.4363L21.4363 27.4606L39.592 45.6335C40.6209 46.6634 41.1353 47.1783 41.5771 47.2133C41.9604 47.2437 42.335 47.0888 42.5848 46.7966C42.8727 46.4599 42.8727 45.7323 42.8727 44.2769V22.6378Z" fill="currentColor"/>
<path d="M160.598 85C154.328 85 148.958 83.9667 144.488 81.9C140.086 79.7667 136.65 76.7 134.182 72.7C131.781 68.6333 130.48 63.7333 130.28 58C130.213 55.1333 130.18 52.0667 130.18 48.8C130.18 45.5333 130.213 42.4333 130.28 39.5C130.48 33.9 131.781 29.1333 134.182 25.2C136.65 21.2667 140.119 18.2667 144.588 16.2C149.124 14.0667 154.461 13 160.598 13C165.534 13 169.87 13.6333 173.606 14.9C177.342 16.1667 180.477 17.8333 183.012 19.9C185.547 21.9 187.481 24.1 188.815 26.5C190.149 28.9 190.85 31.2 190.917 33.4C190.917 34 190.717 34.5333 190.316 35C189.916 35.4 189.382 35.6 188.715 35.6H176.308C175.641 35.6 175.107 35.4667 174.707 35.2C174.373 34.9333 174.073 34.5333 173.806 34C173.339 32.8 172.572 31.6 171.505 30.4C170.504 29.1333 169.137 28.0667 167.402 27.2C165.668 26.3333 163.4 25.9 160.598 25.9C156.396 25.9 153.06 27 150.592 29.2C148.191 31.4 146.89 35 146.69 40C146.49 45.7333 146.49 51.5667 146.69 57.5C146.89 62.7 148.224 66.4333 150.692 68.7C153.227 70.9667 156.596 72.1 160.798 72.1C163.533 72.1 165.968 71.6333 168.103 70.7C170.304 69.7 172.038 68.1667 173.306 66.1C174.573 64.0333 175.207 61.4 175.207 58.2V55.7H164.3C163.633 55.7 163.066 55.4667 162.599 55C162.132 54.4667 161.899 53.8667 161.899 53.2V46.8C161.899 46.0667 162.132 45.4667 162.599 45C163.066 44.5333 163.633 44.3 164.3 44.3H188.815C189.549 44.3 190.149 44.5333 190.616 45C191.083 45.4667 191.317 46.0667 191.317 46.8V57.7C191.317 63.4333 190.049 68.3333 187.515 72.4C185.046 76.4667 181.478 79.6 176.808 81.8C172.205 83.9333 166.802 85 160.598 85Z" fill="currentColor"/>
<path d="M204.821 84C204.154 84 203.587 83.7667 203.12 83.3C202.653 82.8333 202.42 82.2333 202.42 81.5V34.5C202.42 33.7667 202.653 33.1667 203.12 32.7C203.587 32.2333 204.154 32 204.821 32H214.827C215.561 32 216.161 32.2333 216.628 32.7C217.095 33.1667 217.329 33.7667 217.329 34.5V81.5C217.329 82.2333 217.095 82.8333 216.628 83.3C216.161 83.7667 215.561 84 214.827 84H204.821ZM204.521 24C203.854 24 203.287 23.7667 202.82 23.3C202.353 22.8333 202.12 22.2333 202.12 21.5V13.5C202.12 12.7667 202.353 12.1667 202.82 11.7C203.287 11.1667 203.854 10.9 204.521 10.9H215.027C215.761 10.9 216.362 11.1667 216.829 11.7C217.362 12.1667 217.629 12.7667 217.629 13.5V21.5C217.629 22.2333 217.362 22.8333 216.829 23.3C216.362 23.7667 215.761 24 215.027 24H204.521Z" fill="currentColor"/>
<path d="M254.893 84C250.757 84 247.222 83.3333 244.287 82C241.352 80.6 239.117 78.4667 237.583 75.6C236.115 72.7333 235.381 69.1333 235.381 64.8V43.8H227.577C226.843 43.8 226.242 43.5667 225.775 43.1C225.308 42.6333 225.075 42.0333 225.075 41.3V34.5C225.075 33.7667 225.308 33.1667 225.775 32.7C226.242 32.2333 226.843 32 227.577 32H235.381V15.5C235.381 14.7667 235.615 14.1667 236.082 13.7C236.615 13.2333 237.216 13 237.883 13H247.689C248.423 13 249.023 13.2333 249.49 13.7C249.957 14.1667 250.19 14.7667 250.19 15.5V32H262.698C263.365 32 263.932 32.2333 264.399 32.7C264.866 33.1667 265.099 33.7667 265.099 34.5V41.3C265.099 42.0333 264.866 42.6333 264.399 43.1C263.932 43.5667 263.365 43.8 262.698 43.8H250.19V63.6C250.19 66.1333 250.624 68.1333 251.491 69.6C252.425 71 254.026 71.7 256.294 71.7H263.599C264.266 71.7 264.833 71.9333 265.3 72.4C265.767 72.8667 266 73.4333 266 74.1V81.5C266 82.2333 265.767 82.8333 265.3 83.3C264.833 83.7667 264.266 84 263.599 84H254.893Z" fill="currentColor"/>
</svg>
