<svg width="434" height="100" viewBox="0 0 434 100" fill="none" xmlns="http://www.w3.org/2000/svg">
<path fill-rule="evenodd" clip-rule="evenodd" d="M42.8465 22.6378H98.08C98.7521 22.6378 99.0881 22.6378 99.3448 22.507C99.5706 22.392 99.7542 22.2084 99.8692 21.9826C100 21.7259 100 21.3899 100 20.7178V1.92C100 1.24794 100 0.911906 99.8692 0.655211C99.7542 0.429417 99.5706 0.24584 99.3448 0.130792C99.0881 0 98.7521 0 98.08 0H44.7665C44.0944 0 43.7584 0 43.5017 0.130792C43.2759 0.24584 43.0923 0.429417 42.9773 0.655211C42.8465 0.911906 42.8465 1.24794 42.8465 1.92V22.6378L24.7019 4.46493C23.6737 3.43504 23.1595 2.9201 22.718 2.88511C22.335 2.85475 21.9606 3.00967 21.7109 3.30181C21.4232 3.6385 21.4232 4.36617 21.4232 5.82151V27.4606L3.2787 9.28776C2.25042 8.25787 1.73628 7.74293 1.2948 7.70794C0.911747 7.67759 0.537319 7.83251 0.287695 8.12464C0 8.46133 0 9.189 0 10.6443V31.4891C0 31.7822 0 31.9288 0.0330906 32.0668C0.0624287 32.1891 0.110819 32.3061 0.176489 32.4134C0.250559 32.5344 0.354138 32.6382 0.561296 32.8456L21.4232 53.7402V98.08C21.4232 98.7521 21.4232 99.0881 21.554 99.3448C21.6691 99.5706 21.8527 99.7542 22.0784 99.8692C22.3351 100 22.6712 100 23.3432 100H42.2623C42.9344 100 43.2704 100 43.5271 99.8692C43.7529 99.7542 43.9365 99.5706 44.0516 99.3448C44.1823 99.0881 44.1823 98.7521 44.1823 98.08V78.298C44.1823 77.6259 44.1823 77.2899 44.3131 77.0332C44.4282 76.8074 44.6118 76.6238 44.8376 76.5088C45.0943 76.378 45.4303 76.378 46.1023 76.378H98.08C98.7521 76.378 99.0881 76.378 99.3448 76.2472C99.5706 76.1321 99.7542 75.9485 99.8692 75.7227C100 75.466 100 75.13 100 74.458V55.6602C100 54.9881 100 54.6521 99.8692 54.3954C99.7542 54.1696 99.5706 53.986 99.3448 53.871C99.0881 53.7402 98.7521 53.7402 98.08 53.7402H21.4232L21.4232 27.4606L39.5678 45.6335C40.5961 46.6634 41.1102 47.1783 41.5517 47.2133C41.9347 47.2437 42.3092 47.0888 42.5588 46.7966C42.8465 46.4599 42.8465 45.7323 42.8465 44.2769V22.6378Z" fill="black"/>
<path d="M134.9 84C134.167 84 133.567 83.7667 133.1 83.3C132.633 82.8333 132.4 82.2333 132.4 81.5V16.5C132.4 15.7667 132.633 15.1667 133.1 14.7C133.567 14.2333 134.167 14 134.9 14H179.5C180.233 14 180.833 14.2333 181.3 14.7C181.767 15.1667 182 15.7667 182 16.5V25C182 25.7333 181.767 26.3333 181.3 26.8C180.833 27.2667 180.233 27.5 179.5 27.5H148V44.4H177.5C178.233 44.4 178.833 44.6333 179.3 45.1C179.767 45.5667 180 46.1667 180 46.9V55.4C180 56.0667 179.767 56.6333 179.3 57.1C178.833 57.5667 178.233 57.8 177.5 57.8H148V81.5C148 82.2333 147.767 82.8333 147.3 83.3C146.833 83.7667 146.233 84 145.5 84H134.9ZM215.061 85C209.528 85 204.894 84.1 201.161 82.3C197.428 80.4333 194.561 77.8 192.561 74.4C190.628 71 189.561 67.0333 189.361 62.5C189.294 61.1667 189.261 59.6667 189.261 58C189.261 56.2667 189.294 54.7667 189.361 53.5C189.561 48.9 190.694 44.9333 192.761 41.6C194.828 38.2 197.728 35.6 201.461 33.8C205.194 31.9333 209.728 31 215.061 31C220.328 31 224.828 31.9333 228.561 33.8C232.294 35.6 235.194 38.2 237.261 41.6C239.328 44.9333 240.461 48.9 240.661 53.5C240.794 54.7667 240.861 56.2667 240.861 58C240.861 59.6667 240.794 61.1667 240.661 62.5C240.461 67.0333 239.361 71 237.361 74.4C235.428 77.8 232.594 80.4333 228.861 82.3C225.128 84.1 220.528 85 215.061 85ZM215.061 74C218.328 74 220.794 73 222.461 71C224.128 68.9333 225.028 65.9333 225.161 62C225.228 61 225.261 59.6667 225.261 58C225.261 56.3333 225.228 55 225.161 54C225.028 50.1333 224.128 47.1667 222.461 45.1C220.794 43.0333 218.328 42 215.061 42C211.794 42 209.294 43.0333 207.561 45.1C205.894 47.1667 204.994 50.1333 204.861 54C204.794 55 204.761 56.3333 204.761 58C204.761 59.6667 204.794 61 204.861 62C204.994 65.9333 205.894 68.9333 207.561 71C209.294 73 211.794 74 215.061 74ZM253.72 84C253.053 84 252.486 83.7667 252.02 83.3C251.553 82.8333 251.32 82.2333 251.32 81.5V34.5C251.32 33.8333 251.553 33.2667 252.02 32.8C252.486 32.2667 253.053 32 253.72 32H263.52C264.186 32 264.753 32.2667 265.22 32.8C265.753 33.2667 266.02 33.8333 266.02 34.5V38.5C267.686 36.4333 269.72 34.8333 272.12 33.7C274.586 32.5667 277.42 32 280.62 32H284.92C285.586 32 286.153 32.2333 286.62 32.7C287.086 33.1667 287.32 33.7667 287.32 34.5V43.1C287.32 43.8333 287.086 44.4333 286.62 44.9C286.153 45.3667 285.586 45.6 284.92 45.6H276.12C273.186 45.6 270.886 46.4333 269.22 48.1C267.553 49.7 266.72 52 266.72 55V81.5C266.72 82.2333 266.486 82.8333 266.02 83.3C265.553 83.7667 264.953 84 264.22 84H253.72ZM297.177 84C296.51 84 295.943 83.7667 295.477 83.3C295.01 82.8333 294.777 82.2333 294.777 81.5V34.5C294.777 33.7667 295.01 33.1667 295.477 32.7C295.943 32.2333 296.51 32 297.177 32H306.477C307.143 32 307.71 32.2333 308.177 32.7C308.71 33.1667 308.977 33.7667 308.977 34.5V37.9C310.31 36.0333 312.143 34.4333 314.477 33.1C316.877 31.7667 319.71 31.0667 322.977 31C330.71 30.8667 336.01 33.8 338.877 39.8C340.41 37.2 342.61 35.1 345.477 33.5C348.41 31.8333 351.61 31 355.077 31C358.543 31 361.677 31.8 364.477 33.4C367.277 34.9333 369.477 37.3333 371.077 40.6C372.743 43.8 373.577 47.9333 373.577 53V81.5C373.577 82.2333 373.343 82.8333 372.877 83.3C372.41 83.7667 371.843 84 371.177 84H361.277C360.61 84 360.043 83.7667 359.577 83.3C359.11 82.8333 358.877 82.2333 358.877 81.5V53.8C358.877 51.0667 358.477 48.9333 357.677 47.4C356.877 45.8 355.81 44.6667 354.477 44C353.21 43.3333 351.777 43 350.177 43C348.777 43 347.41 43.3333 346.077 44C344.81 44.6667 343.743 45.8 342.877 47.4C342.077 48.9333 341.677 51.0667 341.677 53.8V81.5C341.677 82.2333 341.443 82.8333 340.977 83.3C340.51 83.7667 339.91 84 339.177 84H329.377C328.643 84 328.043 83.7667 327.577 83.3C327.11 82.8333 326.877 82.2333 326.877 81.5V53.8C326.877 51.0667 326.477 48.9333 325.677 47.4C324.877 45.8 323.81 44.6667 322.477 44C321.21 43.3333 319.81 43 318.277 43C316.877 43 315.51 43.3667 314.177 44.1C312.843 44.7667 311.743 45.8667 310.877 47.4C310.077 48.9333 309.677 51.0333 309.677 53.7V81.5C309.677 82.2333 309.443 82.8333 308.977 83.3C308.51 83.7667 307.943 84 307.277 84H297.177ZM406.195 85C402.061 85 398.495 84.5333 395.495 83.6C392.561 82.6 390.161 81.4 388.295 80C386.495 78.6 385.128 77.2 384.195 75.8C383.328 74.3333 382.861 73.1 382.795 72.1C382.728 71.3667 382.961 70.7667 383.495 70.3C384.028 69.8333 384.561 69.6 385.095 69.6H394.795C394.995 69.6 395.195 69.6333 395.395 69.7C395.595 69.7667 395.795 69.9333 395.995 70.2C396.861 70.8 397.761 71.5 398.695 72.3C399.628 73.0333 400.695 73.6667 401.895 74.2C403.161 74.7333 404.728 75 406.595 75C408.795 75 410.661 74.5667 412.195 73.7C413.728 72.7667 414.495 71.4667 414.495 69.8C414.495 68.6 414.128 67.6 413.395 66.8C412.728 66 411.428 65.2667 409.495 64.6C407.561 63.9333 404.695 63.2 400.895 62.4C397.295 61.6 394.228 60.5333 391.695 59.2C389.161 57.8667 387.261 56.2 385.995 54.2C384.728 52.1333 384.095 49.6667 384.095 46.8C384.095 44.2 384.895 41.7 386.495 39.3C388.161 36.9 390.595 34.9333 393.795 33.4C396.995 31.8 400.995 31 405.795 31C409.461 31 412.661 31.4667 415.395 32.4C418.195 33.2667 420.528 34.4 422.395 35.8C424.261 37.1333 425.661 38.5333 426.595 40C427.595 41.4 428.128 42.6333 428.195 43.7C428.261 44.3667 428.061 44.9333 427.595 45.4C427.128 45.8667 426.595 46.1 425.995 46.1H417.095C416.761 46.1 416.461 46.0667 416.195 46C415.928 45.8667 415.695 45.7 415.495 45.5C414.695 44.9667 413.861 44.3667 412.995 43.7C412.195 42.9667 411.228 42.3333 410.095 41.8C408.961 41.2667 407.495 41 405.695 41C403.495 41 401.795 41.5 400.595 42.5C399.461 43.4333 398.895 44.6333 398.895 46.1C398.895 47.0333 399.195 47.9 399.795 48.7C400.395 49.5 401.628 50.2333 403.495 50.9C405.361 51.5667 408.195 52.2667 411.995 53C416.528 53.8 420.128 55 422.795 56.6C425.461 58.2 427.361 60.0667 428.495 62.2C429.695 64.2667 430.295 66.5 430.295 68.9C430.295 72.0333 429.361 74.8333 427.495 77.3C425.628 79.7 422.895 81.6 419.295 83C415.761 84.3333 411.395 85 406.195 85Z" fill="black"/>
</svg>
