<svg width="274" height="100" viewBox="0 0 274 100" fill="none" xmlns="http://www.w3.org/2000/svg">
<path fill-rule="evenodd" clip-rule="evenodd" d="M42.9179 22.6378H98.2436C98.9168 22.6378 99.2534 22.6378 99.5105 22.507C99.7367 22.392 99.9205 22.2084 100.036 21.9826C100.167 21.7259 100.167 21.3899 100.167 20.7178V1.92C100.167 1.24794 100.167 0.911905 100.036 0.655211C99.9205 0.429417 99.7367 0.24584 99.5105 0.130792C99.2534 0 98.9168 0 98.2436 0H44.8411C44.168 0 43.8314 0 43.5742 0.130792C43.3481 0.24584 43.1642 0.429417 43.049 0.655211C42.9179 0.911905 42.9179 1.24794 42.9179 1.92V22.6378L24.7431 4.46493C23.7131 3.43504 23.1982 2.9201 22.7559 2.88511C22.3722 2.85475 21.9972 3.00967 21.7471 3.30181C21.459 3.6385 21.459 4.36617 21.459 5.82151V27.4606L3.28417 9.28776C2.25418 8.25787 1.73918 7.74293 1.29696 7.70794C0.913268 7.67759 0.538215 7.83251 0.288175 8.12464C0 8.46133 0 9.189 0 10.6443V31.4891C0 31.7822 0 31.9288 0.0331457 32.0668C0.0625328 32.1891 0.111004 32.3061 0.176784 32.4134C0.250977 32.5344 0.354729 32.6382 0.562232 32.8456L21.459 53.7402V98.08C21.459 98.7521 21.459 99.0881 21.59 99.3448C21.7052 99.5706 21.8891 99.7542 22.1153 99.8692C22.3724 100 22.709 100 23.3822 100H42.3328C43.006 100 43.3426 100 43.5997 99.8692C43.8259 99.7542 44.0098 99.5706 44.125 99.3448C44.256 99.0881 44.256 98.7521 44.256 98.08V78.298C44.256 77.6259 44.256 77.2899 44.387 77.0332C44.5023 76.8074 44.6862 76.6238 44.9123 76.5088C45.1695 76.378 45.5061 76.378 46.1792 76.378H98.2436C98.9168 76.378 99.2534 76.378 99.5105 76.2472C99.7367 76.1321 99.9205 75.9485 100.036 75.7227C100.167 75.466 100.167 75.13 100.167 74.458V55.6602C100.167 54.9881 100.167 54.6521 100.036 54.3954C99.9205 54.1696 99.7367 53.986 99.5105 53.871C99.2534 53.7402 98.9168 53.7402 98.2436 53.7402H21.459L21.459 27.4606L39.6338 45.6335C40.6638 46.6634 41.1788 47.1783 41.621 47.2133C42.0047 47.2437 42.3797 47.0888 42.6298 46.7966C42.9179 46.4599 42.9179 45.7323 42.9179 44.2769V22.6378Z" fill="currentColor"/>
<path d="M160.467 85C154.19 85 148.848 83.9667 144.441 81.9C140.1 79.7667 136.728 76.7 134.324 72.7C131.92 68.6333 130.584 63.7 130.317 57.9C130.25 55.1667 130.217 52.2333 130.217 49.1C130.217 45.9667 130.25 42.9667 130.317 40.1C130.584 34.3667 131.92 29.5 134.324 25.5C136.794 21.4333 140.233 18.3333 144.641 16.2C149.048 14.0667 154.324 13 160.467 13C164.941 13 169.015 13.5667 172.688 14.7C176.36 15.8333 179.532 17.4667 182.203 19.6C184.874 21.7333 186.945 24.2333 188.414 27.1C189.883 29.9667 190.684 33.1667 190.818 36.7C190.818 37.3 190.584 37.8 190.117 38.2C189.716 38.6 189.215 38.8 188.614 38.8H177.195C176.394 38.8 175.759 38.6 175.292 38.2C174.824 37.8 174.457 37.1333 174.19 36.2C173.188 32.2667 171.519 29.5667 169.182 28.1C166.844 26.6333 163.94 25.9 160.467 25.9C156.327 25.9 153.055 27.0333 150.651 29.3C148.247 31.5667 146.945 35.3333 146.744 40.6C146.544 46.0667 146.544 51.6667 146.744 57.4C146.945 62.6667 148.247 66.4333 150.651 68.7C153.055 70.9667 156.327 72.1 160.467 72.1C163.94 72.1 166.844 71.3667 169.182 69.9C171.586 68.3667 173.255 65.6667 174.19 61.8C174.457 60.8 174.824 60.1333 175.292 59.8C175.759 59.4 176.394 59.2 177.195 59.2H188.614C189.215 59.2 189.716 59.4 190.117 59.8C190.584 60.2 190.818 60.7 190.818 61.3C190.684 64.8333 189.883 68.0333 188.414 70.9C186.945 73.7667 184.874 76.2667 182.203 78.4C179.532 80.5333 176.36 82.1667 172.688 83.3C169.015 84.4333 164.941 85 160.467 85Z" fill="currentColor"/>
<path d="M216.296 85C212.757 85 209.585 84.3333 206.78 83C203.976 81.6 201.739 79.7333 200.069 77.4C198.4 75.0667 197.565 72.4667 197.565 69.6C197.565 64.8667 199.468 61.1333 203.274 58.4C207.148 55.6667 212.223 53.8 218.5 52.8L231.622 50.9V49.1C231.622 46.5 231.021 44.5 229.819 43.1C228.617 41.7 226.513 41 223.508 41C221.304 41 219.535 41.4333 218.199 42.3C216.864 43.1667 215.829 44.3 215.094 45.7C214.56 46.5667 213.792 47 212.79 47H203.274C202.54 47 201.972 46.8 201.572 46.4C201.171 45.9333 201.004 45.4 201.071 44.8C201.071 43.6667 201.505 42.3333 202.373 40.8C203.241 39.2667 204.577 37.7667 206.38 36.3C208.183 34.7667 210.486 33.5 213.291 32.5C216.096 31.5 219.535 31 223.608 31C227.815 31 231.421 31.5 234.426 32.5C237.431 33.5 239.835 34.9 241.638 36.7C243.441 38.5 244.777 40.6 245.645 43C246.513 45.3333 246.947 47.8667 246.947 50.6V81.5C246.947 82.2333 246.713 82.8333 246.246 83.3C245.779 83.7667 245.178 84 244.443 84H234.627C233.959 84 233.391 83.7667 232.924 83.3C232.456 82.8333 232.223 82.2333 232.223 81.5V77.8C231.354 79.0667 230.186 80.2667 228.717 81.4C227.248 82.4667 225.478 83.3333 223.408 84C221.405 84.6667 219.034 85 216.296 85ZM220.303 74.6C222.506 74.6 224.476 74.1333 226.213 73.2C227.949 72.2667 229.318 70.8333 230.319 68.9C231.321 66.9667 231.822 64.5333 231.822 61.6V59.9L222.506 61.4C218.9 62 216.263 62.9 214.593 64.1C212.924 65.3 212.089 66.7667 212.089 68.5C212.089 69.7667 212.456 70.8667 213.191 71.8C213.992 72.7333 215.027 73.4333 216.296 73.9C217.565 74.3667 218.9 74.6 220.303 74.6Z" fill="currentColor"/>
<path d="M261.579 84C260.845 84 260.244 83.7667 259.776 83.3C259.309 82.8333 259.075 82.2333 259.075 81.5V15.5C259.075 14.7667 259.309 14.1667 259.776 13.7C260.244 13.2333 260.845 13 261.579 13H271.596C272.264 13 272.831 13.2333 273.299 13.7C273.766 14.1667 274 14.7667 274 15.5V81.5C274 82.2333 273.766 82.8333 273.299 83.3C272.831 83.7667 272.264 84 271.596 84H261.579Z" fill="currentColor"/>
</svg>
