<svg width="269" height="100" viewBox="0 0 269 100" fill="none" xmlns="http://www.w3.org/2000/svg">
<path fill-rule="evenodd" clip-rule="evenodd" d="M42.8465 22.6378H98.08C98.7521 22.6378 99.0881 22.6378 99.3448 22.507C99.5706 22.392 99.7542 22.2084 99.8692 21.9826C100 21.7259 100 21.3899 100 20.7178V1.92C100 1.24794 100 0.911906 99.8692 0.655211C99.7542 0.429417 99.5706 0.24584 99.3448 0.130792C99.0881 0 98.7521 0 98.08 0H44.7665C44.0944 0 43.7584 0 43.5017 0.130792C43.2759 0.24584 43.0923 0.429417 42.9773 0.655211C42.8465 0.911906 42.8465 1.24794 42.8465 1.92V22.6378L24.7019 4.46493C23.6737 3.43504 23.1595 2.9201 22.718 2.88511C22.335 2.85475 21.9606 3.00967 21.7109 3.30181C21.4232 3.6385 21.4232 4.36617 21.4232 5.82151V27.4606L3.2787 9.28776C2.25042 8.25787 1.73628 7.74293 1.2948 7.70794C0.911747 7.67759 0.537319 7.83251 0.287695 8.12464C0 8.46133 0 9.189 0 10.6443V31.4891C0 31.7822 0 31.9288 0.0330906 32.0668C0.0624287 32.1891 0.110819 32.3061 0.176489 32.4134C0.250559 32.5344 0.354138 32.6382 0.561296 32.8456L21.4232 53.7402V98.08C21.4232 98.7521 21.4232 99.0881 21.554 99.3448C21.6691 99.5706 21.8527 99.7542 22.0784 99.8692C22.3351 100 22.6712 100 23.3432 100H42.2623C42.9344 100 43.2704 100 43.5271 99.8692C43.7529 99.7542 43.9365 99.5706 44.0516 99.3448C44.1823 99.0881 44.1823 98.7521 44.1823 98.08V78.298C44.1823 77.6259 44.1823 77.2899 44.3131 77.0332C44.4282 76.8074 44.6118 76.6238 44.8376 76.5088C45.0943 76.378 45.4303 76.378 46.1023 76.378H98.08C98.7521 76.378 99.0881 76.378 99.3448 76.2472C99.5706 76.1321 99.7542 75.9485 99.8692 75.7227C100 75.466 100 75.13 100 74.458V55.6602C100 54.9881 100 54.6521 99.8692 54.3954C99.7542 54.1696 99.5706 53.986 99.3448 53.871C99.0881 53.7402 98.7521 53.7402 98.08 53.7402H21.4232L21.4232 27.4606L39.5678 45.6335C40.5961 46.6634 41.1102 47.1783 41.5517 47.2133C41.9347 47.2437 42.3092 47.0888 42.5588 46.7966C42.8465 46.4599 42.8465 45.7323 42.8465 44.2769V22.6378Z" fill="black"/>
<path d="M160.5 85C154.233 85 148.867 83.9667 144.4 81.9C140 79.7667 136.567 76.7 134.1 72.7C131.7 68.6333 130.4 63.7333 130.2 58C130.133 55.1333 130.1 52.0667 130.1 48.8C130.1 45.5333 130.133 42.4333 130.2 39.5C130.4 33.9 131.7 29.1333 134.1 25.2C136.567 21.2667 140.033 18.2667 144.5 16.2C149.033 14.0667 154.367 13 160.5 13C165.433 13 169.767 13.6333 173.5 14.9C177.233 16.1667 180.367 17.8333 182.9 19.9C185.433 21.9 187.367 24.1 188.7 26.5C190.033 28.9 190.733 31.2 190.8 33.4C190.8 34 190.6 34.5333 190.2 35C189.8 35.4 189.267 35.6 188.6 35.6H176.2C175.533 35.6 175 35.4667 174.6 35.2C174.267 34.9333 173.967 34.5333 173.7 34C173.233 32.8 172.467 31.6 171.4 30.4C170.4 29.1333 169.033 28.0667 167.3 27.2C165.567 26.3333 163.3 25.9 160.5 25.9C156.3 25.9 152.967 27 150.5 29.2C148.1 31.4 146.8 35 146.6 40C146.4 45.7333 146.4 51.5667 146.6 57.5C146.8 62.7 148.133 66.4333 150.6 68.7C153.133 70.9667 156.5 72.1 160.7 72.1C163.433 72.1 165.867 71.6333 168 70.7C170.2 69.7 171.933 68.1667 173.2 66.1C174.467 64.0333 175.1 61.4 175.1 58.2V55.7H164.2C163.533 55.7 162.967 55.4667 162.5 55C162.033 54.4667 161.8 53.8667 161.8 53.2V46.8C161.8 46.0667 162.033 45.4667 162.5 45C162.967 44.5333 163.533 44.3 164.2 44.3H188.7C189.433 44.3 190.033 44.5333 190.5 45C190.967 45.4667 191.2 46.0667 191.2 46.8V57.7C191.2 63.4333 189.933 68.3333 187.4 72.4C184.933 76.4667 181.367 79.6 176.7 81.8C172.1 83.9333 166.7 85 160.5 85ZM204.696 84C204.029 84 203.463 83.7667 202.996 83.3C202.529 82.8333 202.296 82.2333 202.296 81.5V34.5C202.296 33.7667 202.529 33.1667 202.996 32.7C203.463 32.2333 204.029 32 204.696 32H214.696C215.429 32 216.029 32.2333 216.496 32.7C216.963 33.1667 217.196 33.7667 217.196 34.5V81.5C217.196 82.2333 216.963 82.8333 216.496 83.3C216.029 83.7667 215.429 84 214.696 84H204.696ZM204.396 24C203.729 24 203.163 23.7667 202.696 23.3C202.229 22.8333 201.996 22.2333 201.996 21.5V13.5C201.996 12.7667 202.229 12.1667 202.696 11.7C203.163 11.1667 203.729 10.9 204.396 10.9H214.896C215.629 10.9 216.229 11.1667 216.696 11.7C217.229 12.1667 217.496 12.7667 217.496 13.5V21.5C217.496 22.2333 217.229 22.8333 216.696 23.3C216.229 23.7667 215.629 24 214.896 24H204.396ZM254.738 84C250.604 84 247.071 83.3333 244.138 82C241.204 80.6 238.971 78.4667 237.438 75.6C235.971 72.7333 235.238 69.1333 235.238 64.8V43.8H227.438C226.704 43.8 226.104 43.5667 225.638 43.1C225.171 42.6333 224.938 42.0333 224.938 41.3V34.5C224.938 33.7667 225.171 33.1667 225.638 32.7C226.104 32.2333 226.704 32 227.438 32H235.238V15.5C235.238 14.7667 235.471 14.1667 235.938 13.7C236.471 13.2333 237.071 13 237.738 13H247.538C248.271 13 248.871 13.2333 249.338 13.7C249.804 14.1667 250.038 14.7667 250.038 15.5V32H262.538C263.204 32 263.771 32.2333 264.238 32.7C264.704 33.1667 264.938 33.7667 264.938 34.5V41.3C264.938 42.0333 264.704 42.6333 264.238 43.1C263.771 43.5667 263.204 43.8 262.538 43.8H250.038V63.6C250.038 66.1333 250.471 68.1333 251.338 69.6C252.271 71 253.871 71.7 256.138 71.7H263.438C264.104 71.7 264.671 71.9333 265.138 72.4C265.604 72.8667 265.838 73.4333 265.838 74.1V81.5C265.838 82.2333 265.604 82.8333 265.138 83.3C264.671 83.7667 264.104 84 263.438 84H254.738Z" fill="black"/>
</svg>
