<svg width="510" height="100" viewBox="0 0 510 100" fill="none" xmlns="http://www.w3.org/2000/svg">
<path fill-rule="evenodd" clip-rule="evenodd" d="M42.8465 22.6378H98.08C98.7521 22.6378 99.0881 22.6378 99.3448 22.507C99.5706 22.392 99.7542 22.2084 99.8692 21.9826C100 21.7259 100 21.3899 100 20.7178V1.92C100 1.24794 100 0.911906 99.8692 0.655211C99.7542 0.429417 99.5706 0.24584 99.3448 0.130792C99.0881 0 98.7521 0 98.08 0H44.7665C44.0944 0 43.7584 0 43.5017 0.130792C43.2759 0.24584 43.0923 0.429417 42.9773 0.655211C42.8465 0.911906 42.8465 1.24794 42.8465 1.92V22.6378L24.7019 4.46493C23.6737 3.43504 23.1595 2.9201 22.718 2.88511C22.335 2.85475 21.9606 3.00967 21.7109 3.30181C21.4232 3.6385 21.4232 4.36617 21.4232 5.82151V27.4606L3.2787 9.28776C2.25042 8.25787 1.73628 7.74293 1.2948 7.70794C0.911747 7.67759 0.537319 7.83251 0.287695 8.12464C0 8.46133 0 9.189 0 10.6443V31.4891C0 31.7822 0 31.9288 0.0330906 32.0668C0.0624287 32.1891 0.110819 32.3061 0.176489 32.4134C0.250559 32.5344 0.354138 32.6382 0.561296 32.8456L21.4232 53.7402V98.08C21.4232 98.7521 21.4232 99.0881 21.554 99.3448C21.6691 99.5706 21.8527 99.7542 22.0784 99.8692C22.3351 100 22.6712 100 23.3432 100H42.2623C42.9344 100 43.2704 100 43.5271 99.8692C43.7529 99.7542 43.9365 99.5706 44.0516 99.3448C44.1823 99.0881 44.1823 98.7521 44.1823 98.08V78.298C44.1823 77.6259 44.1823 77.2899 44.3131 77.0332C44.4282 76.8074 44.6118 76.6238 44.8376 76.5088C45.0943 76.378 45.4303 76.378 46.1023 76.378H98.08C98.7521 76.378 99.0881 76.378 99.3448 76.2472C99.5706 76.1321 99.7542 75.9485 99.8692 75.7227C100 75.466 100 75.13 100 74.458V55.6602C100 54.9881 100 54.6521 99.8692 54.3954C99.7542 54.1696 99.5706 53.986 99.3448 53.871C99.0881 53.7402 98.7521 53.7402 98.08 53.7402H21.4232L21.4232 27.4606L39.5678 45.6335C40.5961 46.6634 41.1102 47.1783 41.5517 47.2133C41.9347 47.2437 42.3092 47.0888 42.5588 46.7966C42.8465 46.4599 42.8465 45.7323 42.8465 44.2769V22.6378Z" fill="black"/>
<path d="M165.607 100C158.611 100 151.906 99.0822 145.492 97.2466C140.086 95.6287 135.567 93.6255 131.936 91.2368C130.773 90.472 130.404 88.9657 130.975 87.6967L135.372 77.9258C136.148 76.2009 138.308 75.6195 139.934 76.5851C142.963 78.3833 146.357 79.9305 150.115 81.2265C155.279 82.8953 160.485 83.7297 165.732 83.7297C169.73 83.7297 172.937 83.3542 175.353 82.6032C177.851 81.7689 179.684 80.6425 180.85 79.224C182.016 77.8056 182.599 76.1786 182.599 74.3429C182.599 72.0067 181.683 70.171 179.85 68.836C178.018 67.4176 175.603 66.2912 172.604 65.4568C169.605 64.539 166.274 63.7046 162.609 62.9537C159.027 62.1193 155.404 61.1181 151.739 59.9499C148.158 58.7818 144.868 57.2799 141.869 55.4443C138.871 53.6087 136.414 51.189 134.498 48.1852C132.665 45.1815 131.749 41.3433 131.749 36.6708C131.749 31.6646 133.082 27.1172 135.747 23.0288C138.496 18.8569 142.577 15.5611 147.991 13.1414C153.488 10.6383 160.36 9.38674 168.606 9.38674C174.103 9.38674 179.517 10.0542 184.848 11.3892C189.264 12.426 193.251 13.9208 196.809 15.8736C198.081 16.5713 198.569 18.1236 198.024 19.4675L194.01 29.3596C193.327 31.0429 191.319 31.7306 189.692 30.9226C186.62 29.3969 183.547 28.2258 180.475 27.4093C176.394 26.2411 172.396 25.6571 168.481 25.6571C164.566 25.6571 161.36 26.116 158.861 27.0338C156.362 27.9516 154.571 29.1615 153.488 30.6633C152.406 32.0818 151.864 33.7505 151.864 35.6696C151.864 37.9224 152.78 39.758 154.613 41.1765C156.445 42.5115 158.861 43.5962 161.859 44.4305C164.858 45.2649 168.148 46.0993 171.729 46.9337C175.394 47.768 179.017 48.7276 182.599 49.8123C186.264 50.8969 189.596 52.3571 192.594 54.1927C195.593 56.0284 198.008 58.4481 199.841 61.4518C201.756 64.4556 202.714 68.252 202.714 72.841C202.714 77.7639 201.34 82.2695 198.591 86.3579C195.843 90.4464 191.72 93.7422 186.222 96.2453C180.808 98.7484 173.937 100 165.607 100Z" fill="black"/>
<path d="M218.17 98.4981C216.513 98.4981 215.17 97.155 215.17 95.4981V8.63205C215.17 6.97519 216.513 5.63204 218.17 5.63204H231.66C233.317 5.63204 234.66 6.97519 234.66 8.63204V95.4981C234.66 97.155 233.317 98.4981 231.66 98.4981H218.17Z" fill="black"/>
<path d="M255.749 98.4981C254.092 98.4981 252.749 97.155 252.749 95.4981V34.1639C252.749 32.5071 254.092 31.164 255.749 31.164H269.239C270.896 31.164 272.239 32.5071 272.239 34.164V95.4981C272.239 97.155 270.896 98.4981 269.239 98.4981H255.749ZM262.494 21.7772C258.913 21.7772 255.997 20.7343 253.749 18.6483C251.5 16.5624 250.375 13.9758 250.375 10.8886C250.375 7.80142 251.5 5.21485 253.749 3.12892C255.997 1.04297 258.913 0 262.494 0C266.076 0 268.991 1.00125 271.24 3.00376C273.489 4.92283 274.613 7.42595 274.613 10.5131C274.613 13.7672 273.489 16.4789 271.24 18.6483C269.074 20.7343 266.159 21.7772 262.494 21.7772Z" fill="black"/>
<path d="M319.189 99.4994C312.859 99.4994 307.153 98.0809 302.072 95.244C296.992 92.3237 292.952 88.277 289.953 83.1039C287.038 77.9307 285.58 71.8398 285.58 64.831C285.58 57.7388 287.038 51.6062 289.953 46.433C292.952 41.2599 296.992 37.2549 302.072 34.418C307.153 31.5811 312.859 30.1627 319.189 30.1627C324.853 30.1627 329.809 31.4143 334.057 33.9174C338.304 36.4205 341.594 40.2169 343.927 45.3066C346.259 50.3963 347.425 56.9045 347.425 64.831C347.425 72.6742 346.301 79.1823 344.052 84.3554C341.803 89.4451 338.554 93.2415 334.306 95.7447C330.142 98.2478 325.103 99.4994 319.189 99.4994ZM322.562 83.4793C325.727 83.4793 328.601 82.7284 331.183 81.2265C333.765 79.7246 335.806 77.597 337.305 74.8435C338.887 72.0067 339.679 68.6692 339.679 64.831C339.679 60.9095 338.887 57.572 337.305 54.8185C335.806 52.0651 333.765 49.9374 331.183 48.4355C328.601 46.9337 325.727 46.1827 322.562 46.1827C319.314 46.1827 316.399 46.9337 313.817 48.4355C311.234 49.9374 309.152 52.0651 307.57 54.8185C306.07 57.572 305.321 60.9095 305.321 64.831C305.321 68.6692 306.07 72.0067 307.57 74.8435C309.152 77.597 311.234 79.7246 313.817 81.2265C316.399 82.7284 319.314 83.4793 322.562 83.4793ZM343.179 98.4981C341.522 98.4981 340.179 97.155 340.179 95.4981V84.7309L340.553 64.7059L339.304 44.806V8.63204C339.304 6.97519 340.647 5.63204 342.304 5.63204H355.794C357.451 5.63204 358.794 6.97519 358.794 8.63204V95.4981C358.794 97.155 357.451 98.4981 355.794 98.4981H343.179Z" fill="black"/>
<path d="M410.192 99.4994C402.529 99.4994 395.782 97.9975 389.952 94.9937C384.205 91.99 379.749 87.9015 376.583 82.7284C373.418 77.4718 371.836 71.506 371.836 64.831C371.836 58.0726 373.377 52.1068 376.458 46.9337C379.624 41.6771 383.913 37.5886 389.327 34.6683C394.741 31.6646 400.863 30.1627 407.693 30.1627C414.273 30.1627 420.187 31.5811 425.434 34.418C430.765 37.1715 434.971 41.1765 438.053 46.433C441.135 51.6062 442.676 57.8223 442.676 65.0813C442.676 65.8323 442.634 66.7084 442.551 67.7096C442.415 69.2022 441.16 70.3379 439.661 70.3379H390.703C389.046 70.3379 387.703 68.9948 387.703 67.3379V61.9487C387.703 60.2918 389.046 58.9487 390.703 58.9487H425.886C427.315 58.9487 427.734 60.8971 426.431 61.4843C425.553 61.88 424.556 61.2365 424.475 60.2772C424.248 57.6218 423.568 55.2599 422.436 53.1915C421.02 50.6049 419.062 48.6024 416.564 47.184C414.065 45.6821 411.15 44.9312 407.818 44.9312C404.486 44.9312 401.529 45.6821 398.947 47.184C396.449 48.6024 394.491 50.6466 393.075 53.3166C391.659 55.9032 390.951 58.9904 390.951 62.5782V65.582C390.951 69.2532 391.743 72.5073 393.325 75.3442C394.991 78.0976 397.282 80.2253 400.197 81.7271C403.195 83.1456 406.694 83.8548 410.692 83.8548C414.273 83.8548 417.397 83.3125 420.062 82.2278C421.893 81.5051 423.613 80.5418 425.223 79.3377C426.571 78.3287 428.497 78.3668 429.638 79.6059L436.1 86.6248C437.139 87.7539 437.17 89.4988 436.054 90.5524C433.321 93.1329 430.072 95.1975 426.309 96.7459C421.645 98.5816 416.272 99.4994 410.192 99.4994Z" fill="black"/>
<path d="M478.266 99.4994C472.518 99.4994 466.98 98.8319 461.649 97.4969C457.551 96.3892 454.113 95.0779 451.336 93.5631C450.045 92.8587 449.61 91.2597 450.228 89.9249L454.225 81.3017C454.983 79.666 457.001 79.0697 458.612 79.88C460.986 81.0746 463.623 82.1075 466.521 82.9787C470.769 84.1468 474.934 84.7309 479.015 84.7309C483.513 84.7309 486.678 84.1886 488.511 83.1039C490.426 82.0192 491.384 80.5173 491.384 78.5982C491.384 77.0129 490.635 75.8448 489.135 75.0939C487.719 74.2595 485.804 73.6337 483.388 73.2165C480.973 72.7993 478.307 72.3821 475.392 71.965C472.56 71.5478 469.687 71.0054 466.771 70.3379C463.856 69.587 461.191 68.5023 458.775 67.0839C456.36 65.6654 454.402 63.7463 452.903 61.3267C451.487 58.907 450.779 55.7781 450.779 51.9399C450.779 47.6846 451.987 43.9299 454.402 40.6758C456.901 37.4218 460.483 34.8769 465.147 33.0413C469.812 31.1222 475.392 30.1627 481.889 30.1627C486.47 30.1627 491.134 30.6633 495.882 31.6646C499.511 32.43 502.678 33.4636 505.383 34.7653C506.763 35.4298 507.259 37.0969 506.61 38.4848L502.654 46.9451C501.904 48.5491 499.939 49.1442 498.338 48.388C496.041 47.3029 493.723 46.5261 491.384 46.0576C488.136 45.3066 484.971 44.9312 481.889 44.9312C477.558 44.9312 474.393 45.5152 472.394 46.6833C470.395 47.8515 469.395 49.3534 469.395 51.189C469.395 52.8577 470.103 54.1093 471.519 54.9437C473.018 55.7781 474.976 56.4456 477.391 56.9462C479.807 57.4468 482.43 57.9057 485.262 58.3229C488.177 58.6567 491.093 59.199 494.008 59.9499C496.923 60.7009 499.547 61.7856 501.879 63.204C504.294 64.539 506.252 66.4164 507.751 68.836C509.25 71.1723 510 74.2595 510 78.0976C510 82.2695 508.751 85.9825 506.252 89.2365C503.753 92.4072 500.13 94.9103 495.382 96.7459C490.718 98.5816 485.012 99.4994 478.266 99.4994Z" fill="black"/>
</svg>
