<svg width="366" height="100" viewBox="0 0 366 100" fill="none" xmlns="http://www.w3.org/2000/svg">
<path fill-rule="evenodd" clip-rule="evenodd" d="M42.8312 22.6378H98.0451C98.7169 22.6378 99.0528 22.6378 99.3094 22.507C99.5351 22.392 99.7186 22.2084 99.8336 21.9826C99.9644 21.7259 99.9644 21.3899 99.9644 20.7178V1.92C99.9644 1.24794 99.9644 0.911905 99.8336 0.655211C99.7186 0.429417 99.5351 0.24584 99.3094 0.130792C99.0528 0 98.7169 0 98.0451 0H44.7505C44.0787 0 43.7428 0 43.4862 0.130792C43.2605 0.24584 43.077 0.429417 42.962 0.655211C42.8312 0.911905 42.8312 1.24794 42.8312 1.92V22.6378L24.6931 4.46493C23.6652 3.43504 23.1513 2.9201 22.71 2.88511C22.327 2.85475 21.9527 3.00967 21.7032 3.30181C21.4156 3.6385 21.4156 4.36617 21.4156 5.82151V27.4606L3.27754 9.28776C2.24962 8.25787 1.73566 7.74293 1.29434 7.70794C0.911422 7.67759 0.537128 7.83251 0.287593 8.12464C0 8.46133 0 9.189 0 10.6443V31.4891C0 31.7822 0 31.9288 0.0330788 32.0668C0.0624064 32.1891 0.11078 32.3061 0.176427 32.4134C0.25047 32.5344 0.354012 32.6382 0.561096 32.8456L21.4156 53.7402V98.08C21.4156 98.7521 21.4156 99.0881 21.5463 99.3448C21.6614 99.5706 21.8449 99.7542 22.0706 99.8692C22.3272 100 22.6631 100 23.3349 100H42.2473C42.9191 100 43.255 100 43.5116 99.8692C43.7373 99.7542 43.9209 99.5706 44.0359 99.3448C44.1666 99.0881 44.1666 98.7521 44.1666 98.08V78.298C44.1666 77.6259 44.1666 77.2899 44.2973 77.0332C44.4124 76.8074 44.5959 76.6238 44.8216 76.5088C45.0782 76.378 45.4141 76.378 46.0859 76.378H98.0451C98.7169 76.378 99.0528 76.378 99.3094 76.2472C99.5351 76.1321 99.7186 75.9485 99.8336 75.7227C99.9644 75.466 99.9644 75.13 99.9644 74.458V55.6602C99.9644 54.9881 99.9644 54.6521 99.8336 54.3954C99.7186 54.1696 99.5351 53.986 99.3094 53.871C99.0528 53.7402 98.7169 53.7402 98.0451 53.7402H21.4156L21.4156 27.4606L39.5537 45.6335C40.5816 46.6634 41.0956 47.1783 41.5369 47.2133C41.9198 47.2437 42.2941 47.0888 42.5436 46.7966C42.8312 46.4599 42.8312 45.7323 42.8312 44.2769V22.6378Z" fill="currentColor"/>
<path d="M134.852 84C134.185 84 133.586 83.7667 133.053 83.3C132.586 82.8333 132.353 82.2333 132.353 81.5V16.5C132.353 15.7667 132.586 15.1667 133.053 14.7C133.586 14.2333 134.185 14 134.852 14H144.149C145.148 14 145.881 14.2667 146.348 14.8C146.881 15.3333 147.248 15.7333 147.447 16L165.841 49.9L184.434 16C184.568 15.7333 184.867 15.3333 185.334 14.8C185.867 14.2667 186.633 14 187.633 14H196.93C197.663 14 198.263 14.2333 198.729 14.7C199.196 15.1667 199.429 15.7667 199.429 16.5V81.5C199.429 82.2333 199.196 82.8333 198.729 83.3C198.263 83.7667 197.663 84 196.93 84H186.733C186.067 84 185.501 83.7667 185.034 83.3C184.568 82.8333 184.334 82.2333 184.334 81.5V41.1L171.639 64.9C171.306 65.5 170.872 66.0333 170.339 66.5C169.806 66.9667 169.106 67.2 168.24 67.2H163.542C162.675 67.2 161.976 66.9667 161.442 66.5C160.909 66.0333 160.476 65.5 160.143 64.9L147.447 41.1V81.5C147.447 82.2333 147.214 82.8333 146.748 83.3C146.281 83.7667 145.715 84 145.048 84H134.852Z" fill="currentColor"/>
<path d="M236.349 85C228.685 85 222.588 82.8667 218.056 78.6C213.591 74.3333 211.225 68.1333 210.958 60C210.958 59.4667 210.958 58.7667 210.958 57.9C210.958 56.9667 210.958 56.2333 210.958 55.7C211.225 50.5667 212.391 46.1667 214.457 42.5C216.523 38.7667 219.422 35.9333 223.154 34C226.886 32 231.251 31 236.249 31C241.847 31 246.512 32.1667 250.244 34.5C254.043 36.7667 256.875 39.9 258.741 43.9C260.674 47.8333 261.64 52.3667 261.64 57.5V59.8C261.64 60.4667 261.374 61.0333 260.841 61.5C260.374 61.9667 259.808 62.2 259.141 62.2H226.453C226.453 62.2667 226.453 62.4 226.453 62.6C226.453 62.7333 226.453 62.8667 226.453 63C226.52 65.1333 226.919 67.1 227.652 68.9C228.452 70.6333 229.552 72.0333 230.951 73.1C232.417 74.1667 234.15 74.7 236.149 74.7C237.815 74.7 239.182 74.4667 240.248 74C241.314 73.5333 242.181 72.9667 242.847 72.3C243.58 71.6333 244.113 71.0667 244.446 70.6C245.046 69.9333 245.513 69.5333 245.846 69.4C246.246 69.2 246.846 69.1 247.645 69.1H258.042C258.708 69.1 259.241 69.3 259.641 69.7C260.108 70.0333 260.307 70.5333 260.241 71.2C260.174 72.2667 259.608 73.6 258.541 75.2C257.542 76.7333 256.042 78.2667 254.043 79.8C252.044 81.2667 249.545 82.5 246.546 83.5C243.613 84.5 240.215 85 236.349 85ZM226.453 53.1H246.046V52.9C246.046 50.5 245.646 48.4333 244.846 46.7C244.113 44.9 243.014 43.5 241.547 42.5C240.081 41.5 238.315 41 236.249 41C234.183 41 232.417 41.5 230.951 42.5C229.485 43.5 228.352 44.9 227.552 46.7C226.819 48.4333 226.453 50.5 226.453 52.9V53.1Z" fill="currentColor"/>
<path d="M294.825 85C287.161 85 281.063 82.8667 276.531 78.6C272.066 74.3333 269.7 68.1333 269.434 60C269.434 59.4667 269.434 58.7667 269.434 57.9C269.434 56.9667 269.434 56.2333 269.434 55.7C269.7 50.5667 270.866 46.1667 272.932 42.5C274.998 38.7667 277.897 35.9333 281.629 34C285.361 32 289.726 31 294.725 31C300.323 31 304.988 32.1667 308.72 34.5C312.518 36.7667 315.351 39.9 317.217 43.9C319.149 47.8333 320.116 52.3667 320.116 57.5V59.8C320.116 60.4667 319.849 61.0333 319.316 61.5C318.849 61.9667 318.283 62.2 317.616 62.2H284.928C284.928 62.2667 284.928 62.4 284.928 62.6C284.928 62.7333 284.928 62.8667 284.928 63C284.995 65.1333 285.395 67.1 286.128 68.9C286.927 70.6333 288.027 72.0333 289.427 73.1C290.893 74.1667 292.625 74.7 294.625 74.7C296.291 74.7 297.657 74.4667 298.723 74C299.789 73.5333 300.656 72.9667 301.322 72.3C302.055 71.6333 302.589 71.0667 302.922 70.6C303.522 69.9333 303.988 69.5333 304.321 69.4C304.721 69.2 305.321 69.1 306.121 69.1H316.517C317.183 69.1 317.716 69.3 318.116 69.7C318.583 70.0333 318.783 70.5333 318.716 71.2C318.649 72.2667 318.083 73.6 317.017 75.2C316.017 76.7333 314.518 78.2667 312.518 79.8C310.519 81.2667 308.02 82.5 305.021 83.5C302.089 84.5 298.69 85 294.825 85ZM284.928 53.1H304.521V52.9C304.521 50.5 304.121 48.4333 303.322 46.7C302.588 44.9 301.489 43.5 300.023 42.5C298.557 41.5 296.791 41 294.725 41C292.659 41 290.893 41.5 289.427 42.5C287.96 43.5 286.827 44.9 286.028 46.7C285.295 48.4333 284.928 50.5 284.928 52.9V53.1Z" fill="currentColor"/>
<path d="M354.904 84C350.772 84 347.24 83.3333 344.308 82C341.375 80.6 339.143 78.4667 337.61 75.6C336.144 72.7333 335.411 69.1333 335.411 64.8V43.8H327.614C326.881 43.8 326.281 43.5667 325.814 43.1C325.348 42.6333 325.115 42.0333 325.115 41.3V34.5C325.115 33.7667 325.348 33.1667 325.814 32.7C326.281 32.2333 326.881 32 327.614 32H335.411V15.5C335.411 14.7667 335.644 14.1667 336.111 13.7C336.644 13.2333 337.244 13 337.91 13H347.707C348.44 13 349.039 13.2333 349.506 13.7C349.972 14.1667 350.206 14.7667 350.206 15.5V32H362.701C363.368 32 363.934 32.2333 364.401 32.7C364.867 33.1667 365.1 33.7667 365.1 34.5V41.3C365.1 42.0333 364.867 42.6333 364.401 43.1C363.934 43.5667 363.368 43.8 362.701 43.8H350.206V63.6C350.206 66.1333 350.639 68.1333 351.505 69.6C352.438 71 354.038 71.7 356.303 71.7H363.601C364.267 71.7 364.834 71.9333 365.3 72.4C365.767 72.8667 366 73.4333 366 74.1V81.5C366 82.2333 365.767 82.8333 365.3 83.3C364.834 83.7667 364.267 84 363.601 84H354.904Z" fill="currentColor"/>
</svg>
