<svg width="348" height="100" viewBox="0 0 348 100" fill="none" xmlns="http://www.w3.org/2000/svg">
<path fill-rule="evenodd" clip-rule="evenodd" d="M42.8465 22.6378H98.08C98.7521 22.6378 99.0881 22.6378 99.3448 22.507C99.5706 22.392 99.7542 22.2084 99.8692 21.9826C100 21.7259 100 21.3899 100 20.7178V1.92C100 1.24794 100 0.911906 99.8692 0.655211C99.7542 0.429417 99.5706 0.24584 99.3448 0.130792C99.0881 0 98.7521 0 98.08 0H44.7665C44.0944 0 43.7584 0 43.5017 0.130792C43.2759 0.24584 43.0923 0.429417 42.9773 0.655211C42.8465 0.911906 42.8465 1.24794 42.8465 1.92V22.6378L24.7019 4.46493C23.6737 3.43504 23.1595 2.9201 22.718 2.88511C22.335 2.85475 21.9606 3.00967 21.7109 3.30181C21.4232 3.6385 21.4232 4.36617 21.4232 5.82151V27.4606L3.2787 9.28776C2.25042 8.25787 1.73628 7.74293 1.2948 7.70794C0.911747 7.67759 0.537319 7.83251 0.287695 8.12464C0 8.46133 0 9.189 0 10.6443V31.4891C0 31.7822 0 31.9288 0.0330906 32.0668C0.0624287 32.1891 0.110819 32.3061 0.176489 32.4134C0.250559 32.5344 0.354138 32.6382 0.561296 32.8456L21.4232 53.7402V98.08C21.4232 98.7521 21.4232 99.0881 21.554 99.3448C21.6691 99.5706 21.8527 99.7542 22.0784 99.8692C22.3351 100 22.6712 100 23.3432 100H42.2623C42.9344 100 43.2704 100 43.5271 99.8692C43.7529 99.7542 43.9365 99.5706 44.0516 99.3448C44.1823 99.0881 44.1823 98.7521 44.1823 98.08V78.298C44.1823 77.6259 44.1823 77.2899 44.3131 77.0332C44.4282 76.8074 44.6118 76.6238 44.8376 76.5088C45.0943 76.378 45.4303 76.378 46.1023 76.378H98.08C98.7521 76.378 99.0881 76.378 99.3448 76.2472C99.5706 76.1321 99.7542 75.9485 99.8692 75.7227C100 75.466 100 75.13 100 74.458V55.6602C100 54.9881 100 54.6521 99.8692 54.3954C99.7542 54.1696 99.5706 53.986 99.3448 53.871C99.0881 53.7402 98.7521 53.7402 98.08 53.7402H21.4232L21.4232 27.4606L39.5678 45.6335C40.5961 46.6634 41.1102 47.1783 41.5517 47.2133C41.9347 47.2437 42.3092 47.0888 42.5588 46.7966C42.8465 46.4599 42.8465 45.7323 42.8465 44.2769V22.6378Z" fill="black"/>
<path d="M160.2 85C153.933 85 148.6 83.9667 144.2 81.9C139.867 79.7667 136.5 76.7 134.1 72.7C131.7 68.6333 130.367 63.7 130.1 57.9C130.033 55.1667 130 52.2333 130 49.1C130 45.9667 130.033 42.9667 130.1 40.1C130.367 34.3667 131.7 29.5 134.1 25.5C136.567 21.4333 140 18.3333 144.4 16.2C148.8 14.0667 154.067 13 160.2 13C164.667 13 168.733 13.5667 172.4 14.7C176.067 15.8333 179.233 17.4667 181.9 19.6C184.567 21.7333 186.633 24.2333 188.1 27.1C189.567 29.9667 190.367 33.1667 190.5 36.7C190.5 37.3 190.267 37.8 189.8 38.2C189.4 38.6 188.9 38.8 188.3 38.8H176.9C176.1 38.8 175.467 38.6 175 38.2C174.533 37.8 174.167 37.1333 173.9 36.2C172.9 32.2667 171.233 29.5667 168.9 28.1C166.567 26.6333 163.667 25.9 160.2 25.9C156.067 25.9 152.8 27.0333 150.4 29.3C148 31.5667 146.7 35.3333 146.5 40.6C146.3 46.0667 146.3 51.6667 146.5 57.4C146.7 62.6667 148 66.4333 150.4 68.7C152.8 70.9667 156.067 72.1 160.2 72.1C163.667 72.1 166.567 71.3667 168.9 69.9C171.3 68.3667 172.967 65.6667 173.9 61.8C174.167 60.8 174.533 60.1333 175 59.8C175.467 59.4 176.1 59.2 176.9 59.2H188.3C188.9 59.2 189.4 59.4 189.8 59.8C190.267 60.2 190.5 60.7 190.5 61.3C190.367 64.8333 189.567 68.0333 188.1 70.9C186.633 73.7667 184.567 76.2667 181.9 78.4C179.233 80.5333 176.067 82.1667 172.4 83.3C168.733 84.4333 164.667 85 160.2 85ZM203.136 84C202.403 84 201.803 83.7667 201.336 83.3C200.869 82.8333 200.636 82.2333 200.636 81.5V15.5C200.636 14.7667 200.869 14.1667 201.336 13.7C201.803 13.2333 202.403 13 203.136 13H213.136C213.803 13 214.369 13.2333 214.836 13.7C215.303 14.1667 215.536 14.7667 215.536 15.5V81.5C215.536 82.2333 215.303 82.8333 214.836 83.3C214.369 83.7667 213.803 84 213.136 84H203.136ZM247.275 85C243.408 85 239.975 84.1333 236.975 82.4C234.042 80.6 231.742 78.0333 230.075 74.7C228.475 71.3 227.675 67.2 227.675 62.4V34.5C227.675 33.7667 227.908 33.1667 228.375 32.7C228.842 32.2333 229.408 32 230.075 32H240.675C241.408 32 242.008 32.2333 242.475 32.7C242.942 33.1667 243.175 33.7667 243.175 34.5V61.8C243.175 69.2667 246.442 73 252.975 73C256.108 73 258.575 72.0333 260.375 70.1C262.242 68.1 263.175 65.3333 263.175 61.8V34.5C263.175 33.7667 263.408 33.1667 263.875 32.7C264.342 32.2333 264.942 32 265.675 32H276.275C276.942 32 277.508 32.2333 277.975 32.7C278.442 33.1667 278.675 33.7667 278.675 34.5V81.5C278.675 82.2333 278.442 82.8333 277.975 83.3C277.508 83.7667 276.942 84 276.275 84H266.475C265.742 84 265.142 83.7667 264.675 83.3C264.208 82.8333 263.975 82.2333 263.975 81.5V77.6C262.242 80 260.008 81.8333 257.275 83.1C254.542 84.3667 251.208 85 247.275 85ZM321.461 85C317.661 85 314.494 84.3667 311.961 83.1C309.428 81.7667 307.361 80.1 305.761 78.1V81.5C305.761 82.2333 305.528 82.8333 305.061 83.3C304.594 83.7667 303.994 84 303.261 84H293.761C293.028 84 292.428 83.7667 291.961 83.3C291.494 82.8333 291.261 82.2333 291.261 81.5V15.5C291.261 14.7667 291.494 14.1667 291.961 13.7C292.428 13.2333 293.028 13 293.761 13H304.061C304.728 13 305.294 13.2333 305.761 13.7C306.228 14.1667 306.461 14.7667 306.461 15.5V37.3C308.128 35.4333 310.194 33.9333 312.661 32.8C315.128 31.6 318.061 31 321.461 31C324.928 31 327.928 31.6 330.461 32.8C333.061 33.9333 335.261 35.5667 337.061 37.7C338.861 39.7667 340.228 42.2333 341.161 45.1C342.161 47.9667 342.694 51.1333 342.761 54.6C342.828 55.8 342.861 56.9333 342.861 58C342.861 59 342.828 60.1333 342.761 61.4C342.628 64.9333 342.061 68.1667 341.061 71.1C340.128 73.9667 338.761 76.4667 336.961 78.6C335.228 80.6667 333.061 82.2667 330.461 83.4C327.928 84.4667 324.928 85 321.461 85ZM316.961 73C319.494 73 321.494 72.4667 322.961 71.4C324.428 70.2667 325.461 68.8 326.061 67C326.728 65.2 327.128 63.2333 327.261 61.1C327.394 59.0333 327.394 56.9667 327.261 54.9C327.128 52.7667 326.728 50.8 326.061 49C325.461 47.2 324.428 45.7667 322.961 44.7C321.494 43.5667 319.494 43 316.961 43C314.561 43 312.594 43.5333 311.061 44.6C309.594 45.6667 308.461 47.0333 307.661 48.7C306.928 50.3 306.528 52.0333 306.461 53.9C306.394 55.1 306.361 56.3333 306.361 57.6C306.361 58.8667 306.394 60.1333 306.461 61.4C306.594 63.4 306.994 65.2667 307.661 67C308.328 68.7333 309.428 70.1667 310.961 71.3C312.494 72.4333 314.494 73 316.961 73Z" fill="black"/>
</svg>
