<svg width="369" height="100" viewBox="0 0 369 100" fill="none" xmlns="http://www.w3.org/2000/svg">
<path fill-rule="evenodd" clip-rule="evenodd" d="M42.8465 22.6378H98.08C98.7521 22.6378 99.0881 22.6378 99.3448 22.507C99.5706 22.392 99.7542 22.2084 99.8692 21.9826C100 21.7259 100 21.3899 100 20.7178V1.92C100 1.24794 100 0.911906 99.8692 0.655211C99.7542 0.429417 99.5706 0.24584 99.3448 0.130792C99.0881 0 98.7521 0 98.08 0H44.7665C44.0944 0 43.7584 0 43.5017 0.130792C43.2759 0.24584 43.0923 0.429417 42.9773 0.655211C42.8465 0.911906 42.8465 1.24794 42.8465 1.92V22.6378L24.7019 4.46493C23.6737 3.43504 23.1595 2.9201 22.718 2.88511C22.335 2.85475 21.9606 3.00967 21.7109 3.30181C21.4232 3.6385 21.4232 4.36617 21.4232 5.82151V27.4606L3.2787 9.28776C2.25042 8.25787 1.73628 7.74293 1.2948 7.70794C0.911747 7.67759 0.537319 7.83251 0.287695 8.12464C0 8.46133 0 9.189 0 10.6443V31.4891C0 31.7822 0 31.9288 0.0330906 32.0668C0.0624287 32.1891 0.110819 32.3061 0.176489 32.4134C0.250559 32.5344 0.354138 32.6382 0.561296 32.8456L21.4232 53.7402V98.08C21.4232 98.7521 21.4232 99.0881 21.554 99.3448C21.6691 99.5706 21.8527 99.7542 22.0784 99.8692C22.3351 100 22.6712 100 23.3432 100H42.2623C42.9344 100 43.2704 100 43.5271 99.8692C43.7529 99.7542 43.9365 99.5706 44.0516 99.3448C44.1823 99.0881 44.1823 98.7521 44.1823 98.08V78.298C44.1823 77.6259 44.1823 77.2899 44.3131 77.0332C44.4282 76.8074 44.6118 76.6238 44.8376 76.5088C45.0943 76.378 45.4303 76.378 46.1023 76.378H98.08C98.7521 76.378 99.0881 76.378 99.3448 76.2472C99.5706 76.1321 99.7542 75.9485 99.8692 75.7227C100 75.466 100 75.13 100 74.458V55.6602C100 54.9881 100 54.6521 99.8692 54.3954C99.7542 54.1696 99.5706 53.986 99.3448 53.871C99.0881 53.7402 98.7521 53.7402 98.08 53.7402H21.4232L21.4232 27.4606L39.5678 45.6335C40.5961 46.6634 41.1102 47.1783 41.5517 47.2133C41.9347 47.2437 42.3092 47.0888 42.5588 46.7966C42.8465 46.4599 42.8465 45.7323 42.8465 44.2769V22.6378Z" fill="black"/>
<path d="M134.9 84C134.233 84 133.633 83.7667 133.1 83.3C132.633 82.8333 132.4 82.2333 132.4 81.5V16.5C132.4 15.7667 132.633 15.1667 133.1 14.7C133.633 14.2333 134.233 14 134.9 14H144.2C145.2 14 145.933 14.2667 146.4 14.8C146.933 15.3333 147.3 15.7333 147.5 16L165.9 49.9L184.5 16C184.633 15.7333 184.933 15.3333 185.4 14.8C185.933 14.2667 186.7 14 187.7 14H197C197.733 14 198.333 14.2333 198.8 14.7C199.267 15.1667 199.5 15.7667 199.5 16.5V81.5C199.5 82.2333 199.267 82.8333 198.8 83.3C198.333 83.7667 197.733 84 197 84H186.8C186.133 84 185.567 83.7667 185.1 83.3C184.633 82.8333 184.4 82.2333 184.4 81.5V41.1L171.7 64.9C171.367 65.5 170.933 66.0333 170.4 66.5C169.867 66.9667 169.167 67.2 168.3 67.2H163.6C162.733 67.2 162.033 66.9667 161.5 66.5C160.967 66.0333 160.533 65.5 160.2 64.9L147.5 41.1V81.5C147.5 82.2333 147.267 82.8333 146.8 83.3C146.333 83.7667 145.767 84 145.1 84H134.9ZM236.434 85C228.767 85 222.667 82.8667 218.134 78.6C213.667 74.3333 211.3 68.1333 211.034 60C211.034 59.4667 211.034 58.7667 211.034 57.9C211.034 56.9667 211.034 56.2333 211.034 55.7C211.3 50.5667 212.467 46.1667 214.534 42.5C216.6 38.7667 219.5 35.9333 223.234 34C226.967 32 231.334 31 236.334 31C241.934 31 246.6 32.1667 250.334 34.5C254.134 36.7667 256.967 39.9 258.834 43.9C260.767 47.8333 261.734 52.3667 261.734 57.5V59.8C261.734 60.4667 261.467 61.0333 260.934 61.5C260.467 61.9667 259.9 62.2 259.234 62.2H226.534C226.534 62.2667 226.534 62.4 226.534 62.6C226.534 62.7333 226.534 62.8667 226.534 63C226.6 65.1333 227 67.1 227.734 68.9C228.534 70.6333 229.634 72.0333 231.034 73.1C232.5 74.1667 234.234 74.7 236.234 74.7C237.9 74.7 239.267 74.4667 240.334 74C241.4 73.5333 242.267 72.9667 242.934 72.3C243.667 71.6333 244.2 71.0667 244.534 70.6C245.134 69.9333 245.6 69.5333 245.934 69.4C246.334 69.2 246.934 69.1 247.734 69.1H258.134C258.8 69.1 259.334 69.3 259.734 69.7C260.2 70.0333 260.4 70.5333 260.334 71.2C260.267 72.2667 259.7 73.6 258.634 75.2C257.634 76.7333 256.134 78.2667 254.134 79.8C252.134 81.2667 249.634 82.5 246.634 83.5C243.7 84.5 240.3 85 236.434 85ZM226.534 53.1H246.134V52.9C246.134 50.5 245.734 48.4333 244.934 46.7C244.2 44.9 243.1 43.5 241.634 42.5C240.167 41.5 238.4 41 236.334 41C234.267 41 232.5 41.5 231.034 42.5C229.567 43.5 228.434 44.9 227.634 46.7C226.9 48.4333 226.534 50.5 226.534 52.9V53.1ZM294.93 85C287.263 85 281.163 82.8667 276.63 78.6C272.163 74.3333 269.796 68.1333 269.53 60C269.53 59.4667 269.53 58.7667 269.53 57.9C269.53 56.9667 269.53 56.2333 269.53 55.7C269.796 50.5667 270.963 46.1667 273.03 42.5C275.096 38.7667 277.996 35.9333 281.73 34C285.463 32 289.83 31 294.83 31C300.43 31 305.096 32.1667 308.83 34.5C312.63 36.7667 315.463 39.9 317.33 43.9C319.263 47.8333 320.23 52.3667 320.23 57.5V59.8C320.23 60.4667 319.963 61.0333 319.43 61.5C318.963 61.9667 318.396 62.2 317.73 62.2H285.03C285.03 62.2667 285.03 62.4 285.03 62.6C285.03 62.7333 285.03 62.8667 285.03 63C285.096 65.1333 285.496 67.1 286.23 68.9C287.03 70.6333 288.13 72.0333 289.53 73.1C290.996 74.1667 292.73 74.7 294.73 74.7C296.396 74.7 297.763 74.4667 298.83 74C299.896 73.5333 300.763 72.9667 301.43 72.3C302.163 71.6333 302.696 71.0667 303.03 70.6C303.63 69.9333 304.096 69.5333 304.43 69.4C304.83 69.2 305.43 69.1 306.23 69.1H316.63C317.296 69.1 317.83 69.3 318.23 69.7C318.696 70.0333 318.896 70.5333 318.83 71.2C318.763 72.2667 318.196 73.6 317.13 75.2C316.13 76.7333 314.63 78.2667 312.63 79.8C310.63 81.2667 308.13 82.5 305.13 83.5C302.196 84.5 298.796 85 294.93 85ZM285.03 53.1H304.63V52.9C304.63 50.5 304.23 48.4333 303.43 46.7C302.696 44.9 301.596 43.5 300.13 42.5C298.663 41.5 296.896 41 294.83 41C292.763 41 290.996 41.5 289.53 42.5C288.063 43.5 286.93 44.9 286.13 46.7C285.396 48.4333 285.03 50.5 285.03 52.9V53.1ZM355.03 84C350.897 84 347.364 83.3333 344.43 82C341.497 80.6 339.264 78.4667 337.73 75.6C336.264 72.7333 335.53 69.1333 335.53 64.8V43.8H327.73C326.997 43.8 326.397 43.5667 325.93 43.1C325.464 42.6333 325.23 42.0333 325.23 41.3V34.5C325.23 33.7667 325.464 33.1667 325.93 32.7C326.397 32.2333 326.997 32 327.73 32H335.53V15.5C335.53 14.7667 335.764 14.1667 336.23 13.7C336.764 13.2333 337.364 13 338.03 13H347.83C348.564 13 349.164 13.2333 349.63 13.7C350.097 14.1667 350.33 14.7667 350.33 15.5V32H362.83C363.497 32 364.064 32.2333 364.53 32.7C364.997 33.1667 365.23 33.7667 365.23 34.5V41.3C365.23 42.0333 364.997 42.6333 364.53 43.1C364.064 43.5667 363.497 43.8 362.83 43.8H350.33V63.6C350.33 66.1333 350.764 68.1333 351.63 69.6C352.564 71 354.164 71.7 356.43 71.7H363.73C364.397 71.7 364.964 71.9333 365.43 72.4C365.897 72.8667 366.13 73.4333 366.13 74.1V81.5C366.13 82.2333 365.897 82.8333 365.43 83.3C364.964 83.7667 364.397 84 363.73 84H355.03Z" fill="black"/>
</svg>
