<svg width="421" height="100" viewBox="0 0 421 100" fill="none" xmlns="http://www.w3.org/2000/svg">
<path fill-rule="evenodd" clip-rule="evenodd" d="M42.8465 22.6378H98.08C98.7521 22.6378 99.0881 22.6378 99.3448 22.507C99.5706 22.392 99.7542 22.2084 99.8692 21.9826C100 21.7259 100 21.3899 100 20.7178V1.92C100 1.24794 100 0.911906 99.8692 0.655211C99.7542 0.429417 99.5706 0.24584 99.3448 0.130792C99.0881 0 98.7521 0 98.08 0H44.7665C44.0944 0 43.7584 0 43.5017 0.130792C43.2759 0.24584 43.0923 0.429417 42.9773 0.655211C42.8465 0.911906 42.8465 1.24794 42.8465 1.92V22.6378L24.7019 4.46493C23.6737 3.43504 23.1595 2.9201 22.718 2.88511C22.335 2.85475 21.9606 3.00967 21.7109 3.30181C21.4232 3.6385 21.4232 4.36617 21.4232 5.82151V27.4606L3.2787 9.28776C2.25042 8.25787 1.73628 7.74293 1.2948 7.70794C0.911747 7.67759 0.537319 7.83251 0.287695 8.12464C0 8.46133 0 9.189 0 10.6443V31.4891C0 31.7822 0 31.9288 0.0330906 32.0668C0.0624287 32.1891 0.110819 32.3061 0.176489 32.4134C0.250559 32.5344 0.354138 32.6382 0.561296 32.8456L21.4232 53.7402V98.08C21.4232 98.7521 21.4232 99.0881 21.554 99.3448C21.6691 99.5706 21.8527 99.7542 22.0784 99.8692C22.3351 100 22.6712 100 23.3432 100H42.2623C42.9344 100 43.2704 100 43.5271 99.8692C43.7529 99.7542 43.9365 99.5706 44.0516 99.3448C44.1823 99.0881 44.1823 98.7521 44.1823 98.08V78.298C44.1823 77.6259 44.1823 77.2899 44.3131 77.0332C44.4282 76.8074 44.6118 76.6238 44.8376 76.5088C45.0943 76.378 45.4303 76.378 46.1023 76.378H98.08C98.7521 76.378 99.0881 76.378 99.3448 76.2472C99.5706 76.1321 99.7542 75.9485 99.8692 75.7227C100 75.466 100 75.13 100 74.458V55.6602C100 54.9881 100 54.6521 99.8692 54.3954C99.7542 54.1696 99.5706 53.986 99.3448 53.871C99.0881 53.7402 98.7521 53.7402 98.08 53.7402H21.4232L21.4232 27.4606L39.5678 45.6335C40.5961 46.6634 41.1102 47.1783 41.5517 47.2133C41.9347 47.2437 42.3092 47.0888 42.5588 46.7966C42.8465 46.4599 42.8465 45.7323 42.8465 44.2769V22.6378Z" fill="black"/>
<path d="M157.6 85C151.2 85 145.833 84.0667 141.5 82.2C137.233 80.3333 134 77.9 131.8 74.9C129.6 71.9 128.433 68.7 128.3 65.3C128.3 64.7667 128.5 64.3 128.9 63.9C129.3 63.4333 129.8 63.2 130.4 63.2H141.1C141.967 63.2 142.633 63.4 143.1 63.8C143.567 64.1333 144 64.5667 144.4 65.1C144.867 66.2333 145.6 67.3333 146.6 68.4C147.667 69.4667 149.1 70.3667 150.9 71.1C152.7 71.7667 154.933 72.1 157.6 72.1C161.933 72.1 165.167 71.4 167.3 70C169.5 68.6 170.6 66.7 170.6 64.3C170.6 62.5667 170 61.1667 168.8 60.1C167.667 59.0333 165.833 58.0667 163.3 57.2C160.833 56.3333 157.533 55.4 153.4 54.4C148.4 53.3333 144.133 51.9667 140.6 50.3C137.133 48.5667 134.5 46.3667 132.7 43.7C130.967 40.9667 130.1 37.6 130.1 33.6C130.1 29.6 131.2 26.0667 133.4 23C135.6 19.8667 138.7 17.4333 142.7 15.7C146.7 13.9 151.467 13 157 13C161.467 13 165.4 13.6 168.8 14.8C172.267 16 175.133 17.5667 177.4 19.5C179.733 21.4333 181.5 23.5 182.7 25.7C183.9 27.9 184.533 30.0333 184.6 32.1C184.6 32.6333 184.4 33.1333 184 33.6C183.6 34 183.1 34.2 182.5 34.2H171.3C170.633 34.2 170.033 34.0667 169.5 33.8C168.967 33.5333 168.533 33.0667 168.2 32.4C167.8 30.6667 166.6 29.1667 164.6 27.9C162.667 26.5667 160.133 25.9 157 25.9C153.733 25.9 151.133 26.5 149.2 27.7C147.333 28.9 146.4 30.7333 146.4 33.2C146.4 34.8 146.867 36.1667 147.8 37.3C148.8 38.3667 150.433 39.3333 152.7 40.2C155.033 41 158.1 41.9 161.9 42.9C167.767 44.1 172.533 45.5333 176.2 47.2C179.867 48.8667 182.567 51.0333 184.3 53.7C186.033 56.3 186.9 59.6 186.9 63.6C186.9 68.0667 185.633 71.9 183.1 75.1C180.633 78.3 177.2 80.7667 172.8 82.5C168.467 84.1667 163.4 85 157.6 85ZM199.034 84C198.301 84 197.701 83.7667 197.234 83.3C196.768 82.8333 196.534 82.2333 196.534 81.5V15.5C196.534 14.7667 196.768 14.1667 197.234 13.7C197.701 13.2333 198.301 13 199.034 13H209.034C209.701 13 210.268 13.2333 210.734 13.7C211.201 14.1667 211.434 14.7667 211.434 15.5V81.5C211.434 82.2333 211.201 82.8333 210.734 83.3C210.268 83.7667 209.701 84 209.034 84H199.034ZM226.473 84C225.807 84 225.24 83.7667 224.773 83.3C224.307 82.8333 224.073 82.2333 224.073 81.5V34.5C224.073 33.7667 224.307 33.1667 224.773 32.7C225.24 32.2333 225.807 32 226.473 32H236.473C237.207 32 237.807 32.2333 238.273 32.7C238.74 33.1667 238.973 33.7667 238.973 34.5V81.5C238.973 82.2333 238.74 82.8333 238.273 83.3C237.807 83.7667 237.207 84 236.473 84H226.473ZM226.173 24C225.507 24 224.94 23.7667 224.473 23.3C224.007 22.8333 223.773 22.2333 223.773 21.5V13.5C223.773 12.7667 224.007 12.1667 224.473 11.7C224.94 11.1667 225.507 10.9 226.173 10.9H236.673C237.407 10.9 238.007 11.1667 238.473 11.7C239.007 12.1667 239.273 12.7667 239.273 13.5V21.5C239.273 22.2333 239.007 22.8333 238.473 23.3C238.007 23.7667 237.407 24 236.673 24H226.173ZM270.815 85C267.482 85 264.515 84.4667 261.915 83.4C259.315 82.2667 257.115 80.6667 255.315 78.6C253.515 76.4667 252.148 73.9667 251.215 71.1C250.282 68.1667 249.715 64.9333 249.515 61.4C249.448 60.1333 249.415 59 249.415 58C249.415 56.9333 249.448 55.8 249.515 54.6C249.648 51.1333 250.182 47.9667 251.115 45.1C252.115 42.2333 253.482 39.7667 255.215 37.7C257.015 35.5667 259.215 33.9333 261.815 32.8C264.482 31.6 267.482 31 270.815 31C274.282 31 277.248 31.6 279.715 32.8C282.182 33.9333 284.215 35.4333 285.815 37.3V15.5C285.815 14.7667 286.048 14.1667 286.515 13.7C286.982 13.2333 287.582 13 288.315 13H298.615C299.282 13 299.848 13.2333 300.315 13.7C300.782 14.1667 301.015 14.7667 301.015 15.5V81.5C301.015 82.2333 300.782 82.8333 300.315 83.3C299.848 83.7667 299.282 84 298.615 84H289.015C288.348 84 287.782 83.7667 287.315 83.3C286.848 82.8333 286.615 82.2333 286.615 81.5V78.1C284.948 80.1 282.848 81.7667 280.315 83.1C277.782 84.3667 274.615 85 270.815 85ZM275.415 73C277.882 73 279.848 72.4333 281.315 71.3C282.848 70.1667 283.948 68.7333 284.615 67C285.348 65.2667 285.748 63.4 285.815 61.4C285.948 60.1333 286.015 58.8667 286.015 57.6C286.015 56.3333 285.948 55.1 285.815 53.9C285.748 52.0333 285.348 50.3 284.615 48.7C283.882 47.0333 282.748 45.6667 281.215 44.6C279.748 43.5333 277.815 43 275.415 43C272.882 43 270.882 43.5667 269.415 44.7C267.948 45.7667 266.882 47.2 266.215 49C265.615 50.8 265.248 52.7667 265.115 54.9C264.915 56.9667 264.915 59.0333 265.115 61.1C265.248 63.2333 265.615 65.2 266.215 67C266.882 68.8 267.948 70.2667 269.415 71.4C270.882 72.4667 272.882 73 275.415 73ZM336.922 85C329.255 85 323.155 82.8667 318.622 78.6C314.155 74.3333 311.789 68.1333 311.522 60C311.522 59.4667 311.522 58.7667 311.522 57.9C311.522 56.9667 311.522 56.2333 311.522 55.7C311.789 50.5667 312.955 46.1667 315.022 42.5C317.089 38.7667 319.989 35.9333 323.722 34C327.455 32 331.822 31 336.822 31C342.422 31 347.089 32.1667 350.822 34.5C354.622 36.7667 357.455 39.9 359.322 43.9C361.255 47.8333 362.222 52.3667 362.222 57.5V59.8C362.222 60.4667 361.955 61.0333 361.422 61.5C360.955 61.9667 360.389 62.2 359.722 62.2H327.022C327.022 62.2667 327.022 62.4 327.022 62.6C327.022 62.7333 327.022 62.8667 327.022 63C327.089 65.1333 327.489 67.1 328.222 68.9C329.022 70.6333 330.122 72.0333 331.522 73.1C332.989 74.1667 334.722 74.7 336.722 74.7C338.389 74.7 339.755 74.4667 340.822 74C341.889 73.5333 342.755 72.9667 343.422 72.3C344.155 71.6333 344.689 71.0667 345.022 70.6C345.622 69.9333 346.089 69.5333 346.422 69.4C346.822 69.2 347.422 69.1 348.222 69.1H358.622C359.289 69.1 359.822 69.3 360.222 69.7C360.689 70.0333 360.889 70.5333 360.822 71.2C360.755 72.2667 360.189 73.6 359.122 75.2C358.122 76.7333 356.622 78.2667 354.622 79.8C352.622 81.2667 350.122 82.5 347.122 83.5C344.189 84.5 340.789 85 336.922 85ZM327.022 53.1H346.622V52.9C346.622 50.5 346.222 48.4333 345.422 46.7C344.689 44.9 343.589 43.5 342.122 42.5C340.655 41.5 338.889 41 336.822 41C334.755 41 332.989 41.5 331.522 42.5C330.055 43.5 328.922 44.9 328.122 46.7C327.389 48.4333 327.022 50.5 327.022 52.9V53.1ZM392.718 85C388.585 85 385.018 84.5333 382.018 83.6C379.085 82.6 376.685 81.4 374.818 80C373.018 78.6 371.651 77.2 370.718 75.8C369.851 74.3333 369.385 73.1 369.318 72.1C369.251 71.3667 369.485 70.7667 370.018 70.3C370.551 69.8333 371.085 69.6 371.618 69.6H381.318C381.518 69.6 381.718 69.6333 381.918 69.7C382.118 69.7667 382.318 69.9333 382.518 70.2C383.385 70.8 384.285 71.5 385.218 72.3C386.151 73.0333 387.218 73.6667 388.418 74.2C389.685 74.7333 391.251 75 393.118 75C395.318 75 397.185 74.5667 398.718 73.7C400.251 72.7667 401.018 71.4667 401.018 69.8C401.018 68.6 400.651 67.6 399.918 66.8C399.251 66 397.951 65.2667 396.018 64.6C394.085 63.9333 391.218 63.2 387.418 62.4C383.818 61.6 380.751 60.5333 378.218 59.2C375.685 57.8667 373.785 56.2 372.518 54.2C371.251 52.1333 370.618 49.6667 370.618 46.8C370.618 44.2 371.418 41.7 373.018 39.3C374.685 36.9 377.118 34.9333 380.318 33.4C383.518 31.8 387.518 31 392.318 31C395.985 31 399.185 31.4667 401.918 32.4C404.718 33.2667 407.051 34.4 408.918 35.8C410.785 37.1333 412.185 38.5333 413.118 40C414.118 41.4 414.651 42.6333 414.718 43.7C414.785 44.3667 414.585 44.9333 414.118 45.4C413.651 45.8667 413.118 46.1 412.518 46.1H403.618C403.285 46.1 402.985 46.0667 402.718 46C402.451 45.8667 402.218 45.7 402.018 45.5C401.218 44.9667 400.385 44.3667 399.518 43.7C398.718 42.9667 397.751 42.3333 396.618 41.8C395.485 41.2667 394.018 41 392.218 41C390.018 41 388.318 41.5 387.118 42.5C385.985 43.4333 385.418 44.6333 385.418 46.1C385.418 47.0333 385.718 47.9 386.318 48.7C386.918 49.5 388.151 50.2333 390.018 50.9C391.885 51.5667 394.718 52.2667 398.518 53C403.051 53.8 406.651 55 409.318 56.6C411.985 58.2 413.885 60.0667 415.018 62.2C416.218 64.2667 416.818 66.5 416.818 68.9C416.818 72.0333 415.885 74.8333 414.018 77.3C412.151 79.7 409.418 81.6 405.818 83C402.285 84.3333 397.918 85 392.718 85Z" fill="black"/>
</svg>
