<svg width="312" height="100" viewBox="0 0 312 100" fill="none" xmlns="http://www.w3.org/2000/svg">
<path d="M177.873 100C170.938 100 164.547 98.9153 158.699 96.7459C152.934 94.4931 147.879 91.3225 143.535 87.234C139.274 83.1456 135.932 78.3479 133.509 72.8411C131.17 67.3342 130 61.2849 130 54.6934C130 48.1018 131.17 42.0526 133.509 36.5457C135.932 31.0388 139.316 26.2411 143.66 22.1527C148.005 18.0642 153.101 14.9353 158.949 12.766C164.798 10.5131 171.231 9.38674 178.249 9.38674C186.019 9.38674 192.995 10.68 199.177 13.2666C204.507 15.4664 209.111 18.5112 212.989 22.4009C214.134 23.5482 214.021 25.4031 212.83 26.5014L204.106 34.5439C202.901 35.6545 201.038 35.5809 199.817 34.4882C197.234 32.1768 194.473 30.4012 191.533 29.1615C187.773 27.4927 183.679 26.6583 179.251 26.6583C174.99 26.6583 171.105 27.3258 167.596 28.6608C164.087 29.9958 161.038 31.9149 158.448 34.418C155.942 36.9212 153.978 39.8832 152.558 43.3041C151.221 46.7251 150.553 50.5215 150.553 54.6934C150.553 58.7818 151.221 62.5365 152.558 65.9575C153.978 69.3784 155.942 72.3821 158.448 74.9687C161.038 77.4718 164.046 79.3909 167.471 80.7259C170.98 82.0609 174.823 82.7284 179.001 82.7284C183.011 82.7284 186.896 82.1026 190.656 80.8511C193.633 79.8168 196.535 78.2568 199.362 76.1709C200.736 75.1572 202.69 75.3368 203.746 76.6782L213.339 88.8611C208.577 92.4489 203.021 95.2023 196.671 97.1214C190.405 99.0405 184.139 100 177.873 100ZM197.37 86.5983C195.891 86.3886 194.791 85.1222 194.791 83.6279V56.3166C194.791 54.6598 196.134 53.3166 197.791 53.3166H210.339C211.996 53.3166 213.339 54.6598 213.339 56.3166V88.8611L197.37 86.5983Z" fill="black"/>
<path d="M233.819 98.4981C232.162 98.4981 230.819 97.155 230.819 95.4981V34.164C230.819 32.5071 232.162 31.164 233.819 31.164H247.369C249.026 31.164 250.369 32.5071 250.369 34.164V95.4981C250.369 97.155 249.026 98.4981 247.369 98.4981H233.819ZM240.594 21.7772C237.002 21.7772 234.077 20.7343 231.822 18.6483C229.566 16.5624 228.438 13.9758 228.438 10.8886C228.438 7.80142 229.566 5.21485 231.822 3.12892C234.077 1.04297 237.002 0 240.594 0C244.187 0 247.111 1.00125 249.367 3.00376C251.622 4.92283 252.75 7.42596 252.75 10.5131C252.75 13.7672 251.622 16.4789 249.367 18.6483C247.194 20.7343 244.27 21.7772 240.594 21.7772Z" fill="black"/>
<path d="M296.084 99.4994C288.147 99.4994 281.965 97.4969 277.537 93.4919C273.109 89.4034 270.895 83.3542 270.895 75.3442V19.2703C270.895 17.6135 272.238 16.2703 273.895 16.2703H287.445C289.102 16.2703 290.445 17.6135 290.445 19.2703V75.0939C290.445 77.9308 291.197 80.1418 292.701 81.7272C294.204 83.229 296.251 83.98 298.841 83.98C300.409 83.98 301.858 83.7655 303.189 83.3365C305.1 82.7207 307.457 83.3617 308.174 85.2369L311.168 93.0686C311.658 94.3487 311.227 95.8182 310.018 96.465C308.455 97.3019 306.693 97.9796 304.731 98.4981C301.974 99.1656 299.092 99.4994 296.084 99.4994ZM263.493 47.6846C261.836 47.6846 260.493 46.3415 260.493 44.6846V35.6658C260.493 34.009 261.836 32.6658 263.493 32.6658H304.238C305.895 32.6658 307.238 34.009 307.238 35.6658V44.6846C307.238 46.3415 305.895 47.6846 304.238 47.6846H263.493Z" fill="black"/>
<path fill-rule="evenodd" clip-rule="evenodd" d="M42.8465 22.6378H98.08C98.7521 22.6378 99.0881 22.6378 99.3448 22.507C99.5706 22.392 99.7542 22.2084 99.8692 21.9826C100 21.7259 100 21.3899 100 20.7178V1.92C100 1.24794 100 0.911906 99.8692 0.655211C99.7542 0.429417 99.5706 0.24584 99.3448 0.130792C99.0881 0 98.7521 0 98.08 0H44.7665C44.0944 0 43.7584 0 43.5017 0.130792C43.2759 0.24584 43.0923 0.429417 42.9773 0.655211C42.8465 0.911906 42.8465 1.24794 42.8465 1.92V22.6378L24.7019 4.46493C23.6737 3.43504 23.1595 2.9201 22.718 2.88511C22.335 2.85475 21.9606 3.00967 21.7109 3.30181C21.4232 3.6385 21.4232 4.36617 21.4232 5.82151V27.4606L3.2787 9.28776C2.25042 8.25787 1.73628 7.74293 1.2948 7.70794C0.911747 7.67759 0.537319 7.83251 0.287695 8.12464C0 8.46133 0 9.189 0 10.6443V31.4891C0 31.7822 0 31.9288 0.0330906 32.0668C0.0624287 32.1891 0.110819 32.3061 0.176489 32.4134C0.250559 32.5344 0.354138 32.6382 0.561296 32.8456L21.4232 53.7402V98.08C21.4232 98.7521 21.4232 99.0881 21.554 99.3448C21.6691 99.5706 21.8527 99.7542 22.0784 99.8692C22.3351 100 22.6712 100 23.3432 100H42.2623C42.9344 100 43.2704 100 43.5271 99.8692C43.7529 99.7542 43.9365 99.5706 44.0516 99.3448C44.1823 99.0881 44.1823 98.7521 44.1823 98.08V78.298C44.1823 77.6259 44.1823 77.2899 44.3131 77.0332C44.4282 76.8074 44.6118 76.6238 44.8376 76.5088C45.0943 76.378 45.4303 76.378 46.1023 76.378H98.08C98.7521 76.378 99.0881 76.378 99.3448 76.2472C99.5706 76.1321 99.7542 75.9485 99.8692 75.7227C100 75.466 100 75.13 100 74.458V55.6602C100 54.9881 100 54.6521 99.8692 54.3954C99.7542 54.1696 99.5706 53.986 99.3448 53.871C99.0881 53.7402 98.7521 53.7402 98.08 53.7402H21.4232L21.4232 27.4606L39.5678 45.6335C40.5961 46.6634 41.1102 47.1783 41.5517 47.2133C41.9347 47.2437 42.3092 47.0888 42.5588 46.7966C42.8465 46.4599 42.8465 45.7323 42.8465 44.2769V22.6378Z" fill="black"/>
</svg>
