<svg width="417" height="100" viewBox="0 0 417 100" fill="none" xmlns="http://www.w3.org/2000/svg">
<path fill-rule="evenodd" clip-rule="evenodd" d="M42.8652 22.6378H98.1228C98.7952 22.6378 99.1314 22.6378 99.3882 22.507C99.6141 22.392 99.7977 22.2084 99.9128 21.9826C100.044 21.7259 100.044 21.3899 100.044 20.7178V1.92C100.044 1.24794 100.044 0.911905 99.9128 0.655211C99.7977 0.429417 99.6141 0.24584 99.3882 0.130792C99.1314 0 98.7952 0 98.1228 0H44.786C44.1137 0 43.7775 0 43.5207 0.130792C43.2948 0.24584 43.1111 0.429417 42.996 0.655211C42.8652 0.911905 42.8652 1.24794 42.8652 1.92V22.6378L24.7127 4.46493C23.684 3.43504 23.1696 2.9201 22.728 2.88511C22.3447 2.85475 21.9702 3.00967 21.7204 3.30181C21.4326 3.6385 21.4326 4.36617 21.4326 5.82151V27.4606L3.28014 9.28776C2.25141 8.25787 1.73704 7.74293 1.29537 7.70794C0.912145 7.67759 0.537554 7.83251 0.287821 8.12464C0 8.46133 0 9.189 0 10.6443V31.4891C0 31.7822 0 31.9288 0.033105 32.0668C0.0624559 32.1891 0.110868 32.3061 0.176567 32.4134C0.250669 32.5344 0.354293 32.6382 0.561541 32.8456L21.4326 53.7402V98.08C21.4326 98.7521 21.4326 99.0881 21.5634 99.3448C21.6785 99.5706 21.8622 99.7542 22.0881 99.8692C22.3449 100 22.6811 100 23.3534 100H42.2808C42.9532 100 43.2893 100 43.5461 99.8692C43.772 99.7542 43.9557 99.5706 44.0708 99.3448C44.2016 99.0881 44.2016 98.7521 44.2016 98.08V78.298C44.2016 77.6259 44.2016 77.2899 44.3325 77.0332C44.4476 76.8074 44.6312 76.6238 44.8571 76.5088C45.1139 76.378 45.4501 76.378 46.1225 76.378H98.1228C98.7952 76.378 99.1314 76.378 99.3882 76.2472C99.6141 76.1321 99.7977 75.9485 99.9128 75.7227C100.044 75.466 100.044 75.13 100.044 74.458V55.6602C100.044 54.9881 100.044 54.6521 99.9128 54.3954C99.7977 54.1696 99.6141 53.986 99.3882 53.871C99.1314 53.7402 98.7952 53.7402 98.1228 53.7402H21.4326L21.4326 27.4606L39.5851 45.6335C40.6138 46.6634 41.1282 47.1783 41.5698 47.2133C41.9531 47.2437 42.3276 47.0888 42.5774 46.7966C42.8652 46.4599 42.8652 45.7323 42.8652 44.2769V22.6378Z" fill="currentColor"/>
<path d="M157.669 85C151.266 85 145.897 84.0667 141.562 82.2C137.293 80.3333 134.059 77.9 131.858 74.9C129.657 71.9 128.489 68.7 128.356 65.3C128.356 64.7667 128.556 64.3 128.956 63.9C129.356 63.4333 129.857 63.2 130.457 63.2H141.162C142.029 63.2 142.696 63.4 143.163 63.8C143.629 64.1333 144.063 64.5667 144.463 65.1C144.93 66.2333 145.664 67.3333 146.664 68.4C147.731 69.4667 149.165 70.3667 150.966 71.1C152.767 71.7667 155.001 72.1 157.669 72.1C162.004 72.1 165.239 71.4 167.373 70C169.574 68.6 170.675 66.7 170.675 64.3C170.675 62.5667 170.074 61.1667 168.874 60.1C167.74 59.0333 165.906 58.0667 163.371 57.2C160.904 56.3333 157.602 55.4 153.467 54.4C148.465 53.3333 144.196 51.9667 140.661 50.3C137.193 48.5667 134.559 46.3667 132.758 43.7C131.024 40.9667 130.157 37.6 130.157 33.6C130.157 29.6 131.257 26.0667 133.458 23C135.659 19.8667 138.761 17.4333 142.762 15.7C146.764 13.9 151.533 13 157.069 13C161.537 13 165.472 13.6 168.874 14.8C172.342 16 175.21 17.5667 177.477 19.5C179.812 21.4333 181.579 23.5 182.78 25.7C183.98 27.9 184.614 30.0333 184.681 32.1C184.681 32.6333 184.481 33.1333 184.08 33.6C183.68 34 183.18 34.2 182.58 34.2H171.375C170.708 34.2 170.108 34.0667 169.574 33.8C169.04 33.5333 168.607 33.0667 168.273 32.4C167.873 30.6667 166.673 29.1667 164.672 27.9C162.738 26.5667 160.203 25.9 157.069 25.9C153.8 25.9 151.199 26.5 149.265 27.7C147.398 28.9 146.464 30.7333 146.464 33.2C146.464 34.8 146.931 36.1667 147.865 37.3C148.865 38.3667 150.499 39.3333 152.767 40.2C155.101 41 158.169 41.9 161.971 42.9C167.84 44.1 172.609 45.5333 176.277 47.2C179.945 48.8667 182.646 51.0333 184.381 53.7C186.115 56.3 186.982 59.6 186.982 63.6C186.982 68.0667 185.714 71.9 183.18 75.1C180.712 78.3 177.277 80.7667 172.875 82.5C168.54 84.1667 163.471 85 157.669 85Z" fill="currentColor"/>
<path d="M199.121 84C198.388 84 197.787 83.7667 197.321 83.3C196.854 82.8333 196.62 82.2333 196.62 81.5V15.5C196.62 14.7667 196.854 14.1667 197.321 13.7C197.787 13.2333 198.388 13 199.121 13H209.126C209.793 13 210.36 13.2333 210.826 13.7C211.293 14.1667 211.527 14.7667 211.527 15.5V81.5C211.527 82.2333 211.293 82.8333 210.826 83.3C210.36 83.7667 209.793 84 209.126 84H199.121Z" fill="currentColor"/>
<path d="M226.572 84C225.905 84 225.338 83.7667 224.872 83.3C224.405 82.8333 224.171 82.2333 224.171 81.5V34.5C224.171 33.7667 224.405 33.1667 224.872 32.7C225.338 32.2333 225.905 32 226.572 32H236.577C237.31 32 237.911 32.2333 238.378 32.7C238.844 33.1667 239.078 33.7667 239.078 34.5V81.5C239.078 82.2333 238.844 82.8333 238.378 83.3C237.911 83.7667 237.31 84 236.577 84H226.572ZM226.272 24C225.605 24 225.038 23.7667 224.571 23.3C224.105 22.8333 223.871 22.2333 223.871 21.5V13.5C223.871 12.7667 224.105 12.1667 224.571 11.7C225.038 11.1667 225.605 10.9 226.272 10.9H236.777C237.51 10.9 238.111 11.1667 238.578 11.7C239.111 12.1667 239.378 12.7667 239.378 13.5V21.5C239.378 22.2333 239.111 22.8333 238.578 23.3C238.111 23.7667 237.51 24 236.777 24H226.272Z" fill="currentColor"/>
<path d="M270.933 85C267.598 85 264.63 84.4667 262.029 83.4C259.428 82.2667 257.227 80.6667 255.426 78.6C253.626 76.4667 252.258 73.9667 251.325 71.1C250.391 68.1667 249.824 64.9333 249.624 61.4C249.557 60.1333 249.524 59 249.524 58C249.524 56.9333 249.557 55.8 249.624 54.6C249.757 51.1333 250.291 47.9667 251.225 45.1C252.225 42.2333 253.592 39.7667 255.326 37.7C257.127 35.5667 259.328 33.9333 261.929 32.8C264.597 31.6 267.598 31 270.933 31C274.401 31 277.369 31.6 279.837 32.8C282.305 33.9333 284.339 35.4333 285.94 37.3V15.5C285.94 14.7667 286.173 14.1667 286.64 13.7C287.107 13.2333 287.707 13 288.441 13H298.745C299.412 13 299.979 13.2333 300.446 13.7C300.913 14.1667 301.146 14.7667 301.146 15.5V81.5C301.146 82.2333 300.913 82.8333 300.446 83.3C299.979 83.7667 299.412 84 298.745 84H289.141C288.474 84 287.907 83.7667 287.44 83.3C286.973 82.8333 286.74 82.2333 286.74 81.5V78.1C285.073 80.1 282.972 81.7667 280.437 83.1C277.903 84.3667 274.735 85 270.933 85ZM275.535 73C278.003 73 279.97 72.4333 281.438 71.3C282.972 70.1667 284.072 68.7333 284.739 67C285.473 65.2667 285.873 63.4 285.94 61.4C286.073 60.1333 286.14 58.8667 286.14 57.6C286.14 56.3333 286.073 55.1 285.94 53.9C285.873 52.0333 285.473 50.3 284.739 48.7C284.005 47.0333 282.872 45.6667 281.338 44.6C279.87 43.5333 277.936 43 275.535 43C273.001 43 271 43.5667 269.533 44.7C268.065 45.7667 266.998 47.2 266.331 49C265.731 50.8 265.364 52.7667 265.231 54.9C265.031 56.9667 265.031 59.0333 265.231 61.1C265.364 63.2333 265.731 65.2 266.331 67C266.998 68.8 268.065 70.2667 269.533 71.4C271 72.4667 273.001 73 275.535 73Z" fill="currentColor"/>
<path d="M337.069 85C329.399 85 323.296 82.8667 318.761 78.6C314.292 74.3333 311.925 68.1333 311.658 60C311.658 59.4667 311.658 58.7667 311.658 57.9C311.658 56.9667 311.658 56.2333 311.658 55.7C311.925 50.5667 313.092 46.1667 315.159 42.5C317.227 38.7667 320.128 35.9333 323.863 34C327.598 32 331.967 31 336.969 31C342.571 31 347.24 32.1667 350.975 34.5C354.777 36.7667 357.611 39.9 359.479 43.9C361.413 47.8333 362.38 52.3667 362.38 57.5V59.8C362.38 60.4667 362.113 61.0333 361.58 61.5C361.113 61.9667 360.546 62.2 359.879 62.2H327.165C327.165 62.2667 327.165 62.4 327.165 62.6C327.165 62.7333 327.165 62.8667 327.165 63C327.231 65.1333 327.632 67.1 328.365 68.9C329.166 70.6333 330.266 72.0333 331.667 73.1C333.134 74.1667 334.868 74.7 336.869 74.7C338.536 74.7 339.904 74.4667 340.971 74C342.038 73.5333 342.905 72.9667 343.572 72.3C344.306 71.6333 344.839 71.0667 345.173 70.6C345.773 69.9333 346.24 69.5333 346.573 69.4C346.973 69.2 347.574 69.1 348.374 69.1H358.779C359.445 69.1 359.979 69.3 360.379 69.7C360.846 70.0333 361.046 70.5333 360.979 71.2C360.913 72.2667 360.346 73.6 359.279 75.2C358.278 76.7333 356.778 78.2667 354.777 79.8C352.776 81.2667 350.275 82.5 347.274 83.5C344.339 84.5 340.937 85 337.069 85ZM327.165 53.1H346.773V52.9C346.773 50.5 346.373 48.4333 345.573 46.7C344.839 44.9 343.739 43.5 342.271 42.5C340.804 41.5 339.037 41 336.969 41C334.901 41 333.134 41.5 331.667 42.5C330.199 43.5 329.066 44.9 328.265 46.7C327.532 48.4333 327.165 50.5 327.165 52.9V53.1Z" fill="currentColor"/>
<path d="M392.889 85C388.754 85 385.186 84.5333 382.185 83.6C379.25 82.6 376.849 81.4 374.982 80C373.181 78.6 371.814 77.2 370.88 75.8C370.013 74.3333 369.546 73.1 369.479 72.1C369.413 71.3667 369.646 70.7667 370.18 70.3C370.713 69.8333 371.247 69.6 371.78 69.6H381.485C381.685 69.6 381.885 69.6333 382.085 69.7C382.285 69.7667 382.485 69.9333 382.685 70.2C383.552 70.8 384.452 71.5 385.386 72.3C386.32 73.0333 387.387 73.6667 388.588 74.2C389.855 74.7333 391.422 75 393.29 75C395.491 75 397.358 74.5667 398.892 73.7C400.426 72.7667 401.193 71.4667 401.193 69.8C401.193 68.6 400.826 67.6 400.093 66.8C399.426 66 398.125 65.2667 396.191 64.6C394.257 63.9333 391.389 63.2 387.587 62.4C383.986 61.6 380.918 60.5333 378.383 59.2C375.849 57.8667 373.948 56.2 372.681 54.2C371.413 52.1333 370.78 49.6667 370.78 46.8C370.78 44.2 371.58 41.7 373.181 39.3C374.848 36.9 377.283 34.9333 380.484 33.4C383.685 31.8 387.687 31 392.489 31C396.158 31 399.359 31.4667 402.094 32.4C404.895 33.2667 407.229 34.4 409.097 35.8C410.964 37.1333 412.365 38.5333 413.298 40C414.299 41.4 414.832 42.6333 414.899 43.7C414.966 44.3667 414.766 44.9333 414.299 45.4C413.832 45.8667 413.298 46.1 412.698 46.1H403.794C403.461 46.1 403.161 46.0667 402.894 46C402.627 45.8667 402.394 45.7 402.194 45.5C401.393 44.9667 400.56 44.3667 399.692 43.7C398.892 42.9667 397.925 42.3333 396.791 41.8C395.657 41.2667 394.19 41 392.389 41C390.188 41 388.488 41.5 387.287 42.5C386.153 43.4333 385.586 44.6333 385.586 46.1C385.586 47.0333 385.886 47.9 386.487 48.7C387.087 49.5 388.321 50.2333 390.188 50.9C392.056 51.5667 394.89 52.2667 398.692 53C403.227 53.8 406.829 55 409.497 56.6C412.165 58.2 414.065 60.0667 415.199 62.2C416.4 64.2667 417 66.5 417 68.9C417 72.0333 416.066 74.8333 414.199 77.3C412.331 79.7 409.597 81.6 405.995 83C402.46 84.3333 398.092 85 392.889 85Z" fill="currentColor"/>
</svg>
