<svg width="497" height="100" viewBox="0 0 497 100" fill="none" xmlns="http://www.w3.org/2000/svg">
<path d="M3.37123 98.6505C2.38234 98.6505 1.57324 98.3356 0.943945 97.7058C0.314649 97.076 0 96.2663 0 95.2767V7.55735C0 6.5677 0.314649 5.75798 0.943945 5.1282C1.57324 4.49842 2.38234 4.18353 3.37123 4.18353H18.0698C19.0587 4.18353 19.8678 4.49842 20.4971 5.1282C21.1264 5.75798 21.4411 6.5677 21.4411 7.55735V41.2955H57.9852V7.55735C57.9852 6.5677 58.2999 5.75798 58.9292 5.1282C59.5585 4.49842 60.3676 4.18353 61.3565 4.18353H76.055C77.0439 4.18353 77.853 4.49842 78.4823 5.1282C79.1116 5.75798 79.4263 6.5677 79.4263 7.55735V95.2767C79.4263 96.2663 79.1116 97.076 78.4823 97.7058C77.853 98.3356 77.0439 98.6505 76.055 98.6505H61.3565C60.3676 98.6505 59.5585 98.3356 58.9292 97.7058C58.2999 97.076 57.9852 96.2663 57.9852 95.2767V60.4588H21.4411V95.2767C21.4411 96.2663 21.1264 97.076 20.4971 97.7058C19.8678 98.3356 19.0587 98.6505 18.0698 98.6505H3.37123Z" fill="currentColor"/>
<path d="M130.036 100C122.574 100 116.326 98.7854 111.292 96.3563C106.257 93.8372 102.392 90.2834 99.6948 85.695C97.0877 81.1066 95.6493 75.7535 95.3796 69.6356C95.2897 67.8363 95.2447 65.812 95.2447 63.5628C95.2447 61.2236 95.2897 59.1993 95.3796 57.4899C95.6493 51.2821 97.1776 45.9289 99.9645 41.4305C102.751 36.8421 106.662 33.3333 111.696 30.9042C116.731 28.3851 122.844 27.1255 130.036 27.1255C137.138 27.1255 143.206 28.3851 148.241 30.9042C153.275 33.3333 157.186 36.8421 159.972 41.4305C162.759 45.9289 164.288 51.2821 164.557 57.4899C164.737 59.1993 164.827 61.2236 164.827 63.5628C164.827 65.812 164.737 67.8363 164.557 69.6356C164.288 75.7535 162.804 81.1066 160.107 85.695C157.5 90.2834 153.679 93.8372 148.645 96.3563C143.611 98.7854 137.408 100 130.036 100ZM130.036 85.1552C134.441 85.1552 137.767 83.8057 140.015 81.1066C142.262 78.3176 143.476 74.269 143.656 68.9609C143.746 67.6113 143.791 65.812 143.791 63.5628C143.791 61.3135 143.746 59.5142 143.656 58.1646C143.476 52.9465 142.262 48.9429 140.015 46.1538C137.767 43.3648 134.441 41.9703 130.036 41.9703C125.631 41.9703 122.26 43.3648 119.922 46.1538C117.675 48.9429 116.461 52.9465 116.281 58.1646C116.191 59.5142 116.146 61.3135 116.146 63.5628C116.146 65.812 116.191 67.6113 116.281 68.9609C116.461 74.269 117.675 78.3176 119.922 81.1066C122.26 83.8057 125.631 85.1552 130.036 85.1552Z" fill="currentColor"/>
<path d="M182.167 98.6505C181.268 98.6505 180.504 98.3356 179.874 97.7058C179.245 97.076 178.93 96.2663 178.93 95.2767V31.8488C178.93 30.9492 179.245 30.1844 179.874 29.5547C180.504 28.8349 181.268 28.475 182.167 28.475H195.382C196.281 28.475 197.045 28.8349 197.674 29.5547C198.394 30.1844 198.753 30.9492 198.753 31.8488V37.247C201.001 34.4579 203.743 32.2987 206.979 30.7692C210.305 29.2398 214.126 28.475 218.441 28.475H224.24C225.139 28.475 225.903 28.7899 226.532 29.4197C227.161 30.0495 227.476 30.8592 227.476 31.8488V43.4548C227.476 44.4444 227.161 45.2542 226.532 45.8839C225.903 46.5137 225.139 46.8286 224.24 46.8286H212.373C208.417 46.8286 205.316 47.9532 203.068 50.2024C200.821 52.3617 199.697 55.4656 199.697 59.5142V95.2767C199.697 96.2663 199.383 97.076 198.753 97.7058C198.124 98.3356 197.315 98.6505 196.326 98.6505H182.167Z" fill="currentColor"/>
<path d="M240.768 98.6505C239.869 98.6505 239.105 98.3356 238.476 97.7058C237.847 97.076 237.532 96.2663 237.532 95.2767V31.8488C237.532 30.8592 237.847 30.0495 238.476 29.4197C239.105 28.7899 239.869 28.475 240.768 28.475H254.253C255.242 28.475 256.051 28.7899 256.681 29.4197C257.31 30.0495 257.624 30.8592 257.624 31.8488V95.2767C257.624 96.2663 257.31 97.076 256.681 97.7058C256.051 98.3356 255.242 98.6505 254.253 98.6505H240.768ZM240.364 17.6788C239.465 17.6788 238.701 17.3639 238.071 16.7341C237.442 16.1044 237.127 15.2946 237.127 14.305V3.50877C237.127 2.51912 237.442 1.7094 238.071 1.07962C238.701 0.359872 239.465 0 240.364 0H254.523C255.512 0 256.321 0.359872 256.95 1.07962C257.669 1.7094 258.029 2.51912 258.029 3.50877V14.305C258.029 15.2946 257.669 16.1044 256.95 16.7341C256.321 17.3639 255.512 17.6788 254.523 17.6788H240.364Z" fill="currentColor"/>
<path d="M274.536 98.6505C273.637 98.6505 272.873 98.3356 272.244 97.7058C271.615 97.076 271.3 96.2663 271.3 95.2767V86.2348C271.3 85.3351 271.48 84.5254 271.839 83.8057C272.289 83.0859 272.783 82.4112 273.323 81.7814L306.361 44.1296H275.75C274.761 44.1296 273.952 43.8147 273.323 43.1849C272.694 42.5551 272.379 41.7904 272.379 40.8907V31.8488C272.379 30.8592 272.694 30.0495 273.323 29.4197C273.952 28.7899 274.761 28.475 275.75 28.475H328.341C329.33 28.475 330.139 28.7899 330.769 29.4197C331.398 30.0495 331.713 30.8592 331.713 31.8488V41.5655C331.713 42.3752 331.533 43.0949 331.173 43.7247C330.814 44.3545 330.364 44.9843 329.825 45.614L297.461 82.996H331.173C332.072 82.996 332.836 83.3108 333.466 83.9406C334.095 84.5704 334.41 85.3351 334.41 86.2348V95.2767C334.41 96.2663 334.095 97.076 333.466 97.7058C332.836 98.3356 332.072 98.6505 331.173 98.6505H274.536Z" fill="currentColor"/>
<path d="M378.928 100C371.466 100 365.218 98.7854 360.184 96.3563C355.149 93.8372 351.284 90.2834 348.587 85.695C345.98 81.1066 344.541 75.7535 344.271 69.6356C344.182 67.8363 344.137 65.812 344.137 63.5628C344.137 61.2236 344.182 59.1993 344.271 57.4899C344.541 51.2821 346.069 45.9289 348.856 41.4305C351.643 36.8421 355.554 33.3333 360.588 30.9042C365.623 28.3851 371.736 27.1255 378.928 27.1255C386.03 27.1255 392.098 28.3851 397.132 30.9042C402.167 33.3333 406.077 36.8421 408.864 41.4305C411.651 45.9289 413.18 51.2821 413.449 57.4899C413.629 59.1993 413.719 61.2236 413.719 63.5628C413.719 65.812 413.629 67.8363 413.449 69.6356C413.18 75.7535 411.696 81.1066 408.999 85.695C406.392 90.2834 402.571 93.8372 397.537 96.3563C392.503 98.7854 386.3 100 378.928 100ZM378.928 85.1552C383.333 85.1552 386.659 83.8057 388.907 81.1066C391.154 78.3176 392.368 74.269 392.548 68.9609C392.637 67.6113 392.682 65.812 392.682 63.5628C392.682 61.3135 392.637 59.5142 392.548 58.1646C392.368 52.9465 391.154 48.9429 388.907 46.1538C386.659 43.3648 383.333 41.9703 378.928 41.9703C374.523 41.9703 371.151 43.3648 368.814 46.1538C366.567 48.9429 365.353 52.9465 365.173 58.1646C365.083 59.5142 365.038 61.3135 365.038 63.5628C365.038 65.812 365.083 67.6113 365.173 68.9609C365.353 74.269 366.567 78.3176 368.814 81.1066C371.151 83.8057 374.523 85.1552 378.928 85.1552Z" fill="currentColor"/>
<path d="M431.059 98.6505C430.16 98.6505 429.396 98.3356 428.766 97.7058C428.137 97.076 427.822 96.2663 427.822 95.2767V31.8488C427.822 30.8592 428.137 30.0495 428.766 29.4197C429.396 28.7899 430.16 28.475 431.059 28.475H444.274C445.263 28.475 446.072 28.7899 446.701 29.4197C447.33 30.0495 447.645 30.8592 447.645 31.8488V37.112C449.983 34.233 452.994 31.8489 456.68 29.9595C460.366 28.0702 464.861 27.1255 470.165 27.1255C475.469 27.1255 480.099 28.3401 484.054 30.7692C488.1 33.1084 491.246 36.5722 493.494 41.1606C495.831 45.659 497 51.1471 497 57.6248V95.2767C497 96.2663 496.64 97.076 495.921 97.7058C495.292 98.3356 494.528 98.6505 493.629 98.6505H479.335C478.346 98.6505 477.537 98.3356 476.907 97.7058C476.278 97.076 475.964 96.2663 475.964 95.2767V58.4345C475.964 53.6662 474.795 49.9775 472.457 47.3684C470.21 44.6694 466.884 43.3198 462.479 43.3198C458.253 43.3198 454.882 44.6694 452.365 47.3684C449.848 49.9775 448.589 53.6662 448.589 58.4345V95.2767C448.589 96.2663 448.274 97.076 447.645 97.7058C447.016 98.3356 446.252 98.6505 445.353 98.6505H431.059Z" fill="currentColor"/>
</svg>
