<svg width="382" height="100" viewBox="0 0 382 100" fill="none" xmlns="http://www.w3.org/2000/svg">
<path d="M9.9 84C9.16667 84 8.56667 83.7667 8.1 83.3C7.63333 82.8333 7.4 82.2333 7.4 81.5V16.5C7.4 15.7667 7.63333 15.1667 8.1 14.7C8.56667 14.2333 9.16667 14 9.9 14H20.8C21.5333 14 22.1333 14.2333 22.6 14.7C23.0667 15.1667 23.3 15.7667 23.3 16.5V41.5H50.4V16.5C50.4 15.7667 50.6333 15.1667 51.1 14.7C51.5667 14.2333 52.1667 14 52.9 14H63.8C64.5333 14 65.1333 14.2333 65.6 14.7C66.0667 15.1667 66.3 15.7667 66.3 16.5V81.5C66.3 82.2333 66.0667 82.8333 65.6 83.3C65.1333 83.7667 64.5333 84 63.8 84H52.9C52.1667 84 51.5667 83.7667 51.1 83.3C50.6333 82.8333 50.4 82.2333 50.4 81.5V55.7H23.3V81.5C23.3 82.2333 23.0667 82.8333 22.6 83.3C22.1333 83.7667 21.5333 84 20.8 84H9.9ZM103.83 85C98.2971 85 93.6638 84.1 89.9305 82.3C86.1971 80.4333 83.3305 77.8 81.3305 74.4C79.3971 71 78.3305 67.0333 78.1305 62.5C78.0638 61.1667 78.0305 59.6667 78.0305 58C78.0305 56.2667 78.0638 54.7667 78.1305 53.5C78.3305 48.9 79.4638 44.9333 81.5305 41.6C83.5971 38.2 86.4971 35.6 90.2305 33.8C93.9638 31.9333 98.4971 31 103.83 31C109.097 31 113.597 31.9333 117.33 33.8C121.064 35.6 123.964 38.2 126.03 41.6C128.097 44.9333 129.23 48.9 129.43 53.5C129.564 54.7667 129.63 56.2667 129.63 58C129.63 59.6667 129.564 61.1667 129.43 62.5C129.23 67.0333 128.13 71 126.13 74.4C124.197 77.8 121.364 80.4333 117.63 82.3C113.897 84.1 109.297 85 103.83 85ZM103.83 74C107.097 74 109.564 73 111.23 71C112.897 68.9333 113.797 65.9333 113.93 62C113.997 61 114.03 59.6667 114.03 58C114.03 56.3333 113.997 55 113.93 54C113.797 50.1333 112.897 47.1667 111.23 45.1C109.564 43.0333 107.097 42 103.83 42C100.564 42 98.0638 43.0333 96.3305 45.1C94.6638 47.1667 93.7638 50.1333 93.6305 54C93.5638 55 93.5305 56.3333 93.5305 58C93.5305 59.6667 93.5638 61 93.6305 62C93.7638 65.9333 94.6638 68.9333 96.3305 71C98.0638 73 100.564 74 103.83 74ZM142.489 84C141.822 84 141.256 83.7667 140.789 83.3C140.322 82.8333 140.089 82.2333 140.089 81.5V34.5C140.089 33.8333 140.322 33.2667 140.789 32.8C141.256 32.2667 141.822 32 142.489 32H152.289C152.956 32 153.522 32.2667 153.989 32.8C154.522 33.2667 154.789 33.8333 154.789 34.5V38.5C156.456 36.4333 158.489 34.8333 160.889 33.7C163.356 32.5667 166.189 32 169.389 32H173.689C174.356 32 174.922 32.2333 175.389 32.7C175.856 33.1667 176.089 33.7667 176.089 34.5V43.1C176.089 43.8333 175.856 44.4333 175.389 44.9C174.922 45.3667 174.356 45.6 173.689 45.6H164.889C161.956 45.6 159.656 46.4333 157.989 48.1C156.322 49.7 155.489 52 155.489 55V81.5C155.489 82.2333 155.256 82.8333 154.789 83.3C154.322 83.7667 153.722 84 152.989 84H142.489ZM185.946 84C185.279 84 184.713 83.7667 184.246 83.3C183.779 82.8333 183.546 82.2333 183.546 81.5V34.5C183.546 33.7667 183.779 33.1667 184.246 32.7C184.713 32.2333 185.279 32 185.946 32H195.946C196.679 32 197.279 32.2333 197.746 32.7C198.213 33.1667 198.446 33.7667 198.446 34.5V81.5C198.446 82.2333 198.213 82.8333 197.746 83.3C197.279 83.7667 196.679 84 195.946 84H185.946ZM185.646 24C184.979 24 184.413 23.7667 183.946 23.3C183.479 22.8333 183.246 22.2333 183.246 21.5V13.5C183.246 12.7667 183.479 12.1667 183.946 11.7C184.413 11.1667 184.979 10.9 185.646 10.9H196.146C196.879 10.9 197.479 11.1667 197.946 11.7C198.479 12.1667 198.746 12.7667 198.746 13.5V21.5C198.746 22.2333 198.479 22.8333 197.946 23.3C197.479 23.7667 196.879 24 196.146 24H185.646ZM210.988 84C210.321 84 209.754 83.7667 209.288 83.3C208.821 82.8333 208.588 82.2333 208.588 81.5V74.8C208.588 74.1333 208.721 73.5333 208.988 73C209.321 72.4667 209.688 71.9667 210.088 71.5L234.588 43.6H211.888C211.154 43.6 210.554 43.3667 210.088 42.9C209.621 42.4333 209.388 41.8667 209.388 41.2V34.5C209.388 33.7667 209.621 33.1667 210.088 32.7C210.554 32.2333 211.154 32 211.888 32H250.888C251.621 32 252.221 32.2333 252.688 32.7C253.154 33.1667 253.388 33.7667 253.388 34.5V41.7C253.388 42.3 253.254 42.8333 252.988 43.3C252.721 43.7667 252.388 44.2333 251.988 44.7L227.988 72.4H252.988C253.654 72.4 254.221 72.6333 254.688 73.1C255.154 73.5667 255.388 74.1333 255.388 74.8V81.5C255.388 82.2333 255.154 82.8333 254.688 83.3C254.221 83.7667 253.654 84 252.988 84H210.988ZM288.401 85C282.867 85 278.234 84.1 274.501 82.3C270.767 80.4333 267.901 77.8 265.901 74.4C263.967 71 262.901 67.0333 262.701 62.5C262.634 61.1667 262.601 59.6667 262.601 58C262.601 56.2667 262.634 54.7667 262.701 53.5C262.901 48.9 264.034 44.9333 266.101 41.6C268.167 38.2 271.067 35.6 274.801 33.8C278.534 31.9333 283.067 31 288.401 31C293.667 31 298.167 31.9333 301.901 33.8C305.634 35.6 308.534 38.2 310.601 41.6C312.667 44.9333 313.801 48.9 314.001 53.5C314.134 54.7667 314.201 56.2667 314.201 58C314.201 59.6667 314.134 61.1667 314.001 62.5C313.801 67.0333 312.701 71 310.701 74.4C308.767 77.8 305.934 80.4333 302.201 82.3C298.467 84.1 293.867 85 288.401 85ZM288.401 74C291.667 74 294.134 73 295.801 71C297.467 68.9333 298.367 65.9333 298.501 62C298.567 61 298.601 59.6667 298.601 58C298.601 56.3333 298.567 55 298.501 54C298.367 50.1333 297.467 47.1667 295.801 45.1C294.134 43.0333 291.667 42 288.401 42C285.134 42 282.634 43.0333 280.901 45.1C279.234 47.1667 278.334 50.1333 278.201 54C278.134 55 278.101 56.3333 278.101 58C278.101 59.6667 278.134 61 278.201 62C278.334 65.9333 279.234 68.9333 280.901 71C282.634 73 285.134 74 288.401 74ZM327.059 84C326.393 84 325.826 83.7667 325.359 83.3C324.893 82.8333 324.659 82.2333 324.659 81.5V34.5C324.659 33.7667 324.893 33.1667 325.359 32.7C325.826 32.2333 326.393 32 327.059 32H336.859C337.593 32 338.193 32.2333 338.659 32.7C339.126 33.1667 339.359 33.7667 339.359 34.5V38.4C341.093 36.2667 343.326 34.5 346.059 33.1C348.793 31.7 352.126 31 356.059 31C359.993 31 363.426 31.9 366.359 33.7C369.359 35.4333 371.693 38 373.359 41.4C375.093 44.7333 375.959 48.8 375.959 53.6V81.5C375.959 82.2333 375.693 82.8333 375.159 83.3C374.693 83.7667 374.126 84 373.459 84H362.859C362.126 84 361.526 83.7667 361.059 83.3C360.593 82.8333 360.359 82.2333 360.359 81.5V54.2C360.359 50.6667 359.493 47.9333 357.759 46C356.093 44 353.626 43 350.359 43C347.226 43 344.726 44 342.859 46C340.993 47.9333 340.059 50.6667 340.059 54.2V81.5C340.059 82.2333 339.826 82.8333 339.359 83.3C338.893 83.7667 338.326 84 337.659 84H327.059Z" fill="black"/>
</svg>
