<svg width="494" height="100" viewBox="0 0 494 100" fill="none" xmlns="http://www.w3.org/2000/svg">
<path d="M60.4618 13.9434C60.4618 12.2865 61.805 10.9434 63.4618 10.9434H77.8677C79.5246 10.9434 80.8677 12.2865 80.8677 13.9434V95.9937C80.8677 97.6506 79.5246 98.9937 77.8677 98.9937H63.4618C61.805 98.9937 60.4618 97.6506 60.4618 95.9937V13.9434ZM20.4059 95.9937C20.4059 97.6506 19.0627 98.9937 17.4059 98.9937H3C1.34314 98.9937 0 97.6506 0 95.9937V13.9434C0 12.2865 1.34315 10.9434 3 10.9434H17.4059C19.0627 10.9434 20.4059 12.2865 20.4059 13.9434V95.9937ZM61.9734 59.8931C61.9734 61.5499 60.6302 62.8931 58.9734 62.8931H21.8943C20.2375 62.8931 18.8943 61.5499 18.8943 59.8931V48.6604C18.8943 47.0035 20.2375 45.6604 21.8943 45.6604H58.9734C60.6303 45.6604 61.9734 47.0035 61.9734 48.6604V59.8931Z" fill="black"/>
<path d="M132.59 100C125.368 100 118.944 98.4906 113.318 95.4717C107.775 92.4528 103.367 88.3438 100.092 83.1447C96.9007 77.8616 95.3051 71.8658 95.3051 65.1572C95.3051 58.3648 96.9007 52.369 100.092 47.1698C103.367 41.8868 107.775 37.7778 113.318 34.8428C118.944 31.8239 125.368 30.3145 132.59 30.3145C139.728 30.3145 146.11 31.8239 151.736 34.8428C157.363 37.7778 161.771 41.8449 164.962 47.044C168.153 52.2432 169.749 58.2809 169.749 65.1572C169.749 71.8658 168.153 77.8616 164.962 83.1447C161.771 88.3438 157.363 92.4528 151.736 95.4717C146.11 98.4906 139.728 100 132.59 100ZM132.59 83.8994C135.865 83.8994 138.804 83.1446 141.407 81.6352C144.011 80.1258 146.068 77.9874 147.579 75.2201C149.091 72.369 149.847 69.0147 149.847 65.1572C149.847 61.2159 149.091 57.8616 147.579 55.0943C146.068 52.327 144.011 50.1887 141.407 48.6792C138.804 47.1698 135.865 46.4151 132.59 46.4151C129.315 46.4151 126.376 47.1698 123.773 48.6792C121.169 50.1887 119.07 52.327 117.474 55.0943C115.963 57.8616 115.207 61.2159 115.207 65.1572C115.207 69.0147 115.963 72.369 117.474 75.2201C119.07 77.9874 121.169 80.1258 123.773 81.6352C126.376 83.1446 129.315 83.8994 132.59 83.8994Z" fill="black"/>
<path d="M185.883 98.9937C184.226 98.9937 182.883 97.6506 182.883 95.9937V34.3208C182.883 32.6639 184.226 31.3208 185.883 31.3208H198.652C200.309 31.3208 201.652 32.6639 201.652 34.3208V44.8733C201.652 46.2172 199.831 46.63 199.251 45.4175C199.095 45.0919 199.085 44.7145 199.233 44.3853C201.26 39.8633 204.418 36.4309 208.706 34.088C212.442 31.9761 216.859 30.7506 221.956 30.4117C223.61 30.3017 224.955 31.6576 224.955 33.3145V46.1559C224.955 47.3723 223.904 48.3019 222.687 48.3019C222.016 48.218 221.302 48.1761 220.546 48.1761C215.172 48.1761 210.805 49.7275 207.446 52.8302C204.171 55.8491 202.533 60.587 202.533 67.044V95.9937C202.533 97.6506 201.19 98.9937 199.533 98.9937H185.883Z" fill="black"/>
<path d="M239.762 98.9937C238.105 98.9937 236.762 97.6506 236.762 95.9937V34.3208C236.762 32.6639 238.105 31.3208 239.762 31.3208H253.412C255.069 31.3208 256.412 32.6639 256.412 34.3208V95.9937C256.412 97.6506 255.069 98.9937 253.412 98.9937H239.762ZM246.587 21.8868C242.976 21.8868 240.037 20.8386 237.769 18.7421C235.502 16.6457 234.368 14.0461 234.368 10.9434C234.368 7.84067 235.502 5.24109 237.769 3.14466C240.037 1.04822 242.976 0 246.587 0C250.198 0 253.137 1.00629 255.404 3.01887C257.671 4.94759 258.805 7.46332 258.805 10.566C258.805 13.8365 257.671 16.5618 255.404 18.7421C253.221 20.8386 250.282 21.8868 246.587 21.8868Z" fill="black"/>
<path d="M272.988 98.9937C271.331 98.9937 269.988 97.6506 269.988 95.9937V88.2695C269.988 87.5595 270.24 86.8725 270.699 86.3306L307.781 42.5462C308.861 41.2713 310.889 41.4986 311.659 42.9809C312.473 44.5454 311.338 46.4151 309.574 46.4151H273.87C272.213 46.4151 270.87 45.072 270.87 43.4151V34.3208C270.87 32.6639 272.213 31.3208 273.87 31.3208H326.316C327.973 31.3208 329.316 32.6639 329.316 34.3208V42.045C329.316 42.755 329.064 43.442 328.606 43.9838L291.502 87.7938C290.425 89.0655 288.405 88.8546 287.614 87.3877C286.764 85.8116 287.906 83.8994 289.697 83.8994H327.45C329.107 83.8994 330.45 85.2425 330.45 86.8994V95.9937C330.45 97.6506 329.107 98.9937 327.45 98.9937H272.988Z" fill="black"/>
<path d="M374.427 100C367.206 100 360.782 98.4906 355.155 95.4717C349.613 92.4528 345.204 88.3438 341.929 83.1447C338.738 77.8616 337.143 71.8658 337.143 65.1572C337.143 58.3648 338.738 52.369 341.929 47.1698C345.204 41.8868 349.613 37.7778 355.155 34.8428C360.782 31.8239 367.206 30.3145 374.427 30.3145C381.565 30.3145 387.947 31.8239 393.574 34.8428C399.2 37.7778 403.609 41.8449 406.8 47.044C409.991 52.2432 411.586 58.2809 411.586 65.1572C411.586 71.8658 409.991 77.8616 406.8 83.1447C403.609 88.3438 399.2 92.4528 393.574 95.4717C387.947 98.4906 381.565 100 374.427 100ZM374.427 83.8994C377.702 83.8994 380.642 83.1446 383.245 81.6352C385.848 80.1258 387.905 77.9874 389.417 75.2201C390.929 72.369 391.684 69.0147 391.684 65.1572C391.684 61.2159 390.929 57.8616 389.417 55.0943C387.905 52.327 385.848 50.1887 383.245 48.6792C380.642 47.1698 377.702 46.4151 374.427 46.4151C371.152 46.4151 368.213 47.1698 365.61 48.6792C363.007 50.1887 360.908 52.327 359.312 55.0943C357.8 57.8616 357.045 61.2159 357.045 65.1572C357.045 69.0147 357.8 72.369 359.312 75.2201C360.908 77.9874 363.007 80.1258 365.61 81.6352C368.213 83.1446 371.152 83.8994 374.427 83.8994Z" fill="black"/>
<path d="M465.91 30.3145C471.285 30.3145 476.071 31.4046 480.27 33.5849C484.553 35.6813 487.912 38.9518 490.347 43.3962C492.782 47.7568 494 53.3753 494 60.2516V95.9937C494 97.6506 492.657 98.9937 491 98.9937H477.35C475.693 98.9937 474.35 97.6506 474.35 95.9937V63.2704C474.35 57.8197 473.132 53.7946 470.697 51.195C468.346 48.5954 464.987 47.2956 460.62 47.2956C457.513 47.2956 454.7 47.9665 452.181 49.3082C449.745 50.566 447.814 52.5367 446.386 55.2201C445.043 57.9036 444.371 61.3417 444.371 65.5346V95.9937C444.371 97.6506 443.028 98.9937 441.371 98.9937H427.721C426.064 98.9937 424.721 97.6506 424.721 95.9937V34.3208C424.721 32.6639 426.064 31.3208 427.721 31.3208H440.489C442.146 31.3208 443.489 32.6639 443.489 34.3208V44.3422C443.489 45.9875 441.334 46.604 440.464 45.2076C440.154 44.7097 440.13 44.0817 440.426 43.5749C442.832 39.4481 446.163 36.2438 450.417 33.9623C454.952 31.5304 460.116 30.3145 465.91 30.3145Z" fill="black"/>
</svg>
